<svg width="351" height="92" viewBox="0 0 351 92" fill="none" xmlns="http://www.w3.org/2000/svg">
<g clip-path="url(#clip0_2375_234214)">
<rect width="351" height="92" rx="32" fill="#001024" fill-opacity="0.03"/>
<rect width="351" height="92" fill="black" fill-opacity="0.01"/>
<g clip-path="url(#clip1_2375_234214)">
<path d="M21.2314 29V19.8403H22.374V27.9717H25.6875V19.8403H26.8301V27.9717H30.1436V19.8403H31.2861V29H21.2314ZM38.4805 22.1572V23.0713H36.2652V29H35.1607V23.0713H32.9454V22.1572H38.4805ZM40.0002 31.2852V22.1572H41.1046V23.249H41.2062C41.6252 22.4873 42.3869 22.0366 43.339 22.0366C45.0719 22.0366 46.2082 23.4395 46.2082 25.5723V25.585C46.2082 27.7305 45.0783 29.1206 43.339 29.1206C42.3996 29.1206 41.5807 28.6509 41.2062 27.9209H41.1046V31.2852H40.0002ZM43.0851 28.1431C44.3356 28.1431 45.0783 27.1782 45.0783 25.585V25.5723C45.0783 23.979 44.3356 23.0142 43.0851 23.0142C41.841 23.0142 41.0793 23.9917 41.0793 25.5723V25.585C41.0793 27.1655 41.841 28.1431 43.0851 28.1431ZM49.8606 29.1206C48.5593 29.1206 47.5754 28.3335 47.5754 27.0894V27.0767C47.5754 25.8579 48.4768 25.1533 50.0701 25.0581L52.0315 24.9375V24.3154C52.0315 23.4712 51.5173 23.0142 50.4954 23.0142C49.6765 23.0142 49.137 23.3188 48.9592 23.8521L48.9529 23.8711H47.8484L47.8547 23.833C48.0325 22.7603 49.0735 22.0366 50.5334 22.0366C52.2029 22.0366 53.136 22.8936 53.136 24.3154V29H52.0315V27.9907H51.9299C51.4983 28.7207 50.781 29.1206 49.8606 29.1206ZM48.7053 27.064C48.7053 27.7559 49.2956 28.1621 50.0891 28.1621C51.2126 28.1621 52.0315 27.4258 52.0315 26.4482V25.8262L50.2034 25.9404C49.1623 26.0039 48.7053 26.3721 48.7053 27.0513V27.064ZM58.388 31.2852V29.0825C56.2679 29.0444 54.8587 27.686 54.8587 25.585V25.5723C54.8587 23.4648 56.2679 22.1064 58.388 22.0747V19.8403H59.4544V22.0747C61.5682 22.1128 62.9774 23.4648 62.9774 25.5723V25.585C62.9774 27.6924 61.5682 29.0508 59.4544 29.0825V31.2852H58.388ZM58.388 28.1367V23.0205C56.909 23.0522 55.9696 24.0171 55.9696 25.5723V25.585C55.9696 27.1338 56.909 28.0986 58.388 28.1367ZM59.4544 28.1367C60.9271 28.105 61.8665 27.1401 61.8665 25.585V25.5723C61.8665 24.0234 60.9271 23.0586 59.4544 23.0205V28.1367ZM70.644 29.127C69.1841 29.127 68.0732 28.4033 67.9336 27.2988L67.9272 27.248H69.0508L69.0635 27.2988C69.2031 27.8574 69.8125 28.2129 70.644 28.2129C71.6533 28.2129 72.25 27.7241 72.25 27.0449V27.0322C72.25 26.2896 71.6914 25.9468 70.644 25.9468H69.5776V25.0327H70.644C71.52 25.0327 72.0088 24.6836 72.0088 23.9727V23.96C72.0088 23.376 71.5581 22.9443 70.6821 22.9443C69.9013 22.9443 69.311 23.2935 69.2031 23.8394L69.1968 23.8711H68.1177L68.124 23.8267C68.2827 22.7285 69.2856 22.0303 70.6821 22.0303C72.2119 22.0303 73.0879 22.7856 73.0879 23.8774V23.8901C73.0879 24.582 72.6372 25.2104 71.958 25.3691V25.4707C72.8594 25.6675 73.3354 26.2134 73.3354 26.9751V26.9878C73.3354 28.2573 72.2373 29.127 70.644 29.127ZM76.9752 29.1206C75.6739 29.1206 74.69 28.3335 74.69 27.0894V27.0767C74.69 25.8579 75.5914 25.1533 77.1846 25.0581L79.1461 24.9375V24.3154C79.1461 23.4712 78.6319 23.0142 77.6099 23.0142C76.7911 23.0142 76.2515 23.3188 76.0738 23.8521L76.0674 23.8711H74.9629L74.9693 23.833C75.147 22.7603 76.188 22.0366 77.648 22.0366C79.3174 22.0366 80.2505 22.8936 80.2505 24.3154V29H79.1461V27.9907H79.0445C78.6129 28.7207 77.8956 29.1206 76.9752 29.1206ZM75.8199 27.064C75.8199 27.7559 76.4102 28.1621 77.2037 28.1621C78.3272 28.1621 79.1461 27.4258 79.1461 26.4482V25.8262L77.3179 25.9404C76.2769 26.0039 75.8199 26.3721 75.8199 27.0513V27.064ZM85.886 29V22.1572H91.4211V29H90.3166V23.0713H86.9904V29H85.886ZM93.5184 31.2852V22.1572H94.6228V23.249H94.7244C95.1434 22.4873 95.9051 22.0366 96.8572 22.0366C98.5901 22.0366 99.7264 23.4395 99.7264 25.5723V25.585C99.7264 27.7305 98.5965 29.1206 96.8572 29.1206C95.9178 29.1206 95.0989 28.6509 94.7244 27.9209H94.6228V31.2852H93.5184ZM96.6033 28.1431C97.8538 28.1431 98.5965 27.1782 98.5965 25.585V25.5723C98.5965 23.979 97.8538 23.0142 96.6033 23.0142C95.3592 23.0142 94.5975 23.9917 94.5975 25.5723V25.585C94.5975 27.1655 95.3592 28.1431 96.6033 28.1431ZM104.312 29.1206C102.363 29.1206 101.157 27.7749 101.157 25.585V25.5723C101.157 23.376 102.363 22.0366 104.312 22.0366C106.261 22.0366 107.467 23.376 107.467 25.5723V25.585C107.467 27.7749 106.261 29.1206 104.312 29.1206ZM104.312 28.1431C105.607 28.1431 106.337 27.1973 106.337 25.585V25.5723C106.337 23.9536 105.607 23.0142 104.312 23.0142C103.017 23.0142 102.287 23.9536 102.287 25.5723V25.585C102.287 27.1973 103.017 28.1431 104.312 28.1431ZM109.221 29V22.1572H114.756V29H113.652V23.0713H110.326V29H109.221ZM117.438 31.3994C117.292 31.3994 117.101 31.3867 116.949 31.3613V30.4536C117.082 30.479 117.253 30.4854 117.406 30.4854C118.034 30.4854 118.415 30.1997 118.663 29.4126L118.79 29.0063L116.257 22.1572H117.438L119.316 27.7876H119.418L121.291 22.1572H122.452L119.78 29.4189C119.215 30.9551 118.65 31.3994 117.438 31.3994ZM126.505 29.1206C124.588 29.1206 123.362 27.7305 123.362 25.5596V25.5469C123.362 23.4204 124.581 22.0366 126.498 22.0366C128.161 22.0366 129.158 22.9951 129.361 24.2139L129.367 24.252H128.269L128.263 24.2329C128.091 23.5601 127.482 23.0142 126.498 23.0142C125.267 23.0142 124.492 24.0044 124.492 25.5469V25.5596C124.492 27.1338 125.279 28.1431 126.498 28.1431C127.419 28.1431 128.003 27.7368 128.256 26.9751L128.269 26.937L129.361 26.9307L129.348 27.0005C129.069 28.2383 128.149 29.1206 126.505 29.1206ZM132.474 25.8833H132.125V29H131.02V22.1572H132.125V25.02H132.474L135.121 22.1572H136.447L133.369 25.3818L136.568 29H135.153L132.474 25.8833ZM141.588 29V22.1572H147.123V29H146.018V23.0713H142.692V29H141.588ZM150.82 26.3213C150.674 28.2065 150.09 29.0635 148.947 29.0635C148.712 29.0635 148.535 29.0254 148.446 28.9937V27.9971C148.503 28.0161 148.674 28.0415 148.839 28.0415C149.468 28.0415 149.722 27.248 149.791 26.2324L150.083 22.1572H154.559V29H153.454V23.0713H151.074L150.82 26.3213ZM158.535 29.1206C157.233 29.1206 156.25 28.3335 156.25 27.0894V27.0767C156.25 25.8579 157.151 25.1533 158.744 25.0581L160.706 24.9375V24.3154C160.706 23.4712 160.191 23.0142 159.169 23.0142C158.351 23.0142 157.811 23.3188 157.633 23.8521L157.627 23.8711H156.522L156.529 23.833C156.707 22.7603 157.748 22.0366 159.208 22.0366C160.877 22.0366 161.81 22.8936 161.81 24.3154V29H160.706V27.9907H160.604C160.172 28.7207 159.455 29.1206 158.535 29.1206ZM157.379 27.064C157.379 27.7559 157.97 28.1621 158.763 28.1621C159.887 28.1621 160.706 27.4258 160.706 26.4482V25.8262L158.877 25.9404C157.836 26.0039 157.379 26.3721 157.379 27.0513V27.064ZM168.827 22.1572V23.0713H166.611V29H165.507V23.0713H163.292V22.1572H168.827ZM172.885 29.1206C170.93 29.1206 169.75 27.7495 169.75 25.604V25.5977C169.75 23.4839 170.956 22.0366 172.816 22.0366C174.675 22.0366 175.805 23.4204 175.805 25.4644V25.896H170.88C170.911 27.3115 171.692 28.1367 172.911 28.1367C173.838 28.1367 174.409 27.6987 174.593 27.2861L174.618 27.229H175.723L175.71 27.2798C175.475 28.2065 174.498 29.1206 172.885 29.1206ZM172.809 23.0205C171.794 23.0205 171.019 23.7124 170.899 25.0137H174.682C174.568 23.6616 173.819 23.0205 172.809 23.0205ZM177.852 29H176.487L179.439 25.3945L176.589 22.1572H177.915L180.308 25.0391H180.715V22.1572H181.781V25.0391H182.187L184.58 22.1572H185.888L183.057 25.3691L186.028 29H184.644L182.187 25.8643H181.781V29H180.715V25.8643H180.308L177.852 29ZM189.064 29.1206C187.763 29.1206 186.779 28.3335 186.779 27.0894V27.0767C186.779 25.8579 187.681 25.1533 189.274 25.0581L191.235 24.9375V24.3154C191.235 23.4712 190.721 23.0142 189.699 23.0142C188.88 23.0142 188.341 23.3188 188.163 23.8521L188.157 23.8711H187.052L187.058 23.833C187.236 22.7603 188.277 22.0366 189.737 22.0366C191.407 22.0366 192.34 22.8936 192.34 24.3154V29H191.235V27.9907H191.134C190.702 28.7207 189.985 29.1206 189.064 29.1206ZM187.909 27.064C187.909 27.7559 188.499 28.1621 189.293 28.1621C190.416 28.1621 191.235 27.4258 191.235 26.4482V25.8262L189.407 25.9404C188.366 26.0039 187.909 26.3721 187.909 27.0513V27.064Z" fill="#D45C69"/>
<path d="M25.7861 54.2637C22.7905 54.2637 20.9302 52.1396 20.9302 48.7266V48.7119C20.9302 45.2842 22.7832 43.1675 25.7788 43.1675C28.1812 43.1675 30.0049 44.6909 30.2539 46.8516V46.9102H28.4009L28.3936 46.8809C28.1226 45.6284 27.1118 44.8008 25.7788 44.8008C23.9844 44.8008 22.8638 46.3022 22.8638 48.7046V48.7192C22.8638 51.1289 23.9844 52.6304 25.7861 52.6304C27.1265 52.6304 28.1226 51.8833 28.3936 50.7188L28.4009 50.6821H30.2539V50.7334C29.9756 52.8501 28.2251 54.2637 25.7861 54.2637ZM32.072 54V45.9946H39.0227V54H37.199V47.4082H33.8957V54H32.072ZM41.1484 54V45.9946H42.9502V51.356H43.0967L46.4731 45.9946H48.2749V54H46.4731V48.6094H46.3193L42.9502 54H41.1484ZM53.843 54.1611C51.4333 54.1611 50.0124 52.6011 50.0124 49.9863V49.9717C50.0124 47.3862 51.426 45.8408 53.8357 45.8408C55.8938 45.8408 57.1242 46.9834 57.3293 48.6387V48.668H55.6081L55.6008 48.646C55.4323 47.8696 54.8391 47.313 53.843 47.313C52.5979 47.313 51.8654 48.2944 51.8654 49.9717V49.9863C51.8654 51.6855 52.6052 52.6816 53.843 52.6816C54.7878 52.6816 55.3664 52.2495 55.5935 51.4072L55.6081 51.3779L57.3293 51.3706L57.3147 51.4292C57.051 53.0698 55.8718 54.1611 53.843 54.1611ZM61.1543 54.1318C59.6308 54.1318 58.5249 53.1943 58.5249 51.7368V51.7222C58.5249 50.2939 59.6162 49.459 61.5644 49.3418L63.6225 49.2173V48.5288C63.6225 47.7305 63.1025 47.291 62.1211 47.291C61.2861 47.291 60.7441 47.5913 60.561 48.1187L60.5537 48.1479H58.8325L58.8398 48.082C59.0156 46.7344 60.3046 45.8408 62.2089 45.8408C64.2671 45.8408 65.4243 46.8369 65.4243 48.5288V54H63.6225V52.9014H63.498C63.0586 53.6777 62.2089 54.1318 61.1543 54.1318ZM60.3266 51.6489C60.3266 52.3301 60.9052 52.7329 61.7109 52.7329C62.8095 52.7329 63.6225 52.0151 63.6225 51.063V50.4185L61.8208 50.5356C60.8027 50.6016 60.3266 50.9751 60.3266 51.6343V51.6489ZM72.7136 54V50.5796H69.3371V54H67.5134V45.9946H69.3371V49.166H72.7136V45.9946H74.5373V54H72.7136ZM80.1274 54.1611C77.725 54.1611 76.2748 52.5938 76.2748 50.001V49.9863C76.2748 47.4155 77.747 45.8408 80.1274 45.8408C82.5151 45.8408 83.9799 47.4082 83.9799 49.9863V50.001C83.9799 52.5938 82.5224 54.1611 80.1274 54.1611ZM80.1274 52.6816C81.3945 52.6816 82.1122 51.6929 82.1122 50.0083V49.9937C82.1122 48.3091 81.3871 47.313 80.1274 47.313C78.8603 47.313 78.1352 48.3091 78.1352 49.9937V50.0083C78.1352 51.6929 78.8603 52.6816 80.1274 52.6816ZM93.2192 54.2124C90.9047 54.2124 89.3886 52.9526 89.2494 51.1436L89.2421 51.0557H91.0439L91.0512 51.1362C91.1537 52.0298 91.9814 52.667 93.2192 52.667C94.4423 52.667 95.2553 51.9858 95.2553 51.0044V50.9897C95.2553 49.8765 94.435 49.2612 93.08 49.2612H91.8349V47.855H93.0434C94.2079 47.855 94.9843 47.1958 94.9843 46.2729V46.2583C94.9843 45.2915 94.3324 44.7202 93.2045 44.7202C92.0912 44.7202 91.3222 45.3135 91.227 46.2583L91.2197 46.3315H89.4618L89.4692 46.251C89.6303 44.4199 91.0732 43.2188 93.2045 43.2188C95.3798 43.2188 96.7934 44.354 96.7934 46.0093V46.0239C96.7934 47.335 95.8486 48.2065 94.5815 48.4702V48.5068C96.1342 48.6533 97.1669 49.5762 97.1669 51.041V51.0557C97.1669 52.916 95.5629 54.2124 93.2192 54.2124ZM102.786 54.2637C100.626 54.2637 99.1681 52.9453 99.029 51.2095L99.0216 51.1143H100.765L100.772 51.1655C100.911 52.0298 101.71 52.7183 102.794 52.7183C104.031 52.7183 104.881 51.8467 104.881 50.6016V50.5869C104.881 49.3564 104.017 48.4922 102.808 48.4922C102.215 48.4922 101.702 48.668 101.314 49.0195C101.124 49.1807 100.948 49.3857 100.823 49.6201H99.2047L99.7174 43.4312H106.06V44.9839H101.19L100.897 48.1992H101.021C101.461 47.4888 102.281 47.064 103.277 47.064C105.247 47.064 106.675 48.5288 106.675 50.5503V50.5649C106.675 52.7622 105.071 54.2637 102.786 54.2637ZM112.317 54.2637C109.805 54.2637 108.296 52.1323 108.296 48.7192V48.7046C108.296 45.2915 109.805 43.1675 112.317 43.1675C114.829 43.1675 116.352 45.2915 116.352 48.7046V48.7192C116.352 52.1323 114.829 54.2637 112.317 54.2637ZM112.317 52.7329C113.664 52.7329 114.448 51.2241 114.448 48.7192V48.7046C114.448 46.1997 113.664 44.7056 112.317 44.7056C110.969 44.7056 110.2 46.1997 110.2 48.7046V48.7192C110.2 51.2241 110.969 52.7329 112.317 52.7329ZM122.052 54.2637C119.54 54.2637 118.031 52.1323 118.031 48.7192V48.7046C118.031 45.2915 119.54 43.1675 122.052 43.1675C124.565 43.1675 126.088 45.2915 126.088 48.7046V48.7192C126.088 52.1323 124.565 54.2637 122.052 54.2637ZM122.052 52.7329C123.4 52.7329 124.184 51.2241 124.184 48.7192V48.7046C124.184 46.1997 123.4 44.7056 122.052 44.7056C120.705 44.7056 119.936 46.1997 119.936 48.7046V48.7192C119.936 51.2241 120.705 52.7329 122.052 52.7329ZM131.182 52.3813V51.5244H132.603V50.1621H131.182V49.3052H132.603V43.6509H136.397C138.44 43.6509 139.773 45.0132 139.773 46.9028V46.9175C139.773 48.8145 138.389 50.1621 136.323 50.1621H134.448V51.5244H137.305V52.3813H134.448V53.7803H132.603V52.3813H131.182ZM134.448 48.6899H135.862C137.21 48.6899 137.898 48.0308 137.898 46.9321V46.9175C137.898 45.8335 137.217 45.167 135.869 45.167H134.448V48.6899ZM141.467 54.1465C140.8 54.1465 140.302 53.6411 140.302 52.9893C140.302 52.3374 140.8 51.832 141.467 51.832C142.14 51.832 142.631 52.3374 142.631 52.9893C142.631 53.6411 142.14 54.1465 141.467 54.1465ZM157.671 54H155.782V45.0205H150.721V54H148.831V43.4312H157.671V54ZM163.459 54.1611C161.057 54.1611 159.607 52.5938 159.607 50.001V49.9863C159.607 47.4155 161.079 45.8408 163.459 45.8408C165.847 45.8408 167.312 47.4082 167.312 49.9863V50.001C167.312 52.5938 165.854 54.1611 163.459 54.1611ZM163.459 52.6816C164.726 52.6816 165.444 51.6929 165.444 50.0083V49.9937C165.444 48.3091 164.719 47.313 163.459 47.313C162.192 47.313 161.467 48.3091 161.467 49.9937V50.0083C161.467 51.6929 162.192 52.6816 163.459 52.6816ZM174.44 47.4082H170.866V54H169.042V45.9946H174.44V47.4082ZM178.023 54.1318C176.5 54.1318 175.394 53.1943 175.394 51.7368V51.7222C175.394 50.2939 176.485 49.459 178.433 49.3418L180.491 49.2173V48.5288C180.491 47.7305 179.971 47.291 178.99 47.291C178.155 47.291 177.613 47.5913 177.43 48.1187L177.422 48.1479H175.701L175.709 48.082C175.884 46.7344 177.173 45.8408 179.078 45.8408C181.136 45.8408 182.293 46.8369 182.293 48.5288V54H180.491V52.9014H180.367C179.927 53.6777 179.078 54.1318 178.023 54.1318ZM177.195 51.6489C177.195 52.3301 177.774 52.7329 178.58 52.7329C179.678 52.7329 180.491 52.0151 180.491 51.063V50.4185L178.69 50.5356C177.671 50.6016 177.195 50.9751 177.195 51.6343V51.6489ZM187.825 54.1611C185.415 54.1611 183.994 52.6011 183.994 49.9863V49.9717C183.994 47.3862 185.408 45.8408 187.817 45.8408C189.875 45.8408 191.106 46.9834 191.311 48.6387V48.668H189.59L189.582 48.646C189.414 47.8696 188.821 47.313 187.825 47.313C186.579 47.313 185.847 48.2944 185.847 49.9717V49.9863C185.847 51.6855 186.587 52.6816 187.825 52.6816C188.769 52.6816 189.348 52.2495 189.575 51.4072L189.59 51.3779L191.311 51.3706L191.296 51.4292C191.033 53.0698 189.853 54.1611 187.825 54.1611ZM192.946 54V45.9946H194.748V51.356H194.894L198.271 45.9946H200.072V54H198.271V48.6094H198.117L194.748 54H192.946ZM208.314 45.9946V47.4082H205.845V54H204.022V47.4082H201.561V45.9946H208.314ZM212.981 54.1611C210.601 54.1611 209.158 52.5645 209.158 50.0156V50.0083C209.158 47.4888 210.615 45.8408 212.893 45.8408C215.171 45.8408 216.577 47.4375 216.577 49.8545V50.4551H210.981C211.003 51.8906 211.78 52.7256 213.018 52.7256C214.006 52.7256 214.57 52.2275 214.746 51.8613L214.768 51.8101H216.504L216.482 51.876C216.226 52.9087 215.156 54.1611 212.981 54.1611ZM212.915 47.269C211.897 47.269 211.135 47.9575 210.996 49.2319H214.797C214.673 47.9209 213.933 47.269 212.915 47.269ZM21.1792 72V63.9946H28.1299V72H26.3062V65.4082H23.0029V72H21.1792ZM30.2629 74.6587V63.9946H32.0867V65.2471H32.2112C32.6506 64.3755 33.5222 63.8628 34.6428 63.8628C36.6496 63.8628 37.9314 65.4595 37.9314 67.9937V68.0083C37.9314 70.5571 36.6716 72.1318 34.6428 72.1318C33.5442 72.1318 32.6287 71.5898 32.2112 70.7256H32.0867V74.6587H30.2629ZM34.0715 70.5938C35.3166 70.5938 36.071 69.6123 36.071 68.0083V67.9937C36.071 66.3823 35.3166 65.4009 34.0715 65.4009C32.8337 65.4009 32.0647 66.3823 32.0647 67.9863V68.001C32.0647 69.605 32.8337 70.5938 34.0715 70.5938ZM43.1333 72.1611C40.7309 72.1611 39.2807 70.5938 39.2807 68.001V67.9863C39.2807 65.4155 40.7529 63.8408 43.1333 63.8408C45.521 63.8408 46.9858 65.4082 46.9858 67.9863V68.001C46.9858 70.5938 45.5283 72.1611 43.1333 72.1611ZM43.1333 70.6816C44.4004 70.6816 45.1181 69.6929 45.1181 68.0083V67.9937C45.1181 66.3091 44.393 65.313 43.1333 65.313C41.8662 65.313 41.1411 66.3091 41.1411 67.9937V68.0083C41.1411 69.6929 41.8662 70.6816 43.1333 70.6816ZM52.1584 72.1611C49.7488 72.1611 48.3279 70.6011 48.3279 67.9863V67.9717C48.3279 65.3862 49.7414 63.8408 52.1511 63.8408C54.2092 63.8408 55.4397 64.9834 55.6447 66.6387V66.668H53.9236L53.9162 66.646C53.7478 65.8696 53.1545 65.313 52.1584 65.313C50.9133 65.313 50.1809 66.2944 50.1809 67.9717V67.9863C50.1809 69.6855 50.9206 70.6816 52.1584 70.6816C53.1032 70.6816 53.6819 70.2495 53.9089 69.4072L53.9236 69.3779L55.6447 69.3706L55.6301 69.4292C55.3664 71.0698 54.1872 72.1611 52.1584 72.1611ZM57.2871 74.6587V63.9946H59.1108V65.2471H59.2353C59.6748 64.3755 60.5463 63.8628 61.667 63.8628C63.6738 63.8628 64.9555 65.4595 64.9555 67.9937V68.0083C64.9555 70.5571 63.6958 72.1318 61.667 72.1318C60.5683 72.1318 59.6528 71.5898 59.2353 70.7256H59.1108V74.6587H57.2871ZM61.0957 70.5938C62.3408 70.5938 63.0952 69.6123 63.0952 68.0083V67.9937C63.0952 66.3823 62.3408 65.4009 61.0957 65.4009C59.8579 65.4009 59.0888 66.3823 59.0888 67.9863V68.001C59.0888 69.605 59.8579 70.5938 61.0957 70.5938ZM70.1574 72.1611C67.7551 72.1611 66.3049 70.5938 66.3049 68.001V67.9863C66.3049 65.4155 67.7771 63.8408 70.1574 63.8408C72.5451 63.8408 74.01 65.4082 74.01 67.9863V68.001C74.01 70.5938 72.5524 72.1611 70.1574 72.1611ZM70.1574 70.6816C71.4245 70.6816 72.1423 69.6929 72.1423 68.0083V67.9937C72.1423 66.3091 71.4172 65.313 70.1574 65.313C68.8903 65.313 68.1652 66.3091 68.1652 67.9937V68.0083C68.1652 69.6929 68.8903 70.6816 70.1574 70.6816ZM82.2807 72H80.457V68.7993H80.3251C79.9003 69.1216 79.2778 69.3193 78.4575 69.3193C76.5532 69.3193 75.4765 68.1694 75.4765 66.3896V63.9946H77.3002V66.2358C77.3002 67.2246 77.8056 67.7812 78.8017 67.7812C79.6 67.7812 80.164 67.5688 80.457 67.2686V63.9946H82.2807V72ZM87.8415 72.1611C85.4611 72.1611 84.0182 70.5645 84.0182 68.0156V68.0083C84.0182 65.4888 85.4758 63.8408 87.7536 63.8408C90.0314 63.8408 91.4377 65.4375 91.4377 67.8545V68.4551H85.842C85.8639 69.8906 86.6403 70.7256 87.8781 70.7256C88.8669 70.7256 89.4308 70.2275 89.6066 69.8613L89.6286 69.8101H91.3644L91.3425 69.876C91.0861 70.9087 90.0168 72.1611 87.8415 72.1611ZM87.7756 65.269C86.7575 65.269 85.9958 65.9575 85.8566 67.2319H89.6579C89.5334 65.9209 88.7936 65.269 87.7756 65.269ZM98.3608 72V68.5796H94.9843V72H93.1606V63.9946H94.9843V67.166H98.3608V63.9946H100.184V72H98.3608ZM107.51 72V68.5796H104.134V72H102.31V63.9946H104.134V67.166H107.51V63.9946H109.334V72H107.51ZM112.324 74.8125C112.104 74.8125 111.848 74.8052 111.628 74.7832V73.3843C111.775 73.3989 111.98 73.4062 112.17 73.4062C112.917 73.4062 113.364 73.0986 113.562 72.3735L113.657 72.0073L110.793 63.9946H112.786L114.653 70.2495H114.792L116.653 63.9946H118.572L115.701 72.1685C115.012 74.1753 114.097 74.8125 112.324 74.8125ZM120.038 72V63.9946H121.862V67.166H123.129C123.422 65.0713 124.806 63.8335 126.879 63.8335C129.223 63.8335 130.68 65.3936 130.68 67.9863V68.001C130.68 70.6157 129.23 72.1685 126.879 72.1685C124.711 72.1685 123.312 70.8428 123.107 68.5942H121.862V72H120.038ZM126.872 70.689C128.102 70.689 128.813 69.7002 128.813 68.0083V67.9937C128.813 66.3018 128.102 65.313 126.872 65.313C125.641 65.313 124.931 66.3018 124.931 67.9937V68.0083C124.931 69.7002 125.634 70.689 126.872 70.689ZM139.202 72.1685C137.385 72.1685 135.942 71.3481 135.767 69.7954L135.759 69.7295H137.532L137.547 69.7808C137.715 70.396 138.323 70.7549 139.18 70.7549C140.176 70.7549 140.762 70.2935 140.762 69.6343V69.6196C140.762 68.9092 140.205 68.5503 139.172 68.5503H138.023V67.3198H139.165C140.095 67.3198 140.535 66.939 140.535 66.2798V66.2651C140.535 65.6865 140.088 65.2471 139.187 65.2471C138.367 65.2471 137.817 65.6206 137.708 66.1992L137.7 66.2358H135.972L135.979 66.1772C136.162 64.7783 137.283 63.8335 139.246 63.8335C141.143 63.8335 142.315 64.6904 142.315 66.0454V66.0601C142.315 66.9023 141.78 67.5542 140.916 67.752V67.8765C142.029 68.0962 142.571 68.7407 142.571 69.6343V69.6489C142.571 71.1357 141.26 72.1685 139.202 72.1685ZM146.498 72.1318C144.975 72.1318 143.869 71.1943 143.869 69.7368V69.7222C143.869 68.2939 144.96 67.459 146.909 67.3418L148.967 67.2173V66.5288C148.967 65.7305 148.447 65.291 147.465 65.291C146.63 65.291 146.088 65.5913 145.905 66.1187L145.898 66.1479H144.177L144.184 66.082C144.36 64.7344 145.649 63.8408 147.553 63.8408C149.611 63.8408 150.768 64.8369 150.768 66.5288V72H148.967V70.9014H148.842C148.403 71.6777 147.553 72.1318 146.498 72.1318ZM145.671 69.6489C145.671 70.3301 146.249 70.7329 147.055 70.7329C148.154 70.7329 148.967 70.0151 148.967 69.063V68.4185L147.165 68.5356C146.147 68.6016 145.671 68.9751 145.671 69.6343V69.6489ZM153.612 74.0874H151.942V70.5718H152.572C153.165 70.2202 153.414 69.2754 153.487 68.1987L153.766 63.9946H159.794V70.5718H161.024V74.0874H159.354V72H153.612V74.0874ZM157.962 70.5718V65.4229H155.326L155.121 68.2939C155.055 69.1729 154.872 69.9419 154.52 70.4473V70.5718H157.962ZM165.794 72.1611C163.391 72.1611 161.941 70.5938 161.941 68.001V67.9863C161.941 65.4155 163.413 63.8408 165.794 63.8408C168.181 63.8408 169.646 65.4082 169.646 67.9863V68.001C169.646 70.5938 168.189 72.1611 165.794 72.1611ZM165.794 70.6816C167.061 70.6816 167.779 69.6929 167.779 68.0083V67.9937C167.779 66.3091 167.054 65.313 165.794 65.313C164.527 65.313 163.802 66.3091 163.802 67.9937V68.0083C163.802 69.6929 164.527 70.6816 165.794 70.6816ZM173.647 68.5356C173.493 70.8428 172.783 72.0732 171.157 72.0732C170.827 72.0732 170.586 72.022 170.468 71.9854V70.418C170.549 70.4399 170.747 70.4692 170.952 70.4692C171.684 70.4692 171.941 69.5391 172.014 68.3892L172.292 63.9946H178.034V72H176.211V65.4082H173.874L173.647 68.5356ZM181.486 72H179.34L182.46 67.7153L179.486 63.9946H181.552L183.925 67.2393H184.371V63.9946H186.144V67.2393H186.591L188.971 63.9946H191.022L188.063 67.6934L191.19 72H189.037L186.613 68.5137H186.144V72H184.371V68.5137H183.91L181.486 72ZM195.645 72.1611C193.265 72.1611 191.822 70.5645 191.822 68.0156V68.0083C191.822 65.4888 193.279 63.8408 195.557 63.8408C197.835 63.8408 199.241 65.4375 199.241 67.8545V68.4551H193.646C193.668 69.8906 194.444 70.7256 195.682 70.7256C196.67 70.7256 197.234 70.2275 197.41 69.8613L197.432 69.8101H199.168L199.146 69.876C198.89 70.9087 197.82 72.1611 195.645 72.1611ZM195.579 65.269C194.561 65.269 193.799 65.9575 193.66 67.2319H197.461C197.337 65.9209 196.597 65.269 195.579 65.269ZM206.164 72V68.5796H202.788V72H200.964V63.9946H202.788V67.166H206.164V63.9946H207.988V72H206.164ZM215.314 72V68.5796H211.938V72H210.114V63.9946H211.938V67.166H215.314V63.9946H217.138V72H215.314ZM222.728 72.1611C220.325 72.1611 218.875 70.5938 218.875 68.001V67.9863C218.875 65.4155 220.347 63.8408 222.728 63.8408C225.116 63.8408 226.58 65.4082 226.58 67.9863V68.001C226.58 70.5938 225.123 72.1611 222.728 72.1611ZM222.728 70.6816C223.995 70.6816 224.713 69.6929 224.713 68.0083V67.9937C224.713 66.3091 223.988 65.313 222.728 65.313C221.461 65.313 220.736 66.3091 220.736 67.9937V68.0083C220.736 69.6929 221.461 70.6816 222.728 70.6816ZM231.753 72.1611C229.343 72.1611 227.922 70.6011 227.922 67.9863V67.9717C227.922 65.3862 229.336 63.8408 231.746 63.8408C233.804 63.8408 235.034 64.9834 235.239 66.6387V66.668H233.518L233.511 66.646C233.342 65.8696 232.749 65.313 231.753 65.313C230.508 65.313 229.775 66.2944 229.775 67.9717V67.9863C229.775 69.6855 230.515 70.6816 231.753 70.6816C232.698 70.6816 233.276 70.2495 233.503 69.4072L233.518 69.3779L235.239 69.3706L235.225 69.4292C234.961 71.0698 233.782 72.1611 231.753 72.1611ZM242.668 63.9946V65.4082H240.199V72H238.376V65.4082H235.915V63.9946H242.668ZM244.149 72V63.9946H245.973V66.4116H247.555C249.422 66.4116 250.616 67.5029 250.616 69.2021V69.2168C250.616 70.916 249.422 72 247.555 72H244.149ZM247.32 67.8179H245.973V70.5938H247.32C248.214 70.5938 248.778 70.0298 248.778 69.2095V69.1948C248.778 68.3672 248.207 67.8179 247.32 67.8179ZM251.922 74.7905L252.559 70.3887H254.441L253.167 74.7905H251.922ZM267.328 72H265.504V68.7993H265.372C264.947 69.1216 264.325 69.3193 263.505 69.3193C261.6 69.3193 260.524 68.1694 260.524 66.3896V63.9946H262.347V66.2358C262.347 67.2246 262.853 67.7812 263.849 67.7812C264.647 67.7812 265.211 67.5688 265.504 67.2686V63.9946H267.328V72ZM275.569 63.9946V65.4082H273.101V72H271.277V65.4082H268.816V63.9946H275.569Z" fill="url(#paint0_linear_2375_234214)"/>
</g>
<circle cx="271" cy="54" r="176" fill="url(#paint1_radial_2375_234214)" fill-opacity="0.08"/>
<rect x="295" y="16" width="40" height="40" rx="20" fill="#F52222" fill-opacity="0.14"/>
<mask id="mask0_2375_234214" style="mask-type:alpha" maskUnits="userSpaceOnUse" x="305" y="27" width="20" height="18">
<path opacity="0.4" d="M305 31V34C305 31.7909 306.791 30 309 30L323 30V27H309C306.791 27 305 28.7909 305 31Z" fill="black"/>
<path fill-rule="evenodd" clip-rule="evenodd" d="M305 34C305 31.7909 306.791 30 309 30H325V41.25C325 43.3211 323.372 45 321.364 45H305V34ZM320 36C319.172 36 318.5 36.6716 318.5 37.5C318.5 38.3284 319.172 39 320 39H320.5C321.328 39 322 38.3284 322 37.5C322 36.6716 321.328 36 320.5 36H320Z" fill="black"/>
</mask>
<g mask="url(#mask0_2375_234214)">
<path d="M303 24H327V48H303V24Z" fill="#F52222"/>
</g>
</g>
<defs>
<linearGradient id="paint0_linear_2375_234214" x1="240.318" y1="40" x2="279" y2="40" gradientUnits="userSpaceOnUse">
<stop stop-color="#333333"/>
<stop offset="1" stop-color="#333333" stop-opacity="0"/>
</linearGradient>
<radialGradient id="paint1_radial_2375_234214" cx="0" cy="0" r="1" gradientUnits="userSpaceOnUse" gradientTransform="translate(271 54) rotate(90) scale(176)">
<stop stop-color="#FF0000" stop-opacity="0.95"/>
<stop offset="1" stop-color="#FF0000" stop-opacity="0"/>
</radialGradient>
<clipPath id="clip0_2375_234214">
<rect width="351" height="92" rx="32" fill="white"/>
</clipPath>
<clipPath id="clip1_2375_234214">
<rect width="259" height="60" fill="white" transform="translate(20 16)"/>
</clipPath>
</defs>
</svg>
