<svg width="351" height="74" viewBox="0 0 351 74" fill="none" xmlns="http://www.w3.org/2000/svg">
<g clip-path="url(#clip0_2375_234224)">
<rect width="351" height="74" rx="32" fill="#001024" fill-opacity="0.03"/>
<rect width="351" height="74" fill="black" fill-opacity="0.01"/>
<g clip-path="url(#clip1_2375_234224)">
<path d="M24.9194 29.2158C22.4312 29.2158 20.876 27.375 20.876 24.4297V24.417C20.876 21.4653 22.4248 19.6245 24.9131 19.6245C26.8428 19.6245 28.3472 20.8369 28.6201 22.5952L28.6138 22.6079H27.4648L27.4585 22.5952C27.1538 21.4209 26.1763 20.6782 24.9131 20.6782C23.1548 20.6782 22.0503 22.1255 22.0503 24.417V24.4297C22.0503 26.7212 23.1548 28.1621 24.9194 28.1621C26.1953 28.1621 27.1665 27.5083 27.4521 26.4546L27.4648 26.4419H28.6201V26.4546C28.3154 28.1304 26.8682 29.2158 24.9194 29.2158ZM35.1417 22.1572V23.0713H32.9263V29H31.8219V23.0713H29.6065V22.1572H35.1417ZM38.4386 29.1206C37.1374 29.1206 36.1535 28.3335 36.1535 27.0894V27.0767C36.1535 25.8579 37.0548 25.1533 38.6481 25.0581L40.6095 24.9375V24.3154C40.6095 23.4712 40.0954 23.0142 39.0734 23.0142C38.2546 23.0142 37.715 23.3188 37.5373 23.8521L37.5309 23.8711H36.4264L36.4328 23.833C36.6105 22.7603 37.6515 22.0366 39.1115 22.0366C40.7809 22.0366 41.714 22.8936 41.714 24.3154V29H40.6095V27.9907H40.508C40.0763 28.7207 39.359 29.1206 38.4386 29.1206ZM37.2834 27.064C37.2834 27.7559 37.8737 28.1621 38.6671 28.1621C39.7907 28.1621 40.6095 27.4258 40.6095 26.4482V25.8262L38.7814 25.9404C37.7404 26.0039 37.2834 26.3721 37.2834 27.0513V27.064ZM48.7307 22.1572V23.0713H46.5154V29H45.4109V23.0713H43.1955V22.1572H48.7307ZM50.8343 31.3994C50.6883 31.3994 50.4979 31.3867 50.3455 31.3613V30.4536C50.4788 30.479 50.6502 30.4854 50.8026 30.4854C51.431 30.4854 51.8118 30.1997 52.0594 29.4126L52.1863 29.0063L49.6536 22.1572H50.8343L52.7132 27.7876H52.8148L54.6873 22.1572H55.8489L53.1766 29.4189C52.6116 30.9551 52.0467 31.3994 50.8343 31.3994ZM59.9013 29.1206C57.9843 29.1206 56.7592 27.7305 56.7592 25.5596V25.5469C56.7592 23.4204 57.9779 22.0366 59.8949 22.0366C61.558 22.0366 62.5546 22.9951 62.7577 24.2139L62.7641 24.252H61.6659L61.6596 24.2329C61.4882 23.5601 60.8788 23.0142 59.8949 23.0142C58.6635 23.0142 57.8891 24.0044 57.8891 25.5469V25.5596C57.8891 27.1338 58.6762 28.1431 59.8949 28.1431C60.8153 28.1431 61.3993 27.7368 61.6532 26.9751L61.6659 26.937L62.7577 26.9307L62.745 27.0005C62.4657 28.2383 61.5453 29.1206 59.9013 29.1206ZM70.8116 29.1206C68.8629 29.1206 67.6568 27.7749 67.6568 25.585V25.5723C67.6568 23.376 68.8629 22.0366 70.8116 22.0366C72.7603 22.0366 73.9664 23.376 73.9664 25.5723V25.585C73.9664 27.7749 72.7603 29.1206 70.8116 29.1206ZM70.8116 28.1431C72.1065 28.1431 72.8365 27.1973 72.8365 25.585V25.5723C72.8365 23.9536 72.1065 23.0142 70.8116 23.0142C69.5167 23.0142 68.7867 23.9536 68.7867 25.5723V25.585C68.7867 27.1973 69.5167 28.1431 70.8116 28.1431ZM75.7208 29V22.1572H78.6217C79.9166 22.1572 80.672 22.8618 80.672 23.9346V23.9473C80.672 24.6265 80.1959 25.2676 79.5548 25.4009V25.5024C80.4245 25.623 80.9767 26.2324 80.9767 27.0259V27.0386C80.9767 28.2256 80.1071 29 78.6344 29H75.7208ZM76.8253 25.0518H78.2853C79.174 25.0518 79.5739 24.709 79.5739 24.0615V24.0488C79.5739 23.4648 79.2311 23.0713 78.463 23.0713H76.8253V25.0518ZM76.8253 28.0859H78.59C79.4279 28.0859 79.8532 27.7051 79.8532 27.0195V27.0068C79.8532 26.2832 79.3644 25.9658 78.3805 25.9658H76.8253V28.0859ZM85.4987 29.1206C83.5437 29.1206 82.363 27.7495 82.363 25.604V25.5977C82.363 23.4839 83.5691 22.0366 85.4289 22.0366C87.2888 22.0366 88.4187 23.4204 88.4187 25.4644V25.896H83.4929C83.5246 27.3115 84.3054 28.1367 85.5241 28.1367C86.4509 28.1367 87.0222 27.6987 87.2063 27.2861L87.2317 27.229H88.3362L88.3235 27.2798C88.0886 28.2065 87.1111 29.1206 85.4987 29.1206ZM85.4226 23.0205C84.407 23.0205 83.6325 23.7124 83.5119 25.0137H87.2951C87.1809 23.6616 86.4319 23.0205 85.4226 23.0205ZM90.1795 31.2852V22.1572H91.284V23.249H91.3855C91.8045 22.4873 92.5662 22.0366 93.5184 22.0366C95.2513 22.0366 96.3875 23.4395 96.3875 25.5723V25.585C96.3875 27.7305 95.2576 29.1206 93.5184 29.1206C92.5789 29.1206 91.7601 28.6509 91.3855 27.9209H91.284V31.2852H90.1795ZM93.2645 28.1431C94.5149 28.1431 95.2576 27.1782 95.2576 25.585V25.5723C95.2576 23.979 94.5149 23.0142 93.2645 23.0142C92.0203 23.0142 91.2586 23.9917 91.2586 25.5723V25.585C91.2586 27.1655 92.0203 28.1431 93.2645 28.1431ZM98.2499 30.8091H97.2216V28.0859H97.7929C98.2943 27.7559 98.5419 26.8926 98.6054 25.9722L98.872 22.1572H103.537V28.0859H104.629V30.8091H103.601V29H98.2499V30.8091ZM102.433 28.0859V23.0713H99.8495L99.6337 25.9976C99.5702 26.8291 99.3925 27.5591 99.0687 27.9844V28.0859H102.433ZM105.99 31.2852V22.1572H107.095V23.249H107.196C107.615 22.4873 108.377 22.0366 109.329 22.0366C111.062 22.0366 112.198 23.4395 112.198 25.5723V25.585C112.198 27.7305 111.068 29.1206 109.329 29.1206C108.39 29.1206 107.571 28.6509 107.196 27.9209H107.095V31.2852H105.99ZM109.075 28.1431C110.326 28.1431 111.068 27.1782 111.068 25.585V25.5723C111.068 23.979 110.326 23.0142 109.075 23.0142C107.831 23.0142 107.069 23.9917 107.069 25.5723V25.585C107.069 27.1655 107.831 28.1431 109.075 28.1431ZM115.851 29.1206C114.549 29.1206 113.565 28.3335 113.565 27.0894V27.0767C113.565 25.8579 114.467 25.1533 116.06 25.0581L118.022 24.9375V24.3154C118.022 23.4712 117.507 23.0142 116.485 23.0142C115.667 23.0142 115.127 23.3188 114.949 23.8521L114.943 23.8711H113.838L113.845 23.833C114.022 22.7603 115.064 22.0366 116.523 22.0366C118.193 22.0366 119.126 22.8936 119.126 24.3154V29H118.022V27.9907H117.92C117.488 28.7207 116.771 29.1206 115.851 29.1206ZM114.695 27.064C114.695 27.7559 115.286 28.1621 116.079 28.1621C117.203 28.1621 118.022 27.4258 118.022 26.4482V25.8262L116.193 25.9404C115.152 26.0039 114.695 26.3721 114.695 27.0513V27.064ZM124.378 31.2852V29.0825C122.258 29.0444 120.849 27.686 120.849 25.585V25.5723C120.849 23.4648 122.258 22.1064 124.378 22.0747V19.8403H125.444V22.0747C127.558 22.1128 128.967 23.4648 128.967 25.5723V25.585C128.967 27.6924 127.558 29.0508 125.444 29.0825V31.2852H124.378ZM124.378 28.1367V23.0205C122.899 23.0522 121.96 24.0171 121.96 25.5723V25.585C121.96 27.1338 122.899 28.0986 124.378 28.1367ZM125.444 28.1367C126.917 28.105 127.857 27.1401 127.857 25.585V25.5723C127.857 24.0234 126.917 23.0586 125.444 23.0205V28.1367ZM135.241 22.1572V23.0713H133.026V29H131.922V23.0713H129.706V22.1572H135.241ZM138.538 29.1206C137.237 29.1206 136.253 28.3335 136.253 27.0894V27.0767C136.253 25.8579 137.155 25.1533 138.748 25.0581L140.709 24.9375V24.3154C140.709 23.4712 140.195 23.0142 139.173 23.0142C138.354 23.0142 137.815 23.3188 137.637 23.8521L137.631 23.8711H136.526L136.533 23.833C136.71 22.7603 137.751 22.0366 139.211 22.0366C140.881 22.0366 141.814 22.8936 141.814 24.3154V29H140.709V27.9907H140.608C140.176 28.7207 139.459 29.1206 138.538 29.1206ZM137.383 27.064C137.383 27.7559 137.973 28.1621 138.767 28.1621C139.89 28.1621 140.709 27.4258 140.709 26.4482V25.8262L138.881 25.9404C137.84 26.0039 137.383 26.3721 137.383 27.0513V27.064Z" fill="#9299A2"/>
<path d="M21.0327 54.0879C20.7324 54.0879 20.4761 54.0439 20.3369 54V52.3374C20.4321 52.3594 20.6299 52.3887 20.7983 52.3887C21.9116 52.3887 22.1753 51.2827 22.2559 49.7959L22.5928 43.4312H29.6387V54H27.7563V45.0205H24.292L24.0063 49.9058C23.8525 52.4839 23.1055 54.0879 21.0327 54.0879ZM31.9548 54V45.9946H33.7566V51.356H33.9031L37.2795 45.9946H39.0813V54H37.2795V48.6094H37.1257L33.7566 54H31.9548ZM42.9502 54H41.207V45.9946H43.5288L45.8945 51.5684H46.0263L48.3994 45.9946H50.6772V54H48.9341V48.5361H48.7949L46.5903 53.6411H45.2866L43.0893 48.5361H42.9502V54ZM52.8029 54V45.9946H54.6047V51.356H54.7512L58.1277 45.9946H59.9294V54H58.1277V48.6094H57.9738L54.6047 54H52.8029ZM68.1709 45.9946V47.4082H65.7026V54H63.8789V47.4082H61.4179V45.9946H68.1709ZM73.4111 54V45.9946H80.3618V54H78.538V47.4082H75.2348V54H73.4111ZM85.9518 54.1611C83.5495 54.1611 82.0993 52.5938 82.0993 50.001V49.9863C82.0993 47.4155 83.5715 45.8408 85.9518 45.8408C88.3395 45.8408 89.8044 47.4082 89.8044 49.9863V50.001C89.8044 52.5938 88.3469 54.1611 85.9518 54.1611ZM85.9518 52.6816C87.2189 52.6816 87.9367 51.6929 87.9367 50.0083V49.9937C87.9367 48.3091 87.2116 47.313 85.9518 47.313C84.6847 47.313 83.9596 48.3091 83.9596 49.9937V50.0083C83.9596 51.6929 84.6847 52.6816 85.9518 52.6816ZM98.758 54.1611C96.3556 54.1611 94.9054 52.5938 94.9054 50.001V49.9863C94.9054 47.4155 96.3776 45.8408 98.758 45.8408C101.146 45.8408 102.611 47.4082 102.611 49.9863V50.001C102.611 52.5938 101.153 54.1611 98.758 54.1611ZM98.758 52.6816C100.025 52.6816 100.743 51.6929 100.743 50.0083V49.9937C100.743 48.3091 100.018 47.313 98.758 47.313C97.4909 47.313 96.7658 48.3091 96.7658 49.9937V50.0083C96.7658 51.6929 97.4909 52.6816 98.758 52.6816ZM104.341 54V45.9946H108.127C109.739 45.9946 110.683 46.8076 110.683 48.0381V48.0527C110.683 48.8877 110.105 49.6274 109.292 49.7666V49.8911C110.347 50.0083 111.042 50.7407 111.042 51.7075V51.7222C111.042 53.0845 109.958 54 108.179 54H104.341ZM106.142 49.3198H107.549C108.45 49.3198 108.889 48.9536 108.889 48.2871V48.2725C108.889 47.6646 108.501 47.2544 107.695 47.2544H106.142V49.3198ZM106.142 52.7402H107.849C108.728 52.7402 109.175 52.3301 109.175 51.6416V51.627C109.175 50.9019 108.677 50.543 107.681 50.543H106.142V52.7402ZM116.164 54.1611C113.783 54.1611 112.34 52.5645 112.34 50.0156V50.0083C112.34 47.4888 113.798 45.8408 116.076 45.8408C118.354 45.8408 119.76 47.4375 119.76 49.8545V50.4551H114.164C114.186 51.8906 114.963 52.7256 116.2 52.7256C117.189 52.7256 117.753 52.2275 117.929 51.8613L117.951 51.8101H119.687L119.665 51.876C119.408 52.9087 118.339 54.1611 116.164 54.1611ZM116.098 47.269C115.08 47.269 114.318 47.9575 114.179 49.2319H117.98C117.856 47.9209 117.116 47.269 116.098 47.269ZM121.49 56.6587V45.9946H123.314V47.2471H123.438C123.878 46.3755 124.749 45.8628 125.87 45.8628C127.877 45.8628 129.159 47.4595 129.159 49.9937V50.0083C129.159 52.5571 127.899 54.1318 125.87 54.1318C124.771 54.1318 123.856 53.5898 123.438 52.7256H123.314V56.6587H121.49ZM125.299 52.5938C126.544 52.5938 127.298 51.6123 127.298 50.0083V49.9937C127.298 48.3823 126.544 47.4009 125.299 47.4009C124.061 47.4009 123.292 48.3823 123.292 49.9863V50.001C123.292 51.605 124.061 52.5938 125.299 52.5938ZM131.548 56.0874H129.878V52.5718H130.508C131.101 52.2202 131.35 51.2754 131.423 50.1987L131.702 45.9946H137.73V52.5718H138.96V56.0874H137.29V54H131.548V56.0874ZM135.899 52.5718V47.4229H133.262L133.057 50.2939C132.991 51.1729 132.808 51.9419 132.456 52.4473V52.5718H135.899ZM140.273 56.6587V45.9946H142.097V47.2471H142.221C142.661 46.3755 143.532 45.8628 144.653 45.8628C146.66 45.8628 147.941 47.4595 147.941 49.9937V50.0083C147.941 52.5571 146.682 54.1318 144.653 54.1318C143.554 54.1318 142.639 53.5898 142.221 52.7256H142.097V56.6587H140.273ZM144.081 52.5938C145.327 52.5938 146.081 51.6123 146.081 50.0083V49.9937C146.081 48.3823 145.327 47.4009 144.081 47.4009C142.844 47.4009 142.075 48.3823 142.075 49.9863V50.001C142.075 51.605 142.844 52.5938 144.081 52.5938ZM151.869 54.1318C150.345 54.1318 149.239 53.1943 149.239 51.7368V51.7222C149.239 50.2939 150.331 49.459 152.279 49.3418L154.337 49.2173V48.5288C154.337 47.7305 153.817 47.291 152.836 47.291C152.001 47.291 151.459 47.5913 151.275 48.1187L151.268 48.1479H149.547L149.554 48.082C149.73 46.7344 151.019 45.8408 152.923 45.8408C154.982 45.8408 156.139 46.8369 156.139 48.5288V54H154.337V52.9014H154.212C153.773 53.6777 152.923 54.1318 151.869 54.1318ZM151.041 51.6489C151.041 52.3301 151.62 52.7329 152.425 52.7329C153.524 52.7329 154.337 52.0151 154.337 51.063V50.4185L152.535 50.5356C151.517 50.6016 151.041 50.9751 151.041 51.6343V51.6489ZM162.08 56.6587V54.1099C159.51 54.0513 157.84 52.4985 157.84 50.001V49.9863C157.84 47.5107 159.517 45.936 162.08 45.8921V43.3726H163.86V45.8921C166.431 45.9434 168.101 47.4888 168.101 49.9937V50.0083C168.101 52.4839 166.416 54.0586 163.86 54.1099V56.6587H162.08ZM162.095 52.6816V47.313C160.623 47.3496 159.678 48.353 159.678 49.9937V50.0083C159.678 51.6489 160.616 52.6377 162.095 52.6816ZM163.846 52.6816C165.31 52.645 166.255 51.6416 166.255 50.0083V49.9937C166.255 48.3457 165.318 47.3569 163.846 47.313V52.6816ZM175.471 45.9946V47.4082H173.003V54H171.179V47.4082H168.718V45.9946H175.471ZM177.787 56.8125C177.567 56.8125 177.311 56.8052 177.091 56.7832V55.3843C177.238 55.3989 177.443 55.4062 177.633 55.4062C178.38 55.4062 178.827 55.0986 179.025 54.3735L179.12 54.0073L176.256 45.9946H178.248L180.116 52.2495H180.255L182.116 45.9946H184.034L181.163 54.1685C180.475 56.1753 179.559 56.8125 177.787 56.8125ZM194.46 54V50.5796H191.084V54H189.26V45.9946H191.084V49.166H194.46V45.9946H196.284V54H194.46ZM201.845 54.1611C199.464 54.1611 198.022 52.5645 198.022 50.0156V50.0083C198.022 47.4888 199.479 45.8408 201.757 45.8408C204.035 45.8408 205.441 47.4375 205.441 49.8545V50.4551H199.845C199.867 51.8906 200.644 52.7256 201.881 52.7256C202.87 52.7256 203.434 52.2275 203.61 51.8613L203.632 51.8101H205.368L205.346 51.876C205.089 52.9087 204.02 54.1611 201.845 54.1611ZM201.779 47.269C200.761 47.269 199.999 47.9575 199.86 49.2319H203.661C203.537 47.9209 202.797 47.269 201.779 47.269ZM207.86 56.0874H206.19V52.5718H206.82C207.413 52.2202 207.662 51.2754 207.735 50.1987L208.013 45.9946H214.041V52.5718H215.272V56.0874H213.602V54H207.86V56.0874ZM212.21 52.5718V47.4229H209.574L209.368 50.2939C209.303 51.1729 209.119 51.9419 208.768 52.4473V52.5718H212.21ZM220.042 54.1611C217.639 54.1611 216.189 52.5938 216.189 50.001V49.9863C216.189 47.4155 217.661 45.8408 220.042 45.8408C222.429 45.8408 223.894 47.4082 223.894 49.9863V50.001C223.894 52.5938 222.437 54.1611 220.042 54.1611ZM220.042 52.6816C221.309 52.6816 222.026 51.6929 222.026 50.0083V49.9937C222.026 48.3091 221.301 47.313 220.042 47.313C218.774 47.313 218.049 48.3091 218.049 49.9937V50.0083C218.049 51.6929 218.774 52.6816 220.042 52.6816ZM229.067 54.1611C226.657 54.1611 225.236 52.6011 225.236 49.9863V49.9717C225.236 47.3862 226.65 45.8408 229.059 45.8408C231.117 45.8408 232.348 46.9834 232.553 48.6387V48.668H230.832L230.824 48.646C230.656 47.8696 230.063 47.313 229.067 47.313C227.822 47.313 227.089 48.2944 227.089 49.9717V49.9863C227.089 51.6855 227.829 52.6816 229.067 52.6816C230.011 52.6816 230.59 52.2495 230.817 51.4072L230.832 51.3779L232.553 51.3706L232.538 51.4292C232.275 53.0698 231.095 54.1611 229.067 54.1611ZM239.981 45.9946V47.4082H237.513V54H235.689V47.4082H233.229V45.9946H239.981ZM242.298 56.8125C242.078 56.8125 241.822 56.8052 241.602 56.7832V55.3843C241.748 55.3989 241.953 55.4062 242.144 55.4062C242.891 55.4062 243.338 55.0986 243.535 54.3735L243.631 54.0073L240.767 45.9946H242.759L244.627 52.2495H244.766L246.626 45.9946H248.545L245.674 54.1685C244.986 56.1753 244.07 56.8125 242.298 56.8125ZM250.012 54V45.9946H256.962V54H255.139V47.4082H251.835V54H250.012ZM262.523 54.1611C260.143 54.1611 258.7 52.5645 258.7 50.0156V50.0083C258.7 47.4888 260.157 45.8408 262.435 45.8408C264.713 45.8408 266.119 47.4375 266.119 49.8545V50.4551H260.524C260.546 51.8906 261.322 52.7256 262.56 52.7256C263.549 52.7256 264.113 52.2275 264.288 51.8613L264.31 51.8101H266.046L266.024 51.876C265.768 52.9087 264.698 54.1611 262.523 54.1611ZM262.457 47.269C261.439 47.269 260.677 47.9575 260.538 49.2319H264.34C264.215 47.9209 263.475 47.269 262.457 47.269ZM273.042 54V50.5796H269.666V54H267.842V45.9946H269.666V49.166H273.042V45.9946H274.866V54H273.042Z" fill="#333333"/>
</g>
<rect x="295" y="16" width="40" height="40" rx="20" fill="#001024" fill-opacity="0.06"/>
<mask id="mask0_2375_234224" style="mask-type:alpha" maskUnits="userSpaceOnUse" x="303" y="24" width="24" height="24">
<path fill-rule="evenodd" clip-rule="evenodd" d="M315 24.5C308.649 24.5 303.5 29.6487 303.5 36C303.5 42.3513 308.649 47.5 315 47.5C321.351 47.5 326.5 42.3513 326.5 36C326.5 29.6487 321.351 24.5 315 24.5ZM312 34.9998V30L315.96 30.0002C316.977 30.0003 318.032 30.1537 318.781 30.8413C319.396 31.4046 320 32.271 320 33.5C320 34.7287 319.396 35.5951 318.782 36.1585C318.032 36.8465 316.977 37 315.959 37H314.5V38.041H318C318 39.1229 317.123 40 316.041 40H314.5V40.0625C314.5 41.1671 313.605 42.0625 312.5 42.0625H312V40L310.5 39.9588V39.5004C310.5 38.6784 311.178 38.0184 312 38.041V37L310.5 36.9588V36.4592C310.5 35.6372 311.178 34.9773 312 34.9998ZM316 31.9998L314.5 32V34.9998H316C316 34.9998 317.5 35.1058 317.5 33.5528C317.5 31.9998 316 31.9998 316 31.9998Z" fill="url(#paint0_linear_2375_234224)"/>
</mask>
<g mask="url(#mask0_2375_234224)">
<rect x="303" y="24" width="24" height="24" fill="#333333"/>
</g>
</g>
<defs>
<linearGradient id="paint0_linear_2375_234224" x1="306.8" y1="27.8" x2="322.2" y2="43.2" gradientUnits="userSpaceOnUse">
<stop/>
<stop offset="1" stop-opacity="0.7"/>
</linearGradient>
<clipPath id="clip0_2375_234224">
<rect width="351" height="74" rx="32" fill="white"/>
</clipPath>
<clipPath id="clip1_2375_234224">
<rect width="259" height="42" fill="white" transform="translate(20 16)"/>
</clipPath>
</defs>
</svg>
