<svg width="72" height="56" viewBox="0 0 72 56" fill="none" xmlns="http://www.w3.org/2000/svg">
<g clip-path="url(#clip0_2185_42098)">
<rect x="8" width="56" height="56" rx="28" fill="white" fill-opacity="0.1"/>
<mask id="mask0_2185_42098" style="mask-type:alpha" maskUnits="userSpaceOnUse" x="24" y="12" width="29" height="32">
<path fill-rule="evenodd" clip-rule="evenodd" d="M24.6667 12.416H38.8333V20.916H47.3333V30.8327L41.6667 25.166L30.3333 36.4993H36V43.5827H24.6667V12.416Z" fill="url(#paint0_linear_2185_42098)"/>
<path fill-rule="evenodd" clip-rule="evenodd" d="M53 36.4993L41.6666 25.166L30.3333 36.4993H36V43.5827H41.6666C44.7963 43.5827 47.3333 41.0456 47.3333 37.916V36.4993H53Z" fill="url(#paint1_linear_2185_42098)"/>
<path d="M38.8333 12.416V20.916H47.3333L38.8333 12.416Z" fill="black"/>
</mask>
<g mask="url(#mask0_2185_42098)">
<rect x="19" y="11" width="34" height="34" fill="url(#paint2_linear_2185_42098)"/>
</g>
</g>
<defs>
<linearGradient id="paint0_linear_2185_42098" x1="24.6667" y1="15.9577" x2="37.4167" y2="29.416" gradientUnits="userSpaceOnUse">
<stop stop-opacity="0.75"/>
<stop offset="1" stop-opacity="0.25"/>
</linearGradient>
<linearGradient id="paint1_linear_2185_42098" x1="44.5" y1="43.5827" x2="37.4166" y2="29.416" gradientUnits="userSpaceOnUse">
<stop stop-opacity="0.5"/>
<stop offset="1"/>
</linearGradient>
<linearGradient id="paint2_linear_2185_42098" x1="16.6808" y1="23.9203" x2="55.7559" y2="31.971" gradientUnits="userSpaceOnUse">
<stop stop-color="#B7B7C4"/>
<stop offset="0.53" stop-color="#F5F5F7"/>
<stop offset="1" stop-color="#BEBEC9"/>
</linearGradient>
<clipPath id="clip0_2185_42098">
<rect x="8" width="56" height="56" rx="28" fill="white"/>
</clipPath>
</defs>
</svg>
