<svg width="411" height="176" viewBox="0 0 411 176" fill="none" xmlns="http://www.w3.org/2000/svg">
<g filter="url(#filter0_d_2233_226987)">
<g clip-path="url(#clip0_2233_226987)">
<path d="M34 66.4C34 52.9587 34 46.2381 36.6158 41.1042C38.9168 36.5883 42.5883 32.9168 47.1042 30.6158C52.2381 28 58.9587 28 72.4 28H157.1C170.541 28 177.262 28 182.396 30.6158C186.912 32.9168 190.583 36.5883 192.884 41.1042C195.5 46.2381 195.5 52.9587 195.5 66.4V97.6C195.5 111.041 195.5 117.762 192.884 122.896C190.583 127.412 186.912 131.083 182.396 133.384C177.262 136 170.541 136 157.1 136H72.4C58.9587 136 52.2381 136 47.1042 133.384C42.5883 131.083 38.9168 127.412 36.6158 122.896C34 117.762 34 111.041 34 97.6V66.4Z" fill="white"/>
<g clip-path="url(#clip1_2233_226987)">
<g clip-path="url(#clip2_2233_226987)">
<path d="M59.9849 62.3071C57.2041 62.3071 55.0376 60.3398 55.0376 56.123V56.1064C55.0376 52.0972 56.9302 49.7148 59.9932 49.7148C62.3091 49.7148 64.0356 51.0845 64.4009 52.9604L64.4175 53.0435H61.9688L61.9355 52.9688C61.6533 52.2217 60.9727 51.7153 60.0015 51.7153C58.2666 51.7153 57.5112 53.417 57.4199 55.5918C57.4116 55.6831 57.4116 55.7744 57.4116 55.8657H57.5776C58.0093 54.936 59.0137 54.1143 60.6655 54.1143C62.998 54.1143 64.5752 55.7744 64.5752 58.0405V58.0571C64.5752 60.5059 62.6826 62.3071 59.9849 62.3071ZM57.7852 58.0903C57.7852 59.3521 58.748 60.3232 59.9683 60.3232C61.1802 60.3232 62.1514 59.3687 62.1514 58.1401V58.1235C62.1514 56.8701 61.2383 55.957 59.9849 55.957C58.748 55.957 57.7852 56.8452 57.7852 58.082V58.0903ZM70.8556 49.7065C73.6281 49.7065 75.8029 51.6821 75.8029 55.8906V55.9072C75.8029 59.9165 73.9103 62.2988 70.839 62.2988C68.5231 62.2988 66.8048 60.9292 66.4313 59.0532L66.4147 58.9785H68.8717L68.8966 59.0532C69.1872 59.8003 69.8678 60.3066 70.8307 60.3066C72.5656 60.3066 73.3293 58.605 73.4206 56.4219C73.4206 56.3389 73.4206 56.2476 73.4206 56.1562H73.2546C72.8229 57.0776 71.8268 57.9077 70.1667 57.9077C67.8341 57.9077 66.2653 56.2476 66.2653 53.9814V53.9648C66.2653 51.5161 68.1579 49.7065 70.8556 49.7065ZM70.8556 56.0566C72.0924 56.0566 73.047 55.1768 73.047 53.9399V53.9233C73.047 52.6699 72.0924 51.6987 70.8722 51.6987C69.6603 51.6987 68.6891 52.6533 68.6891 53.8735V53.8901C68.6891 55.1519 69.6022 56.0566 70.8556 56.0566ZM82.241 62.3071C79.286 62.3071 77.4847 59.8833 77.4847 56.0151V55.9985C77.4847 52.1221 79.286 49.7148 82.241 49.7148C85.2044 49.7148 86.9974 52.1221 86.9974 55.9985V56.0151C86.9974 59.8833 85.2044 62.3071 82.241 62.3071ZM82.241 60.3232C83.6605 60.3232 84.4656 58.7212 84.4656 56.0151V55.9985C84.4656 53.2842 83.6605 51.6987 82.241 51.6987C80.8299 51.6987 80.0247 53.2842 80.0247 55.9985V56.0151C80.0247 58.7212 80.8299 60.3232 82.241 60.3232ZM97.4415 62.3071C94.4865 62.3071 92.6852 59.8833 92.6852 56.0151V55.9985C92.6852 52.1221 94.4865 49.7148 97.4415 49.7148C100.405 49.7148 102.198 52.1221 102.198 55.9985V56.0151C102.198 59.8833 100.405 62.3071 97.4415 62.3071ZM97.4415 60.3232C98.861 60.3232 99.6662 58.7212 99.6662 56.0151V55.9985C99.6662 53.2842 98.861 51.6987 97.4415 51.6987C96.0304 51.6987 95.2252 53.2842 95.2252 55.9985V56.0151C95.2252 58.7212 96.0304 60.3232 97.4415 60.3232ZM108.669 62.3071C105.714 62.3071 103.913 59.8833 103.913 56.0151V55.9985C103.913 52.1221 105.714 49.7148 108.669 49.7148C111.633 49.7148 113.426 52.1221 113.426 55.9985V56.0151C113.426 59.8833 111.633 62.3071 108.669 62.3071ZM108.669 60.3232C110.089 60.3232 110.894 58.7212 110.894 56.0151V55.9985C110.894 53.2842 110.089 51.6987 108.669 51.6987C107.258 51.6987 106.453 53.2842 106.453 55.9985V56.0151C106.453 58.7212 107.258 60.3232 108.669 60.3232ZM119.897 62.3071C116.942 62.3071 115.141 59.8833 115.141 56.0151V55.9985C115.141 52.1221 116.942 49.7148 119.897 49.7148C122.86 49.7148 124.653 52.1221 124.653 55.9985V56.0151C124.653 59.8833 122.86 62.3071 119.897 62.3071ZM119.897 60.3232C121.316 60.3232 122.122 58.7212 122.122 56.0151V55.9985C122.122 53.2842 121.316 51.6987 119.897 51.6987C118.486 51.6987 117.681 53.2842 117.681 55.9985V56.0151C117.681 58.7212 118.486 60.3232 119.897 60.3232ZM135.097 62.3071C132.142 62.3071 130.341 59.8833 130.341 56.0151V55.9985C130.341 52.1221 132.142 49.7148 135.097 49.7148C138.061 49.7148 139.854 52.1221 139.854 55.9985V56.0151C139.854 59.8833 138.061 62.3071 135.097 62.3071ZM135.097 60.3232C136.517 60.3232 137.322 58.7212 137.322 56.0151V55.9985C137.322 53.2842 136.517 51.6987 135.097 51.6987C133.686 51.6987 132.881 53.2842 132.881 55.9985V56.0151C132.881 58.7212 133.686 60.3232 135.097 60.3232ZM144.648 62V52.3877H144.499L141.56 54.4297V52.1719L144.657 50.022H147.155V62H144.648ZM150.539 62L155.644 52.1553V52.0142H149.601V50.0137H158.167V52.0391L153.162 62H150.539ZM163.282 60.1904V59.2358H164.859V57.7168H163.282V56.7622H164.859V50.271H169.458C171.799 50.271 173.359 51.8149 173.359 53.9897V54.0063C173.359 56.1729 171.724 57.7168 169.333 57.7168H167.3V59.2358H170.413V60.1904H167.3V61.751H164.859V60.1904H163.282ZM167.3 55.8491H168.727C170.147 55.8491 170.894 55.1685 170.894 54.0312V54.0146C170.894 52.894 170.155 52.2051 168.736 52.2051H167.3V55.8491Z" fill="#333333"/>
</g>
<rect x="175.499" y="56" width="0.001" height="0.001" fill="#D9D9D9"/>
<path d="M55.4209 86V75.4312H59.4053C61.3901 75.4312 62.7964 76.8008 62.7964 78.8076V78.8223C62.7964 80.8291 61.3901 82.228 59.4053 82.228H56.7393V86H55.4209ZM59.0684 76.603H56.7393V81.0562H59.0684C60.5771 81.0562 61.4487 80.2285 61.4487 78.8369V78.8223C61.4487 77.4307 60.5771 76.603 59.0684 76.603ZM66.7971 86.1392C65.2956 86.1392 64.1604 85.231 64.1604 83.7954V83.7808C64.1604 82.3745 65.2004 81.5615 67.0388 81.4517L69.302 81.3125V80.5947C69.302 79.6206 68.7087 79.0933 67.5295 79.0933C66.5847 79.0933 65.9621 79.4448 65.7571 80.0601L65.7497 80.082H64.4753L64.4827 80.0381C64.6877 78.8003 65.8889 77.9653 67.5735 77.9653C69.4997 77.9653 70.5764 78.9541 70.5764 80.5947V86H69.302V84.8354H69.1848C68.6868 85.6777 67.8591 86.1392 66.7971 86.1392ZM65.4641 83.7661C65.4641 84.5645 66.1453 85.0332 67.0608 85.0332C68.3572 85.0332 69.302 84.1836 69.302 83.0557V82.3379L67.1926 82.4697C65.9914 82.543 65.4641 82.9678 65.4641 83.7515V83.7661ZM76.042 86.1392C73.8301 86.1392 72.4165 84.5352 72.4165 82.0303V82.0156C72.4165 79.562 73.8227 77.9653 76.0346 77.9653C77.9536 77.9653 79.1035 79.0713 79.3379 80.4775L79.3452 80.5215H78.0781L78.0708 80.4995C77.873 79.7231 77.1699 79.0933 76.0346 79.0933C74.6138 79.0933 73.7202 80.2358 73.7202 82.0156V82.0303C73.7202 83.8467 74.6284 85.0112 76.0346 85.0112C77.0967 85.0112 77.7705 84.5425 78.0635 83.6636L78.0781 83.6196L79.3379 83.6123L79.3232 83.6929C79.001 85.1211 77.9389 86.1392 76.042 86.1392ZM80.3357 86L83.0383 82.0522L80.3064 78.1045H81.8078L83.6828 81.0415H83.8L85.653 78.1045H87.0813L84.4006 82.001L87.1179 86H85.6238L83.7561 83.019H83.6389L81.7639 86H80.3357ZM91.6899 86.1392C89.4414 86.1392 88.0498 84.5864 88.0498 82.0596V82.0449C88.0498 79.5107 89.4414 77.9653 91.6899 77.9653C93.9384 77.9653 95.33 79.5107 95.33 82.0449V82.0596C95.33 84.5864 93.9384 86.1392 91.6899 86.1392ZM91.6899 85.0112C93.184 85.0112 94.0263 83.9199 94.0263 82.0596V82.0449C94.0263 80.1772 93.184 79.0933 91.6899 79.0933C90.1958 79.0933 89.3535 80.1772 89.3535 82.0449V82.0596C89.3535 83.9199 90.1958 85.0112 91.6899 85.0112ZM97.3166 88.0874H96.1301V84.9453H96.7893C97.3679 84.5645 97.6535 83.5684 97.7268 82.5063L98.0344 78.1045H103.418V84.9453H104.677V88.0874H103.491V86H97.3166V88.0874ZM102.143 84.9453V79.1592H99.1623L98.9133 82.5356C98.84 83.4951 98.635 84.3374 98.2614 84.8281V84.9453H102.143ZM106.093 86V78.1045H107.367V80.6387H108.913C110.722 80.6387 111.879 81.6787 111.879 83.312V83.3267C111.879 84.96 110.722 86 108.913 86H106.093ZM113.256 86V78.1045H114.53V86H113.256ZM108.913 81.6934H107.367V84.9453H108.913C109.953 84.9453 110.604 84.3008 110.604 83.3267V83.312C110.604 82.3306 109.945 81.6934 108.913 81.6934Z" fill="#333333"/>
</g>
<g clip-path="url(#clip3_2233_226987)">
<g clip-path="url(#clip4_2233_226987)">
<rect width="15.1875" height="12" transform="translate(54 104)" fill="#001024" fill-opacity="0.06"/>
<rect width="1000" height="12" transform="translate(54 104)" fill="#65ABDE"/>
</g>
<g clip-path="url(#clip5_2233_226987)">
<rect width="15.1875" height="12" transform="translate(69.1875 104)" fill="#001024" fill-opacity="0.06"/>
<rect width="20.002" height="12" transform="translate(69.1875 104)" fill="#65ABDE"/>
</g>
<g clip-path="url(#clip6_2233_226987)">
<rect width="15.1875" height="12" transform="translate(84.375 104)" fill="#4FC5DF"/>
<rect width="0.002" height="12" transform="translate(84.375 104)" fill="#428BF9"/>
</g>
<g clip-path="url(#clip7_2233_226987)">
<rect width="15.1875" height="12" transform="translate(99.5625 104)" fill="#FD9474"/>
<rect width="0.002" height="12" transform="translate(99.5625 104)" fill="#428BF9"/>
</g>
<g clip-path="url(#clip8_2233_226987)">
<rect width="15.1875" height="12" transform="translate(114.75 104)" fill="#FDC62A"/>
<rect width="0.002" height="12" transform="translate(114.75 104)" fill="#428BF9"/>
</g>
<g clip-path="url(#clip9_2233_226987)">
<rect width="15.1875" height="12" transform="translate(129.938 104)" fill="#FF9798"/>
<rect width="0.002" height="12" transform="translate(129.938 104)" fill="#428BF9"/>
</g>
<g clip-path="url(#clip10_2233_226987)">
<rect width="15.1875" height="12" transform="translate(145.125 104)" fill="#B3CDDA"/>
<rect width="0.002" height="12" transform="translate(145.125 104)" fill="#428BF9"/>
</g>
<g clip-path="url(#clip11_2233_226987)">
<rect width="15.1875" height="12" transform="translate(160.312 104)" fill="#B3CDDA"/>
<rect width="0.002" height="12" transform="translate(160.312 104)" fill="#428BF9"/>
</g>
</g>
</g>
</g>
<g filter="url(#filter1_d_2233_226987)">
<g clip-path="url(#clip12_2233_226987)">
<path d="M215.5 66.4C215.5 52.9587 215.5 46.2381 218.116 41.1042C220.417 36.5883 224.088 32.9168 228.604 30.6158C233.738 28 240.459 28 253.9 28H338.6C352.041 28 358.762 28 363.896 30.6158C368.412 32.9168 372.083 36.5883 374.384 41.1042C377 46.2381 377 52.9587 377 66.4V97.6C377 111.041 377 117.762 374.384 122.896C372.083 127.412 368.412 131.083 363.896 133.384C358.762 136 352.041 136 338.6 136H253.9C240.459 136 233.738 136 228.604 133.384C224.088 131.083 220.417 127.412 218.116 122.896C215.5 117.762 215.5 111.041 215.5 97.6V66.4Z" fill="white"/>
<g clip-path="url(#clip13_2233_226987)">
<g clip-path="url(#clip14_2233_226987)">
<path d="M239.642 62V52.3877H239.493L236.554 54.4297V52.1719L239.65 50.022H242.149V62H239.642ZM247.931 62V52.3877H247.782L244.843 54.4297V52.1719L247.94 50.022H250.438V62H247.931ZM257.897 62.3071C254.942 62.3071 253.141 59.8833 253.141 56.0151V55.9985C253.141 52.1221 254.942 49.7148 257.897 49.7148C260.861 49.7148 262.654 52.1221 262.654 55.9985V56.0151C262.654 59.8833 260.861 62.3071 257.897 62.3071ZM257.897 60.3232C259.317 60.3232 260.122 58.7212 260.122 56.0151V55.9985C260.122 53.2842 259.317 51.6987 257.897 51.6987C256.486 51.6987 255.681 53.2842 255.681 55.9985V56.0151C255.681 58.7212 256.486 60.3232 257.897 60.3232ZM273.264 62.3071C270.483 62.3071 268.317 60.3398 268.317 56.123V56.1064C268.317 52.0972 270.209 49.7148 273.272 49.7148C275.588 49.7148 277.315 51.0845 277.68 52.9604L277.696 53.0435H275.248L275.214 52.9688C274.932 52.2217 274.252 51.7153 273.28 51.7153C271.546 51.7153 270.79 53.417 270.699 55.5918C270.691 55.6831 270.691 55.7744 270.691 55.8657H270.857C271.288 54.936 272.293 54.1143 273.944 54.1143C276.277 54.1143 277.854 55.7744 277.854 58.0405V58.0571C277.854 60.5059 275.962 62.3071 273.264 62.3071ZM271.064 58.0903C271.064 59.3521 272.027 60.3232 273.247 60.3232C274.459 60.3232 275.43 59.3687 275.43 58.1401V58.1235C275.43 56.8701 274.517 55.957 273.264 55.957C272.027 55.957 271.064 56.8452 271.064 58.082V58.0903ZM284.043 62.2656C281.337 62.2656 279.553 60.813 279.387 58.6714L279.378 58.5635H281.777L281.785 58.6548C281.893 59.5845 282.748 60.2485 284.043 60.2485C285.322 60.2485 286.16 59.5347 286.16 58.522V58.5054C286.16 57.3599 285.305 56.729 283.852 56.729H282.483V54.9443H283.819C285.081 54.9443 285.894 54.2803 285.894 53.3091V53.2925C285.894 52.2964 285.205 51.6821 284.027 51.6821C282.848 51.6821 282.059 52.3213 281.96 53.3174L281.951 53.3921H279.644L279.652 53.2925C279.826 51.1509 281.512 49.7563 284.027 49.7563C286.6 49.7563 288.26 51.0513 288.26 52.9604V52.9771C288.26 54.4712 287.164 55.4424 285.762 55.7329V55.7827C287.546 55.9487 288.708 56.978 288.708 58.605V58.6216C288.708 60.7964 286.841 62.2656 284.043 62.2656ZM290.531 62V60.3149L294.391 56.5049C296.076 54.8696 296.533 54.2637 296.533 53.4253V53.4004C296.533 52.3794 295.835 51.6655 294.69 51.6655C293.519 51.6655 292.714 52.4458 292.714 53.583V53.6245H290.398L290.39 53.5913C290.39 51.292 292.183 49.7148 294.806 49.7148C297.271 49.7148 298.998 51.126 298.998 53.1929V53.2178C298.998 54.5791 298.292 55.708 296.109 57.7251L293.893 59.792V59.9829H299.172V62H290.531ZM305.566 62L310.671 52.1553V52.0142H304.628V50.0137H313.194V52.0391L308.189 62H305.566ZM319.167 49.7065C321.94 49.7065 324.115 51.6821 324.115 55.8906V55.9072C324.115 59.9165 322.222 62.2988 319.151 62.2988C316.835 62.2988 315.117 60.9292 314.743 59.0532L314.727 58.9785H317.184L317.208 59.0532C317.499 59.8003 318.18 60.3066 319.143 60.3066C320.877 60.3066 321.641 58.605 321.732 56.4219C321.732 56.3389 321.732 56.2476 321.732 56.1562H321.566C321.135 57.0776 320.139 57.9077 318.478 57.9077C316.146 57.9077 314.577 56.2476 314.577 53.9814V53.9648C314.577 51.5161 316.47 49.7065 319.167 49.7065ZM319.167 56.0566C320.404 56.0566 321.359 55.1768 321.359 53.9399V53.9233C321.359 52.6699 320.404 51.6987 319.184 51.6987C317.972 51.6987 317.001 52.6533 317.001 53.8735V53.8901C317.001 55.1519 317.914 56.0566 319.167 56.0566ZM330.636 62.2656C327.755 62.2656 325.772 60.8296 325.772 58.7544V58.7378C325.772 57.1772 326.934 56.0234 328.569 55.6997V55.6499C327.166 55.3096 326.212 54.2969 326.212 52.9937V52.9771C326.212 51.1177 328.029 49.7563 330.636 49.7563C333.234 49.7563 335.06 51.1177 335.06 52.9771V52.9937C335.06 54.2969 334.097 55.3013 332.703 55.6499V55.6997C334.33 56.0151 335.5 57.1772 335.5 58.7378V58.7544C335.5 60.8296 333.516 62.2656 330.636 62.2656ZM330.636 54.8945C331.781 54.8945 332.578 54.2139 332.578 53.2344V53.2178C332.578 52.2383 331.773 51.5659 330.636 51.5659C329.49 51.5659 328.685 52.2383 328.685 53.2178V53.2344C328.685 54.2139 329.482 54.8945 330.636 54.8945ZM330.636 60.4395C331.947 60.4395 332.877 59.6675 332.877 58.5884V58.5718C332.877 57.4927 331.964 56.7124 330.636 56.7124C329.308 56.7124 328.386 57.4927 328.386 58.5718V58.5884C328.386 59.6675 329.316 60.4395 330.636 60.4395ZM340.748 60.1904V59.2358H342.325V57.7168H340.748V56.7622H342.325V50.271H346.924C349.265 50.271 350.825 51.8149 350.825 53.9897V54.0063C350.825 56.1729 349.19 57.7168 346.799 57.7168H344.766V59.2358H347.878V60.1904H344.766V61.751H342.325V60.1904H340.748ZM344.766 55.8491H346.193C347.613 55.8491 348.36 55.1685 348.36 54.0312V54.0146C348.36 52.894 347.621 52.2051 346.202 52.2051H344.766V55.8491Z" fill="#333333"/>
</g>
<rect x="356.999" y="56" width="0.001" height="0.001" fill="#D9D9D9"/>
<path d="M237.016 88.0874H235.793V84.8135H236.577C237.346 84.4033 237.631 83.4658 237.712 82.0815L238.115 75.4312H244.802V84.8135H246.12V88.0874H244.897V86H237.016V88.0874ZM238.95 82.1108C238.876 83.3047 238.73 84.103 238.21 84.7256V84.8135H243.483V76.6177H239.294L238.95 82.1108ZM250.897 86.1392C248.649 86.1392 247.257 84.5864 247.257 82.0596V82.0449C247.257 79.5107 248.649 77.9653 250.897 77.9653C253.146 77.9653 254.537 79.5107 254.537 82.0449V82.0596C254.537 84.5864 253.146 86.1392 250.897 86.1392ZM250.897 85.0112C252.391 85.0112 253.234 83.9199 253.234 82.0596V82.0449C253.234 80.1772 252.391 79.0933 250.897 79.0933C249.403 79.0933 248.561 80.1772 248.561 82.0449V82.0596C248.561 83.9199 249.403 85.0112 250.897 85.0112ZM255.499 86L258.201 82.0522L255.469 78.1045H256.971L258.846 81.0415H258.963L260.816 78.1045H262.244L259.563 82.001L262.281 86H260.787L258.919 83.019H258.802L256.927 86H255.499ZM266.853 86.1392C264.604 86.1392 263.213 84.5864 263.213 82.0596V82.0449C263.213 79.5107 264.604 77.9653 266.853 77.9653C269.101 77.9653 270.493 79.5107 270.493 82.0449V82.0596C270.493 84.5864 269.101 86.1392 266.853 86.1392ZM266.853 85.0112C268.347 85.0112 269.189 83.9199 269.189 82.0596V82.0449C269.189 80.1772 268.347 79.0933 266.853 79.0933C265.359 79.0933 264.516 80.1772 264.516 82.0449V82.0596C264.516 83.9199 265.359 85.0112 266.853 85.0112ZM272.479 88.0874H271.293V84.9453H271.952C272.531 84.5645 272.816 83.5684 272.89 82.5063L273.197 78.1045H278.581V84.9453H279.84V88.0874H278.654V86H272.479V88.0874ZM277.306 84.9453V79.1592H274.325L274.076 82.5356C274.003 83.4951 273.798 84.3374 273.424 84.8281V84.9453H277.306ZM281.256 86V78.1045H282.53V80.6387H284.075C285.884 80.6387 287.042 81.6787 287.042 83.312V83.3267C287.042 84.96 285.884 86 284.075 86H281.256ZM288.419 86V78.1045H289.693V86H288.419ZM284.075 81.6934H282.53V84.9453H284.075C285.115 84.9453 285.767 84.3008 285.767 83.3267V83.312C285.767 82.3306 285.108 81.6934 284.075 81.6934Z" fill="#333333"/>
</g>
<g clip-path="url(#clip15_2233_226987)">
<g clip-path="url(#clip16_2233_226987)">
<rect width="15.1875" height="12" transform="translate(235.5 104)" fill="#001024" fill-opacity="0.06"/>
<rect width="1000" height="12" transform="translate(235.5 104)" fill="#2A8389"/>
</g>
<g clip-path="url(#clip17_2233_226987)">
<rect width="15.1875" height="12" transform="translate(250.688 104)" fill="#001024" fill-opacity="0.06"/>
<rect width="20.002" height="12" transform="translate(250.688 104)" fill="#2A8389"/>
</g>
<g clip-path="url(#clip18_2233_226987)">
<rect width="15.1875" height="12" transform="translate(265.875 104)" fill="#2A8389"/>
<rect width="0.002" height="12" transform="translate(265.875 104)" fill="#428BF9"/>
</g>
<g clip-path="url(#clip19_2233_226987)">
<rect width="15.1875" height="12" transform="translate(281.062 104)" fill="#2A8389"/>
<rect width="0.002" height="12" transform="translate(281.062 104)" fill="#428BF9"/>
</g>
<g clip-path="url(#clip20_2233_226987)">
<rect width="15.1875" height="12" transform="translate(296.25 104)" fill="#5CD1C9"/>
<rect width="0.002" height="12" transform="translate(296.25 104)" fill="#428BF9"/>
</g>
<g clip-path="url(#clip21_2233_226987)">
<rect width="15.1875" height="12" transform="translate(311.438 104)" fill="#5CD1C9"/>
<rect width="0.002" height="12" transform="translate(311.438 104)" fill="#428BF9"/>
</g>
<g clip-path="url(#clip22_2233_226987)">
<rect width="15.1875" height="12" transform="translate(326.625 104)" fill="#5CD1C9"/>
<rect width="0.002" height="12" transform="translate(326.625 104)" fill="#428BF9"/>
</g>
<g clip-path="url(#clip23_2233_226987)">
<rect width="15.1875" height="12" transform="translate(341.812 104)" fill="#59D8BB"/>
<rect width="0.002" height="12" transform="translate(341.812 104)" fill="#428BF9"/>
</g>
</g>
</g>
</g>
<defs>
<filter id="filter0_d_2233_226987" x="0" y="0" width="229.5" height="176" filterUnits="userSpaceOnUse" color-interpolation-filters="sRGB">
<feFlood flood-opacity="0" result="BackgroundImageFix"/>
<feColorMatrix in="SourceAlpha" type="matrix" values="0 0 0 0 0 0 0 0 0 0 0 0 0 0 0 0 0 0 127 0" result="hardAlpha"/>
<feOffset dy="6"/>
<feGaussianBlur stdDeviation="17"/>
<feComposite in2="hardAlpha" operator="out"/>
<feColorMatrix type="matrix" values="0 0 0 0 0 0 0 0 0 0 0 0 0 0 0 0 0 0 0.12 0"/>
<feBlend mode="normal" in2="BackgroundImageFix" result="effect1_dropShadow_2233_226987"/>
<feBlend mode="normal" in="SourceGraphic" in2="effect1_dropShadow_2233_226987" result="shape"/>
</filter>
<filter id="filter1_d_2233_226987" x="181.5" y="0" width="229.5" height="176" filterUnits="userSpaceOnUse" color-interpolation-filters="sRGB">
<feFlood flood-opacity="0" result="BackgroundImageFix"/>
<feColorMatrix in="SourceAlpha" type="matrix" values="0 0 0 0 0 0 0 0 0 0 0 0 0 0 0 0 0 0 127 0" result="hardAlpha"/>
<feOffset dy="6"/>
<feGaussianBlur stdDeviation="17"/>
<feComposite in2="hardAlpha" operator="out"/>
<feColorMatrix type="matrix" values="0 0 0 0 0 0 0 0 0 0 0 0 0 0 0 0 0 0 0.12 0"/>
<feBlend mode="normal" in2="BackgroundImageFix" result="effect1_dropShadow_2233_226987"/>
<feBlend mode="normal" in="SourceGraphic" in2="effect1_dropShadow_2233_226987" result="shape"/>
</filter>
<clipPath id="clip0_2233_226987">
<path d="M34 66.4C34 52.9587 34 46.2381 36.6158 41.1042C38.9168 36.5883 42.5883 32.9168 47.1042 30.6158C52.2381 28 58.9587 28 72.4 28H157.1C170.541 28 177.262 28 182.396 30.6158C186.912 32.9168 190.583 36.5883 192.884 41.1042C195.5 46.2381 195.5 52.9587 195.5 66.4V97.6C195.5 111.041 195.5 117.762 192.884 122.896C190.583 127.412 186.912 131.083 182.396 133.384C177.262 136 170.541 136 157.1 136H72.4C58.9587 136 52.2381 136 47.1042 133.384C42.5883 131.083 38.9168 127.412 36.6158 122.896C34 117.762 34 111.041 34 97.6V66.4Z" fill="white"/>
</clipPath>
<clipPath id="clip1_2233_226987">
<rect width="161.5" height="76" fill="white" transform="translate(34 28)"/>
</clipPath>
<clipPath id="clip2_2233_226987">
<rect width="121.499" height="24" fill="white" transform="translate(54 44)"/>
</clipPath>
<clipPath id="clip3_2233_226987">
<rect x="54" y="104" width="121.5" height="12" rx="6" fill="white"/>
</clipPath>
<clipPath id="clip4_2233_226987">
<rect width="15.1875" height="12" fill="white" transform="translate(54 104)"/>
</clipPath>
<clipPath id="clip5_2233_226987">
<rect width="15.1875" height="12" fill="white" transform="translate(69.1875 104)"/>
</clipPath>
<clipPath id="clip6_2233_226987">
<rect width="15.1875" height="12" fill="white" transform="translate(84.375 104)"/>
</clipPath>
<clipPath id="clip7_2233_226987">
<rect width="15.1875" height="12" fill="white" transform="translate(99.5625 104)"/>
</clipPath>
<clipPath id="clip8_2233_226987">
<rect width="15.1875" height="12" fill="white" transform="translate(114.75 104)"/>
</clipPath>
<clipPath id="clip9_2233_226987">
<rect width="15.1875" height="12" fill="white" transform="translate(129.938 104)"/>
</clipPath>
<clipPath id="clip10_2233_226987">
<rect width="15.1875" height="12" fill="white" transform="translate(145.125 104)"/>
</clipPath>
<clipPath id="clip11_2233_226987">
<rect width="15.1875" height="12" fill="white" transform="translate(160.312 104)"/>
</clipPath>
<clipPath id="clip12_2233_226987">
<path d="M215.5 66.4C215.5 52.9587 215.5 46.2381 218.116 41.1042C220.417 36.5883 224.088 32.9168 228.604 30.6158C233.738 28 240.459 28 253.9 28H338.6C352.041 28 358.762 28 363.896 30.6158C368.412 32.9168 372.083 36.5883 374.384 41.1042C377 46.2381 377 52.9587 377 66.4V97.6C377 111.041 377 117.762 374.384 122.896C372.083 127.412 368.412 131.083 363.896 133.384C358.762 136 352.041 136 338.6 136H253.9C240.459 136 233.738 136 228.604 133.384C224.088 131.083 220.417 127.412 218.116 122.896C215.5 117.762 215.5 111.041 215.5 97.6V66.4Z" fill="white"/>
</clipPath>
<clipPath id="clip13_2233_226987">
<rect width="161.5" height="76" fill="white" transform="translate(215.5 28)"/>
</clipPath>
<clipPath id="clip14_2233_226987">
<rect width="121.499" height="24" fill="white" transform="translate(235.5 44)"/>
</clipPath>
<clipPath id="clip15_2233_226987">
<rect x="235.5" y="104" width="121.5" height="12" rx="6" fill="white"/>
</clipPath>
<clipPath id="clip16_2233_226987">
<rect width="15.1875" height="12" fill="white" transform="translate(235.5 104)"/>
</clipPath>
<clipPath id="clip17_2233_226987">
<rect width="15.1875" height="12" fill="white" transform="translate(250.688 104)"/>
</clipPath>
<clipPath id="clip18_2233_226987">
<rect width="15.1875" height="12" fill="white" transform="translate(265.875 104)"/>
</clipPath>
<clipPath id="clip19_2233_226987">
<rect width="15.1875" height="12" fill="white" transform="translate(281.062 104)"/>
</clipPath>
<clipPath id="clip20_2233_226987">
<rect width="15.1875" height="12" fill="white" transform="translate(296.25 104)"/>
</clipPath>
<clipPath id="clip21_2233_226987">
<rect width="15.1875" height="12" fill="white" transform="translate(311.438 104)"/>
</clipPath>
<clipPath id="clip22_2233_226987">
<rect width="15.1875" height="12" fill="white" transform="translate(326.625 104)"/>
</clipPath>
<clipPath id="clip23_2233_226987">
<rect width="15.1875" height="12" fill="white" transform="translate(341.812 104)"/>
</clipPath>
</defs>
</svg>
