<svg width="327" height="125" viewBox="0 0 327 125" fill="none" xmlns="http://www.w3.org/2000/svg">
<g clip-path="url(#clip0_2233_121064)">
<path d="M84.4845 31V16.9082H90.6173C93.2736 16.9082 94.9435 18.2754 94.9435 20.4434V20.4629C94.9435 22.0059 93.7619 23.3242 92.2189 23.5293V23.5879C94.172 23.7344 95.5978 25.1211 95.5978 26.9668V26.9863C95.5978 29.457 93.7326 31 90.7248 31H84.4845ZM89.8556 19.0957H87.4337V22.7969H89.4943C91.1447 22.7969 92.0431 22.1035 92.0431 20.8828V20.8633C92.0431 19.7402 91.2326 19.0957 89.8556 19.0957ZM89.8361 24.7988H87.4337V28.8027H89.963C91.6525 28.8027 92.5802 28.1094 92.5802 26.8008V26.7812C92.5802 25.4922 91.6427 24.7988 89.8361 24.7988ZM102.345 31.2148C99.1614 31.2148 97.179 29.1348 97.179 25.7559V25.7461C97.179 22.3965 99.1809 20.3164 102.325 20.3164C105.157 20.3164 106.964 22.0645 107.072 24.3301L107.081 24.3984H104.425L104.415 24.3105C104.24 23.3145 103.536 22.5527 102.365 22.5527C100.958 22.5527 100.079 23.7539 100.079 25.7559V25.7656C100.079 27.8164 100.958 28.9785 102.374 28.9785C103.517 28.9785 104.23 28.2754 104.415 27.2207L104.435 27.1328H107.091L107.081 27.1914C106.945 29.4766 105.148 31.2148 102.345 31.2148ZM113.77 31.2148C110.557 31.2148 108.614 29.1348 108.614 25.7852V25.7754C108.614 22.4453 110.577 20.3164 113.653 20.3164C116.719 20.3164 118.633 22.3965 118.633 25.5605V26.4395H111.426C111.465 28.1094 112.373 29.0859 113.829 29.0859C115 29.0859 115.713 28.4414 115.909 27.8555L115.928 27.7969H118.545L118.526 27.9043C118.194 29.4473 116.748 31.2148 113.77 31.2148ZM113.702 22.4453C112.52 22.4453 111.651 23.2266 111.465 24.6426H115.899C115.723 23.1973 114.873 22.4453 113.702 22.4453ZM127.949 22.6797H123.505V31H120.654V20.5312H127.949V22.6797ZM134.559 31.2148C131.385 31.2148 129.374 29.1738 129.374 25.7656V25.7461C129.374 22.377 131.424 20.3164 134.559 20.3164C137.694 20.3164 139.745 22.3574 139.745 25.7461V25.7656C139.745 29.1836 137.723 31.2148 134.559 31.2148ZM134.569 28.9785C135.965 28.9785 136.844 27.8066 136.844 25.7656V25.7461C136.844 23.7246 135.946 22.5527 134.559 22.5527C133.182 22.5527 132.274 23.7246 132.274 25.7461V25.7656C132.274 27.8164 133.163 28.9785 134.569 28.9785ZM152.966 31V26.7129H148.962V31H146.11V20.5312H148.962V24.5547H152.966V20.5312H155.817V31H152.966ZM161.344 31.166C159.244 31.166 157.818 29.8477 157.818 28.002V27.9824C157.818 26.0781 159.293 24.9648 161.9 24.7988L164.488 24.6426V23.998C164.488 23.0703 163.883 22.4941 162.76 22.4941C161.695 22.4941 161.061 22.9922 160.914 23.666L160.895 23.7539H158.287L158.297 23.6367C158.453 21.7031 160.113 20.3164 162.887 20.3164C165.582 20.3164 167.34 21.7129 167.34 23.8223V31H164.488V29.4375H164.43C163.824 30.5117 162.711 31.166 161.344 31.166ZM160.641 27.8555C160.641 28.627 161.285 29.0859 162.262 29.0859C163.541 29.0859 164.488 28.2656 164.488 27.1719V26.4199L162.33 26.5566C161.227 26.625 160.641 27.0938 160.641 27.8359V27.8555ZM178.822 31.2148C175.639 31.2148 173.656 29.1348 173.656 25.7559V25.7461C173.656 22.3965 175.658 20.3164 178.803 20.3164C181.635 20.3164 183.442 22.0645 183.549 24.3301L183.559 24.3984H180.903L180.893 24.3105C180.717 23.3145 180.014 22.5527 178.842 22.5527C177.436 22.5527 176.557 23.7539 176.557 25.7559V25.7656C176.557 27.8164 177.436 28.9785 178.852 28.9785C179.994 28.9785 180.707 28.2754 180.893 27.2207L180.912 27.1328H183.569L183.559 27.1914C183.422 29.4766 181.625 31.2148 178.822 31.2148ZM194.779 31H191.927V26.6152H191.869C191.253 27.2891 190.267 27.6895 189.144 27.6895C186.742 27.6895 185.306 26.2344 185.306 23.8711V20.5312H188.158V23.4121C188.158 24.6719 188.861 25.3262 190.111 25.3262C190.882 25.3262 191.576 25.0332 191.927 24.5938V20.5312H194.779V31ZM201.956 31.2148C198.743 31.2148 196.799 29.1348 196.799 25.7852V25.7754C196.799 22.4453 198.762 20.3164 201.838 20.3164C204.905 20.3164 206.819 22.3965 206.819 25.5605V26.4395H199.612C199.651 28.1094 200.559 29.0859 202.014 29.0859C203.186 29.0859 203.899 28.4414 204.094 27.8555L204.114 27.7969H206.731L206.711 27.9043C206.379 29.4473 204.934 31.2148 201.956 31.2148ZM201.887 22.4453C200.706 22.4453 199.836 23.2266 199.651 24.6426H204.084C203.909 23.1973 203.059 22.4453 201.887 22.4453ZM216.974 20.5312V22.6895H213.859V31H211.007V22.6895H207.892V20.5312H216.974ZM221.71 31.166C219.61 31.166 218.184 29.8477 218.184 28.002V27.9824C218.184 26.0781 219.659 24.9648 222.266 24.7988L224.854 24.6426V23.998C224.854 23.0703 224.249 22.4941 223.126 22.4941C222.061 22.4941 221.426 22.9922 221.28 23.666L221.26 23.7539H218.653L218.663 23.6367C218.819 21.7031 220.479 20.3164 223.253 20.3164C225.948 20.3164 227.706 21.7129 227.706 23.8223V31H224.854V29.4375H224.796C224.19 30.5117 223.077 31.166 221.71 31.166ZM221.007 27.8555C221.007 28.627 221.651 29.0859 222.628 29.0859C223.907 29.0859 224.854 28.2656 224.854 27.1719V26.4199L222.696 26.5566C221.592 26.625 221.007 27.0938 221.007 27.8359V27.8555ZM229.346 31L232.627 25.7852L229.375 20.5312H232.588L234.463 24.0664H234.521L236.387 20.5312H239.482L236.211 25.707L239.463 31H236.357L234.375 27.3672H234.316L232.344 31H229.346Z" fill="#F6F7F8"/>
</g>
<g clip-path="url(#clip1_2233_121064)">
<path d="M43.6759 86.75C37.2306 86.75 33.2697 83.9609 31.6759 80.6328C31.3009 79.8594 31.1369 79.1094 31.1369 78.4062C31.1369 76.5781 32.3087 75.4297 34.2541 75.4297C35.6603 75.4297 36.5509 75.9922 37.2541 77.2812C38.4494 79.6484 40.2775 81.0547 43.7931 81.0547C47.2619 81.0547 49.6525 79.0391 49.6525 76.2266C49.6759 72.9453 47.2619 71.1172 43.1603 71.1172H41.6837C39.9728 71.1172 38.9884 70.1094 38.9884 68.5859C38.9884 67.1094 39.9728 66.0781 41.6837 66.0781H43.0666C46.6056 66.0781 48.9025 64.1562 48.9025 61.3906C48.9025 58.6719 47.0744 56.8672 43.6525 56.8672C40.7931 56.8672 39.0587 58.0625 37.9572 60.4531C37.1837 62.0469 36.3634 62.6328 34.7697 62.6328C32.8009 62.6328 31.7931 61.4844 31.7931 59.7734C31.7931 58.9766 31.9572 58.2969 32.3087 57.5C33.8087 54.1953 37.6525 51.4297 43.6291 51.4297C50.7775 51.4297 55.6056 54.9688 55.6056 60.3828C55.6056 64.6719 52.5353 67.4844 48.5509 68.3047V68.4453C53.59 68.9141 56.8478 71.8672 56.8478 76.5312C56.8478 82.6719 51.5275 86.75 43.6759 86.75ZM91.054 86.4922C89.1087 86.4922 87.7024 85.2969 87.7024 83.0469V79.7891H75.0931C72.5384 79.7891 70.8274 78.1953 70.8274 75.8281C70.8274 74.375 71.2493 73.0625 72.304 71.2109C74.6243 67.0391 77.9993 61.8828 81.679 56.4219C84.0227 52.8359 85.7337 51.6641 88.5931 51.6641C92.179 51.6641 94.429 53.6094 94.429 56.7734V74.1406H96.3509C98.2259 74.1406 99.2571 75.3125 99.2571 76.9766C99.2571 78.6406 98.2024 79.7891 96.3509 79.7891H94.429V83.0469C94.429 85.2969 92.9993 86.4922 91.054 86.4922ZM87.8431 74.3281V57.3125H87.7024C82.8743 64.2734 79.7571 69.0312 77.0149 74.1406V74.3281H87.8431ZM116.278 86.75C108.192 86.75 102.567 82.6953 102.567 76.8359C102.567 72.3828 105.848 69.1016 110.466 68.2109V68.0703C106.481 67.0859 103.786 64.2031 103.786 60.5234C103.786 55.2734 108.942 51.4297 116.278 51.4297C123.614 51.4297 128.747 55.25 128.747 60.5469C128.747 64.1797 126.075 67.0625 122.114 68.0703V68.2109C126.731 69.125 129.989 72.4062 129.989 76.8594C129.989 82.7188 124.341 86.75 116.278 86.75ZM116.278 65.9375C119.466 65.9375 121.763 64.0156 121.763 61.25C121.763 58.4609 119.466 56.5391 116.278 56.5391C113.067 56.5391 110.794 58.4609 110.794 61.25C110.794 64.0156 113.067 65.9375 116.278 65.9375ZM116.278 81.5938C120.005 81.5938 122.583 79.3906 122.583 76.3203C122.583 73.2734 120.005 71.0938 116.278 71.0938C112.552 71.0938 109.95 73.2734 109.95 76.3203C109.95 79.3906 112.552 81.5938 116.278 81.5938ZM137.963 86C135.737 86 134.635 84.7578 134.635 82.9766C134.635 81.6406 135.151 80.75 136.58 79.4375L146.659 69.8047C150.83 65.7969 151.909 64.1562 151.909 61.7188C151.909 58.9297 149.752 56.9375 146.729 56.9375C144.01 56.9375 142.135 58.2969 140.916 61.0156C140.12 62.4219 139.299 63.0781 137.776 63.0781C135.877 63.0781 134.752 61.9531 134.752 60.1953C134.752 59.6562 134.846 59.1641 135.01 58.6719C136.159 54.9219 140.401 51.4297 146.799 51.4297C153.971 51.4297 158.799 55.4609 158.799 61.2734C158.799 65.3984 156.784 67.9766 151.252 73.2031L143.94 80.2344V80.375H156.69C158.518 80.375 159.62 81.4766 159.62 83.1875C159.62 84.8516 158.518 86 156.69 86H137.963ZM180.326 86.4922C178.334 86.4922 177.091 85.25 177.091 83.6094C177.091 82.7891 177.279 82.1562 177.701 81.3828L190.216 57.9453V57.8047H175.638C173.951 57.8047 172.709 56.6797 172.709 54.9688C172.709 53.2812 173.951 52.1797 175.638 52.1797H193.146C195.607 52.1797 197.365 53.6328 197.365 56.0469C197.365 57.3125 196.943 58.4375 196.029 60.2188L183.49 84.4297C182.716 85.9297 181.849 86.4922 180.326 86.4922ZM214.269 86.75C207.823 86.75 203.862 83.9609 202.269 80.6328C201.894 79.8594 201.73 79.1094 201.73 78.4062C201.73 76.5781 202.901 75.4297 204.847 75.4297C206.253 75.4297 207.144 75.9922 207.847 77.2812C209.042 79.6484 210.87 81.0547 214.386 81.0547C217.855 81.0547 220.245 79.0391 220.245 76.2266C220.269 72.9453 217.855 71.1172 213.753 71.1172H212.276C210.566 71.1172 209.581 70.1094 209.581 68.5859C209.581 67.1094 210.566 66.0781 212.276 66.0781H213.659C217.198 66.0781 219.495 64.1562 219.495 61.3906C219.495 58.6719 217.667 56.8672 214.245 56.8672C211.386 56.8672 209.651 58.0625 208.55 60.4531C207.776 62.0469 206.956 62.6328 205.362 62.6328C203.394 62.6328 202.386 61.4844 202.386 59.7734C202.386 58.9766 202.55 58.2969 202.901 57.5C204.401 54.1953 208.245 51.4297 214.222 51.4297C221.37 51.4297 226.198 54.9688 226.198 60.3828C226.198 64.6719 223.128 67.4844 219.144 68.3047V68.4453C224.183 68.9141 227.441 71.8672 227.441 76.5312C227.441 82.6719 222.12 86.75 214.269 86.75ZM244.251 86.4922C242.165 86.4922 240.735 85.0859 240.735 82.9531V58.7422H240.594L235.649 62.1875C234.993 62.6562 234.501 62.8203 233.774 62.8203C232.344 62.8203 231.29 61.7891 231.29 60.2891C231.29 59.2109 231.712 58.4141 232.813 57.6406L239.516 53C241.157 51.875 242.282 51.6641 243.735 51.6641C246.243 51.6641 247.743 53.1875 247.743 55.625V82.9531C247.743 85.0859 246.337 86.4922 244.251 86.4922ZM265.426 80.8906C264.676 80.8906 264.23 80.4219 264.23 79.7188C264.23 79.0156 264.676 78.5469 265.426 78.5469H268.988V73.9062H265.426C264.652 73.9062 264.207 73.4141 264.207 72.6875C264.207 71.9844 264.652 71.4922 265.426 71.4922H268.988V56.4453C268.988 54.125 270.301 52.7656 272.527 52.7656H281.996C288.605 52.7656 293.012 57.1719 293.012 63.3594C293.012 69.4766 288.394 73.9062 281.644 73.9062H275.879V78.5469H283.777C284.527 78.5469 284.973 79.0156 284.973 79.7188C284.973 80.4219 284.527 80.8906 283.777 80.8906H275.879V82.9062C275.879 85.1094 274.543 86.4453 272.433 86.4453C270.301 86.4453 268.988 85.1094 268.988 82.9062V80.8906H265.426ZM275.879 68.6562H279.91C283.918 68.6562 286.027 66.6641 286.027 63.4297C286.027 60.2188 283.941 58.2266 279.933 58.2266H275.879V68.6562Z" fill="#F6F7F8"/>
</g>
<mask id="mask0_2233_121064" style="mask-type:alpha" maskUnits="userSpaceOnUse" x="302" y="56" width="25" height="25">
<path fill-rule="evenodd" clip-rule="evenodd" d="M312.05 60.5L310.5 61.968L317.399 68.5003L310.5 75.0326L312.05 76.5007L320.5 68.5003L312.05 60.5Z" fill="black"/>
</mask>
<g mask="url(#mask0_2233_121064)">
<rect x="302.5" y="56.5" width="24" height="24.001" fill="white" fill-opacity="0.3"/>
</g>
<defs>
<clipPath id="clip0_2233_121064">
<rect width="291" height="24" fill="white" transform="translate(16 12)"/>
</clipPath>
<clipPath id="clip1_2233_121064">
<rect width="266" height="57" fill="white" transform="translate(28.5 40)"/>
</clipPath>
</defs>
</svg>
