<svg width="40" height="40" viewBox="0 0 40 40" fill="none" xmlns="http://www.w3.org/2000/svg">
<mask id="mask0_139_380" style="mask-type:alpha" maskUnits="userSpaceOnUse" x="9" y="9" width="22" height="22">
<path fill-rule="evenodd" clip-rule="evenodd" d="M9 20C9 13.9249 13.9249 9 20 9C26.0751 9 31 13.9249 31 20C31 26.0751 26.0751 31 20 31C13.9249 31 9 26.0751 9 20ZM18.5 14.6282C18.5 15.3185 19.0596 15.8782 19.75 15.8782H21.275V14.6282C21.275 13.9378 20.7154 13.3782 20.025 13.3782H18.5V14.6282ZM22 23.4353H21.25V18.5406C21.25 17.9883 20.8023 17.3782 20.25 17.3782H17.25V18.5406C17.25 19.0928 17.6977 19.6214 18.25 19.6214H18.75V23.4353L17 23.4353V24.5C17 25.0523 17.6977 25.5 18.25 25.5H23V24.5C23 23.9477 22.5523 23.4353 22 23.4353Z" fill="url(#paint0_linear_139_380)"/>
</mask>
<g mask="url(#mask0_139_380)">
<path d="M8 8H32V32H8V8Z" fill="#F6F7F8"/>
</g>
<defs>
<linearGradient id="paint0_linear_139_380" x1="13" y1="13" x2="27" y2="27" gradientUnits="userSpaceOnUse">
<stop stop-opacity="0.95"/>
<stop offset="1" stop-opacity="0.65"/>
</linearGradient>
</defs>
</svg>
