<svg width="40" height="40" viewBox="0 0 40 40" fill="none" xmlns="http://www.w3.org/2000/svg">
<mask id="mask0_139_64" style="mask-type:alpha" maskUnits="userSpaceOnUse" x="9" y="12" width="21" height="19">
<path fill-rule="evenodd" clip-rule="evenodd" d="M9.5 12.5H25C27.7614 12.5 30 14.7386 30 17.5V31L27.4645 28.4645C26.5268 27.5268 25.255 27 23.9289 27H14.5C11.7386 27 9.5 24.7614 9.5 22V12.5ZM19.294 14.4C17.5387 14.4 16.1034 15.7706 16 17.5H18.0093C18.1055 16.877 18.6441 16.3999 19.2941 16.3999C20.012 16.3999 20.5941 16.982 20.5941 17.6999C20.5941 18.4179 20.012 18.9999 19.2941 18.9999V19C18.4656 19 17.7941 19.6716 17.7941 20.5V22H18.7941C19.3464 22 19.7941 21.5523 19.7941 21V20.9624C21.3793 20.7214 22.594 19.3526 22.594 17.7C22.594 15.8775 21.1166 14.4 19.294 14.4ZM19.0941 24.7H17.7941V23.7C17.7941 23.3134 18.1075 23 18.4941 23H19.7941V24C19.7941 24.3866 19.4807 24.7 19.0941 24.7Z" fill="url(#paint0_linear_139_64)"/>
</mask>
<g mask="url(#mask0_139_64)">
<path d="M8 8H32V32H8V8Z" fill="#F6F7F8"/>
</g>
<defs>
<linearGradient id="paint0_linear_139_64" x1="19.75" y1="12.5" x2="30.6894" y2="30.5829" gradientUnits="userSpaceOnUse">
<stop/>
<stop offset="1" stop-opacity="0.7"/>
</linearGradient>
</defs>
</svg>
