<svg width="40" height="40" viewBox="0 0 40 40" fill="none" xmlns="http://www.w3.org/2000/svg">
<mask id="mask0_139_43" style="mask-type:alpha" maskUnits="userSpaceOnUse" x="8" y="8" width="24" height="24">
<path fill-rule="evenodd" clip-rule="evenodd" d="M20 8.5C13.6487 8.5 8.5 13.6487 8.5 20C8.5 26.3513 13.6487 31.5 20 31.5C26.3513 31.5 31.5 26.3513 31.5 20C31.5 13.6487 26.3513 8.5 20 8.5ZM17 18.9998V14L20.9601 14.0002C21.9774 14.0003 23.0317 14.1537 23.7815 14.8413C24.3958 15.4046 25 16.271 25 17.5C25 18.7287 24.3961 19.5951 23.7819 20.1585C23.032 20.8465 21.9771 21 20.9593 21H19.5V22.041H23C23 23.1229 22.1229 24 21.041 24H19.5V24.0625C19.5 25.1671 18.6046 26.0625 17.5 26.0625H17V24L15.5 23.9588V23.5004C15.5 22.6784 16.1783 22.0184 17 22.041V21L15.5 20.9588V20.4592C15.5 19.6372 16.1783 18.9773 17 18.9998ZM21 15.9998L19.5 16V18.9998H21C21 18.9998 22.5 19.1058 22.5 17.5528C22.5 15.9998 21 15.9998 21 15.9998Z" fill="url(#paint0_linear_139_43)"/>
</mask>
<g mask="url(#mask0_139_43)">
<rect x="8" y="8" width="24" height="24" fill="#F52222"/>
</g>
<defs>
<linearGradient id="paint0_linear_139_43" x1="11.8" y1="11.8" x2="27.2" y2="27.2" gradientUnits="userSpaceOnUse">
<stop/>
<stop offset="1" stop-opacity="0.7"/>
</linearGradient>
</defs>
</svg>
