<svg width="56" height="56" viewBox="0 0 56 56" fill="none" xmlns="http://www.w3.org/2000/svg">
<g clip-path="url(#clip0_138_17789)">
<g clip-path="url(#clip1_138_17789)">
<g clip-path="url(#clip2_138_17789)">
<mask id="mask0_138_17789" style="mask-type:alpha" maskUnits="userSpaceOnUse" x="19" y="15" width="18" height="26">
<path fill-rule="evenodd" clip-rule="evenodd" d="M31.4999 40.2501H34.4167C35.7053 40.2501 36.75 39.2054 36.75 37.9167V21.0001C36.75 19.7114 35.7053 18.6667 34.4167 18.6667H31.4999C32.7886 18.6667 33.8333 19.7114 33.8333 21.0001V37.9167C33.8333 39.2054 32.7886 40.2501 31.4999 40.2501Z" fill="black"/>
<path fill-rule="evenodd" clip-rule="evenodd" d="M21.5833 18.7403C20.577 18.9993 19.8333 19.9128 19.8333 21.0001V40.2501H31.5C32.7887 40.2501 33.8333 39.2054 33.8333 37.9167V21.0001C33.8333 19.7114 32.7887 18.6667 31.5 18.6667H30.3333V19.8334C30.3333 20.5907 30.579 21.3276 31.0333 21.9334L32.0833 23.3334H24.5H23.9167H23.3333L22.6085 22.6085C21.9521 21.9522 21.5833 21.0619 21.5833 20.1337V18.7403ZM22.75 26.8334C22.75 26.1891 23.2723 25.6667 23.9167 25.6667H29.75C30.3943 25.6667 30.9167 26.1891 30.9167 26.8334V32.6667C30.9167 33.3111 30.3943 33.8334 29.75 33.8334H23.9167C23.2723 33.8334 22.75 33.3111 22.75 32.6667V26.8334Z" fill="url(#paint0_linear_138_17789)"/>
<path fill-rule="evenodd" clip-rule="evenodd" d="M21.5833 15.1667H23.9167H24.5H30.3333V19.8334C30.3333 20.5907 30.579 21.3276 31.0333 21.9334L32.0833 23.3334H24.5H23.9167H23.3333L22.6085 22.6085C21.9521 21.9522 21.5833 21.0619 21.5833 20.1337V15.1667Z" fill="url(#paint1_linear_138_17789)"/>
</mask>
<g mask="url(#mask0_138_17789)">
<path d="M14 14H42V42H14V14Z" fill="#6BA4FA"/>
</g>
</g>
</g>
<path d="M28 2.8C31.3093 2.8 34.5862 3.45182 37.6436 4.71824C40.701 5.98466 43.4791 7.84087 45.8191 10.1809C48.1591 12.5209 50.0153 15.299 51.2818 18.3564C52.5482 21.4138 53.2 24.6907 53.2 28C53.2 31.3093 52.5482 34.5862 51.2818 37.6436C50.0153 40.701 48.1591 43.4791 45.8191 45.8191C43.479 48.1591 40.701 50.0153 37.6436 51.2818C34.5862 52.5482 31.3093 53.2 28 53.2C24.6907 53.2 21.4138 52.5482 18.3564 51.2818C15.299 50.0153 12.5209 48.1591 10.1809 45.8191C7.84087 43.479 5.98465 40.701 4.71823 37.6436C3.45181 34.5862 2.8 31.3093 2.8 28C2.8 24.6907 3.45182 21.4138 4.71824 18.3564C5.98466 15.299 7.84088 12.5209 10.1809 10.1809C12.521 7.84086 15.299 5.98465 18.3564 4.71823C21.4138 3.45181 24.6907 2.8 28 2.8L28 2.8Z" stroke="white" stroke-opacity="0.15" stroke-width="5.6" stroke-linecap="round" stroke-linejoin="round"/>
<path d="M28 2.8C32.9841 2.8 37.8563 4.27795 42.0004 7.04697C46.1445 9.81598 49.3744 13.7517 51.2818 18.3564C53.1891 22.9611 53.6881 28.028 52.7158 32.9163C51.7434 37.8046 49.3434 42.2948 45.8191 45.8191C42.2948 49.3434 37.8046 51.7434 32.9163 52.7158C28.028 53.6881 22.9611 53.1891 18.3564 51.2818C13.7517 49.3744 9.81598 46.1445 7.04697 42.0004C4.27795 37.8563 2.8 32.9841 2.8 28" stroke="#428BF9" stroke-width="5.6" stroke-linecap="round" stroke-linejoin="round"/>
</g>
<defs>
<linearGradient id="paint0_linear_138_17789" x1="33.8333" y1="39.6667" x2="20.8389" y2="19.7604" gradientUnits="userSpaceOnUse">
<stop stop-opacity="0.5"/>
<stop offset="1" stop-opacity="0.8"/>
</linearGradient>
<linearGradient id="paint1_linear_138_17789" x1="29.3202" y1="23.3334" x2="29.3202" y2="15.1667" gradientUnits="userSpaceOnUse">
<stop stop-opacity="0.15"/>
<stop offset="1" stop-opacity="0.5"/>
</linearGradient>
<clipPath id="clip0_138_17789">
<rect width="56" height="56" rx="28" fill="white"/>
</clipPath>
<clipPath id="clip1_138_17789">
<rect width="56" height="56" fill="white"/>
</clipPath>
<clipPath id="clip2_138_17789">
<rect width="56" height="56" fill="white"/>
</clipPath>
</defs>
</svg>
