<svg width="24" height="24" viewBox="0 0 24 24" fill="none" xmlns="http://www.w3.org/2000/svg">
<mask id="mask0_139_490" style="mask-type:alpha" maskUnits="userSpaceOnUse" x="4" y="4" width="16" height="16">
<path fill-rule="evenodd" clip-rule="evenodd" d="M11.9999 19.7856C12.5521 19.7856 12.9999 19.3379 12.9999 18.7856L12.9999 7.58565L17.8999 12.4856C18.2865 12.8722 18.9133 12.8722 19.2999 12.4856C19.6865 12.099 19.6865 11.4722 19.2999 11.0856L12.707 4.49275C12.3164 4.10223 11.6833 4.10223 11.2928 4.49275L4.69986 11.0856C4.31326 11.4722 4.31327 12.099 4.69986 12.4856C5.08646 12.8722 5.71327 12.8722 6.09986 12.4856L10.9999 7.58565L10.9999 18.7856C10.9999 19.3379 11.4476 19.7856 11.9999 19.7856Z" fill="black"/>
</mask>
<g mask="url(#mask0_139_490)">
<rect x="24" y="24" width="24" height="24" transform="rotate(-180 24 24)" fill="white"/>
</g>
</svg>
