<svg width="319" height="156" viewBox="0 0 319 156" fill="none" xmlns="http://www.w3.org/2000/svg">
<g clip-path="url(#clip0_138_17732)">
<path d="M0 36.9664C0 24.0269 0 17.5572 2.51819 12.615C4.73324 8.26771 8.26771 4.73324 12.615 2.51819C17.5572 0 24.0269 0 36.9664 0H281.228C294.168 0 300.637 0 305.58 2.51819C309.927 4.73324 313.461 8.26771 315.676 12.615C318.195 17.5572 318.195 24.0269 318.195 36.9664V119.034C318.195 131.973 318.195 138.443 315.676 143.385C313.461 147.732 309.927 151.267 305.58 153.482C300.637 156 294.168 156 281.228 156H36.9664C24.027 156 17.5572 156 12.615 153.482C8.26771 151.267 4.73324 147.732 2.51819 143.385C0 138.443 0 131.973 0 119.034V36.9664Z" fill="#161617"/>
</g>
<defs>
<clipPath id="clip0_138_17732">
<path d="M0 36.9664C0 24.0269 0 17.5572 2.51819 12.615C4.73324 8.26771 8.26771 4.73324 12.615 2.51819C17.5572 0 24.0269 0 36.9664 0H281.228C294.168 0 300.637 0 305.58 2.51819C309.927 4.73324 313.461 8.26771 315.676 12.615C318.195 17.5572 318.195 24.0269 318.195 36.9664V119.034C318.195 131.973 318.195 138.443 315.676 143.385C313.461 147.732 309.927 151.267 305.58 153.482C300.637 156 294.168 156 281.228 156H36.9664C24.027 156 17.5572 156 12.615 153.482C8.26771 151.267 4.73324 147.732 2.51819 143.385C0 138.443 0 131.973 0 119.034V36.9664Z" fill="white"/>
</clipPath>
</defs>
</svg>
