<svg width="375" height="162" viewBox="0 0 375 162" fill="none" xmlns="http://www.w3.org/2000/svg">
<g clip-path="url(#clip0_138_17736)">
<path d="M16 38.4C16 24.9587 16 18.2381 18.6158 13.1042C20.9168 8.58834 24.5883 4.9168 29.1042 2.61584C34.2381 0 40.9587 0 54.4 0H320.6C334.041 0 340.762 0 345.896 2.61584C350.412 4.9168 354.083 8.58834 356.384 13.1042C359 18.2381 359 24.9587 359 38.4V123.6C359 137.041 359 143.762 356.384 148.896C354.083 153.412 350.412 157.083 345.896 159.384C340.762 162 334.041 162 320.6 162H54.4C40.9587 162 34.2381 162 29.1042 159.384C24.5883 157.083 20.9168 153.412 18.6158 148.896C16 143.762 16 137.041 16 123.6V38.4Z" fill="#1C1C1E"/>
<g clip-path="url(#clip1_138_17736)">
<g clip-path="url(#clip2_138_17736)">
<g clip-path="url(#clip3_138_17736)">
<mask id="mask0_138_17736" style="mask-type:alpha" maskUnits="userSpaceOnUse" x="179" y="37" width="18" height="26">
<path fill-rule="evenodd" clip-rule="evenodd" d="M191 62.2501H193.917C195.205 62.2501 196.25 61.2054 196.25 59.9167V43.0001C196.25 41.7114 195.205 40.6667 193.917 40.6667H191C192.289 40.6667 193.333 41.7114 193.333 43.0001V59.9167C193.333 61.2054 192.289 62.2501 191 62.2501Z" fill="black"/>
<path fill-rule="evenodd" clip-rule="evenodd" d="M181.083 40.7403C180.077 40.9993 179.333 41.9128 179.333 43.0001V62.2501H191C192.289 62.2501 193.333 61.2054 193.333 59.9167V43.0001C193.333 41.7114 192.289 40.6667 191 40.6667H189.833V41.8334C189.833 42.5907 190.079 43.3276 190.533 43.9334L191.583 45.3334H184H183.417H182.833L182.108 44.6085C181.452 43.9522 181.083 43.0619 181.083 42.1337V40.7403ZM182.25 48.8334C182.25 48.1891 182.772 47.6667 183.417 47.6667H189.25C189.894 47.6667 190.417 48.1891 190.417 48.8334V54.6667C190.417 55.3111 189.894 55.8334 189.25 55.8334H183.417C182.772 55.8334 182.25 55.3111 182.25 54.6667V48.8334Z" fill="url(#paint0_linear_138_17736)"/>
<path fill-rule="evenodd" clip-rule="evenodd" d="M181.083 37.1667H183.417H184H189.833V41.8334C189.833 42.5907 190.079 43.3276 190.533 43.9334L191.583 45.3334H184H183.417H182.833L182.108 44.6085C181.452 43.9522 181.083 43.0619 181.083 42.1337V37.1667Z" fill="url(#paint1_linear_138_17736)"/>
</mask>
<g mask="url(#mask0_138_17736)">
<path d="M173.5 36H201.5V64H173.5V36Z" fill="#6BA4FA"/>
</g>
</g>
</g>
<path d="M187.5 24.8C190.809 24.8 194.086 25.4518 197.144 26.7182C200.201 27.9847 202.979 29.8409 205.319 32.1809C207.659 34.5209 209.515 37.299 210.782 40.3564C212.048 43.4138 212.7 46.6907 212.7 50C212.7 53.3093 212.048 56.5862 210.782 59.6436C209.515 62.701 207.659 65.4791 205.319 67.8191C202.979 70.1591 200.201 72.0153 197.144 73.2818C194.086 74.5482 190.809 75.2 187.5 75.2C184.191 75.2 180.914 74.5482 177.856 73.2818C174.799 72.0153 172.021 70.1591 169.681 67.8191C167.341 65.479 165.485 62.701 164.218 59.6436C162.952 56.5862 162.3 53.3093 162.3 50C162.3 46.6907 162.952 43.4138 164.218 40.3564C165.485 37.299 167.341 34.5209 169.681 32.1809C172.021 29.8409 174.799 27.9846 177.856 26.7182C180.914 25.4518 184.191 24.8 187.5 24.8L187.5 24.8Z" stroke="white" stroke-opacity="0.15" stroke-width="5.6" stroke-linecap="round" stroke-linejoin="round"/>
<path d="M187.5 24.8C192.484 24.8 197.356 26.278 201.5 29.047C205.644 31.816 208.874 35.7517 210.782 40.3564C212.689 44.9611 213.188 50.028 212.216 54.9163C211.243 59.8046 208.843 64.2948 205.319 67.8191C201.795 71.3434 197.305 73.7434 192.416 74.7158C187.528 75.6881 182.461 75.1891 177.856 73.2818C173.252 71.3744 169.316 68.1445 166.547 64.0004C163.778 59.8563 162.3 54.9841 162.3 50" stroke="#428BF9" stroke-width="5.6" stroke-linecap="round" stroke-linejoin="round"/>
</g>
<g clip-path="url(#clip4_138_17736)">
<path d="M91.2291 114V104.089H87.6349V102.022H97.3302V104.089H93.736V114H91.2291ZM102.241 114.191C99.4271 114.191 97.7337 112.406 97.7337 109.435V109.418C97.7337 106.471 99.452 104.662 102.241 104.662C105.03 104.662 106.748 106.463 106.748 109.418V109.435C106.748 112.415 105.055 114.191 102.241 114.191ZM102.241 112.29C103.528 112.29 104.266 111.236 104.266 109.435V109.418C104.266 107.633 103.519 106.562 102.241 106.562C100.954 106.562 100.216 107.633 100.216 109.418V109.435C100.216 111.236 100.946 112.29 102.241 112.29ZM108.48 117.03V104.861H110.904V106.272H111.053C111.526 105.292 112.498 104.711 113.792 104.711C116.075 104.711 117.503 106.504 117.503 109.418V109.435C117.503 112.373 116.108 114.141 113.792 114.141C112.539 114.141 111.518 113.535 111.053 112.539H110.904V117.03H108.48ZM112.962 112.132C114.241 112.132 115.038 111.111 115.038 109.435V109.418C115.038 107.741 114.249 106.72 112.962 106.72C111.684 106.72 110.879 107.741 110.879 109.418V109.435C110.879 111.111 111.692 112.132 112.962 112.132ZM125.576 106.687H121.667V114H119.243V104.861H125.576V106.687ZM130.977 114.191C128.163 114.191 126.47 112.406 126.47 109.435V109.418C126.47 106.471 128.188 104.662 130.977 104.662C133.766 104.662 135.484 106.463 135.484 109.418V109.435C135.484 112.415 133.791 114.191 130.977 114.191ZM130.977 112.29C132.263 112.29 133.002 111.236 133.002 109.435V109.418C133.002 107.633 132.255 106.562 130.977 106.562C129.69 106.562 128.951 107.633 128.951 109.418V109.435C128.951 111.236 129.682 112.29 130.977 112.29ZM137.216 114V104.861H141.789C143.69 104.861 144.811 105.774 144.811 107.168V107.185C144.811 108.165 144.13 108.995 143.167 109.152V109.302C144.396 109.418 145.218 110.265 145.218 111.394V111.41C145.218 112.946 143.948 114 141.873 114H137.216ZM139.598 108.621H141.009C141.947 108.621 142.429 108.214 142.429 107.517V107.5C142.429 106.845 141.997 106.413 141.142 106.413H139.598V108.621ZM139.598 112.439H141.316C142.254 112.439 142.727 111.991 142.727 111.277V111.261C142.727 110.514 142.213 110.107 141.175 110.107H139.598V112.439ZM147.032 114V104.861H149.456V107.517H151.266C153.424 107.517 154.802 108.779 154.802 110.754V110.771C154.802 112.738 153.424 114 151.266 114H147.032ZM156.246 114V104.861H158.67V114H156.246ZM150.842 109.343H149.456V112.174H150.842C151.764 112.174 152.353 111.593 152.353 110.754V110.738C152.353 109.899 151.764 109.343 150.842 109.343ZM165.067 103.624C163.166 103.624 161.904 102.429 161.904 100.735H163.714C163.739 101.615 164.253 102.288 165.067 102.288C165.88 102.288 166.395 101.615 166.411 100.735H168.221C168.221 102.429 166.968 103.624 165.067 103.624ZM160.85 114V104.861H163.232V110.58H163.407L166.893 104.861H169.275V114H166.893V108.214H166.71L163.232 114H160.85ZM178.997 114.199C176.607 114.199 175.013 112.904 174.88 110.979L174.872 110.912H177.138L177.146 110.962C177.354 111.825 178.043 112.298 179.005 112.298C180.151 112.298 180.94 111.443 181.039 110.115H177.669V108.53H181.006C180.881 107.301 180.085 106.562 179.005 106.562C178.026 106.562 177.362 107.11 177.171 107.866L177.146 107.965H174.88L174.897 107.849C175.038 106.006 176.656 104.662 179.005 104.662C181.753 104.662 183.488 106.496 183.488 109.401V109.418C183.488 112.373 181.753 114.199 178.997 114.199ZM188.108 110.173H187.643V114H185.219V104.861H187.643V108.447H188.075L190.798 104.861H193.545L190.075 109.044L193.728 114H190.847L188.108 110.173ZM195.086 114V104.861H199.66C201.56 104.861 202.681 105.774 202.681 107.168V107.185C202.681 108.165 202 108.995 201.037 109.152V109.302C202.266 109.418 203.088 110.265 203.088 111.394V111.41C203.088 112.946 201.818 114 199.743 114H195.086ZM197.468 108.621H198.879C199.817 108.621 200.299 108.214 200.299 107.517V107.5C200.299 106.845 199.867 106.413 199.012 106.413H197.468V108.621ZM197.468 112.439H199.186C200.124 112.439 200.598 111.991 200.598 111.277V111.261C200.598 110.514 200.083 110.107 199.045 110.107H197.468V112.439ZM207.343 114.141C205.6 114.141 204.363 113.062 204.363 111.402V111.385C204.363 109.742 205.633 108.779 207.907 108.646L210.115 108.513V107.758C210.115 106.969 209.576 106.521 208.58 106.521C207.708 106.521 207.152 106.828 206.961 107.368L206.944 107.401H204.703L204.711 107.326C204.902 105.724 206.413 104.662 208.712 104.662C211.136 104.662 212.506 105.807 212.506 107.758V114H210.115V112.788H209.966C209.501 113.635 208.538 114.141 207.343 114.141ZM206.729 111.252C206.729 111.95 207.318 112.373 208.156 112.373C209.277 112.373 210.115 111.634 210.115 110.671V109.999L208.273 110.115C207.235 110.182 206.729 110.572 206.729 111.236V111.252ZM218.853 103.624C216.952 103.624 215.69 102.429 215.69 100.735H217.5C217.525 101.615 218.039 102.288 218.853 102.288C219.666 102.288 220.181 101.615 220.197 100.735H222.007C222.007 102.429 220.754 103.624 218.853 103.624ZM214.636 114V104.861H217.018V110.58H217.193L220.679 104.861H223.061V114H220.679V108.214H220.496L217.018 114H214.636ZM225.249 117.03V104.861H227.673V106.272H227.823C228.296 105.292 229.267 104.711 230.562 104.711C232.845 104.711 234.272 106.504 234.272 109.418V109.435C234.272 112.373 232.878 114.141 230.562 114.141C229.308 114.141 228.287 113.535 227.823 112.539H227.673V117.03H225.249ZM229.732 112.132C231.01 112.132 231.807 111.111 231.807 109.435V109.418C231.807 107.741 231.018 106.72 229.732 106.72C228.453 106.72 227.648 107.741 227.648 109.418V109.435C227.648 111.111 228.462 112.132 229.732 112.132ZM236.012 114V104.861H238.395V110.58H238.569L242.055 104.861H244.438V114H242.055V108.214H241.873L238.395 114H236.012ZM252.528 114V110.223H249.05V114H246.626V104.861H249.05V108.389H252.528V104.861H254.951V114H252.528ZM263.456 106.687H259.547V114H257.123V104.861H263.456V106.687Z" fill="#F6F7F8"/>
<mask id="mask1_138_17736" style="mask-type:alpha" maskUnits="userSpaceOnUse" x="268" y="98" width="21" height="20">
<path fill-rule="evenodd" clip-rule="evenodd" d="M272.077 106.506L273.256 105.327L278.5 110.571L283.744 105.327L284.923 106.506L278.5 112.928L272.077 106.506Z" fill="black"/>
</mask>
<g mask="url(#mask1_138_17736)">
<rect x="268.5" y="98" width="20" height="20" fill="white" fill-opacity="0.3"/>
</g>
</g>
<g clip-path="url(#clip5_138_17736)">
<path d="M127.957 136V125.431H129.261V133.729H129.385L135.113 125.431H136.394V136H135.091V127.731H134.973L129.239 136H127.957ZM146.036 136.139C143.781 136.139 142.418 134.557 142.418 132.082V132.074C142.418 129.635 143.81 127.965 145.956 127.965C148.102 127.965 149.406 129.562 149.406 131.92V132.418H143.722C143.759 134.052 144.659 135.004 146.066 135.004C147.135 135.004 147.794 134.499 148.007 134.022L148.036 133.957H149.31L149.296 134.015C149.025 135.084 147.897 136.139 146.036 136.139ZM145.949 129.101C144.777 129.101 143.883 129.899 143.744 131.4H148.109C147.977 129.84 147.113 129.101 145.949 129.101ZM151.282 136V128.104H152.557V134.945H155.523V128.104H156.797V134.945H159.764V128.104H161.038V134.945H162.313V138.087H161.097V136H151.282ZM166.958 136.139C164.702 136.139 163.34 134.557 163.34 132.082V132.074C163.34 129.635 164.731 127.965 166.877 127.965C169.023 127.965 170.327 129.562 170.327 131.92V132.418H164.643C164.68 134.052 165.581 135.004 166.987 135.004C168.056 135.004 168.716 134.499 168.928 134.022L168.957 133.957H170.232L170.217 134.015C169.946 135.084 168.818 136.139 166.958 136.139ZM166.87 129.101C165.698 129.101 164.804 129.899 164.665 131.4H169.031C168.899 129.84 168.034 129.101 166.87 129.101ZM176.109 136V135.092L179.683 131.225C181.031 129.767 181.427 129.218 181.427 128.295V128.28C181.427 127.167 180.672 126.332 179.427 126.332C178.16 126.332 177.318 127.16 177.318 128.405L177.31 128.419L176.051 128.412L176.036 128.405C176.043 126.53 177.493 125.182 179.515 125.182C181.361 125.182 182.774 126.435 182.774 128.141V128.156C182.774 129.364 182.254 130.243 180.343 132.213L177.94 134.696V134.813H182.95V136H176.109ZM192.211 136.139C189.999 136.139 188.586 134.535 188.586 132.03V132.016C188.586 129.562 189.992 127.965 192.204 127.965C194.123 127.965 195.273 129.071 195.507 130.478L195.514 130.521H194.247L194.24 130.5C194.042 129.723 193.339 129.093 192.204 129.093C190.783 129.093 189.889 130.236 189.889 132.016V132.03C189.889 133.847 190.798 135.011 192.204 135.011C193.266 135.011 193.94 134.542 194.233 133.664L194.247 133.62L195.507 133.612L195.492 133.693C195.17 135.121 194.108 136.139 192.211 136.139ZM200.526 136.139C198.277 136.139 196.886 134.586 196.886 132.06V132.045C196.886 129.511 198.277 127.965 200.526 127.965C202.774 127.965 204.166 129.511 204.166 132.045V132.06C204.166 134.586 202.774 136.139 200.526 136.139ZM200.526 135.011C202.02 135.011 202.862 133.92 202.862 132.06V132.045C202.862 130.177 202.02 129.093 200.526 129.093C199.032 129.093 198.189 130.177 198.189 132.045V132.06C198.189 133.92 199.032 135.011 200.526 135.011ZM209.331 136.146C206.914 136.146 205.655 134.499 205.655 131.334V131.32C205.655 127.13 206.819 125.343 209.639 125.211L210.43 125.175C211.06 125.146 211.807 125.028 212.488 124.75V125.878C212.239 126.112 211.404 126.303 210.488 126.347L209.683 126.383C207.844 126.464 207.046 127.321 206.753 129.474L206.731 129.635H206.848C207.383 128.69 208.328 128.178 209.522 128.178C211.646 128.178 213.008 129.694 213.008 132.074V132.089C213.008 134.594 211.609 136.146 209.331 136.146ZM209.331 135.019C210.84 135.019 211.704 133.942 211.704 132.089V132.074C211.704 130.309 210.84 129.306 209.331 129.306C207.822 129.306 206.958 130.309 206.958 132.074V132.089C206.958 133.942 207.822 135.019 209.331 135.019ZM214.885 136V128.104H216.159V130.639H217.705C219.514 130.639 220.671 131.679 220.671 133.312V133.327C220.671 134.96 219.514 136 217.705 136H214.885ZM222.048 136V128.104H223.322V136H222.048ZM217.705 131.693H216.159V134.945H217.705C218.745 134.945 219.396 134.301 219.396 133.327V133.312C219.396 132.331 218.737 131.693 217.705 131.693ZM231.307 128.104V129.159H228.751V136H227.477V129.159H224.921V128.104H231.307ZM232.906 136V128.104H234.18V133.993H234.297L238.201 128.104H239.476V136H238.201V130.111H238.084L234.18 136H232.906ZM245.937 136V133.173H244.597L242.583 136H241.081L243.286 132.938C242.173 132.624 241.499 131.803 241.499 130.727V130.712C241.499 129.093 242.656 128.104 244.465 128.104H247.212V136H245.937ZM244.465 132.118H245.937V129.159H244.465C243.425 129.159 242.802 129.73 242.802 130.683V130.697C242.802 131.525 243.432 132.118 244.465 132.118Z" fill="#9299A2"/>
</g>
</g>
<defs>
<linearGradient id="paint0_linear_138_17736" x1="193.333" y1="61.6667" x2="180.339" y2="41.7604" gradientUnits="userSpaceOnUse">
<stop stop-opacity="0.5"/>
<stop offset="1" stop-opacity="0.8"/>
</linearGradient>
<linearGradient id="paint1_linear_138_17736" x1="188.82" y1="45.3334" x2="188.82" y2="37.1667" gradientUnits="userSpaceOnUse">
<stop stop-opacity="0.15"/>
<stop offset="1" stop-opacity="0.5"/>
</linearGradient>
<clipPath id="clip0_138_17736">
<path d="M16 38.4C16 24.9587 16 18.2381 18.6158 13.1042C20.9168 8.58834 24.5883 4.9168 29.1042 2.61584C34.2381 0 40.9587 0 54.4 0H320.6C334.041 0 340.762 0 345.896 2.61584C350.412 4.9168 354.083 8.58834 356.384 13.1042C359 18.2381 359 24.9587 359 38.4V123.6C359 137.041 359 143.762 356.384 148.896C354.083 153.412 350.412 157.083 345.896 159.384C340.762 162 334.041 162 320.6 162H54.4C40.9587 162 34.2381 162 29.1042 159.384C24.5883 157.083 20.9168 153.412 18.6158 148.896C16 143.762 16 137.041 16 123.6V38.4Z" fill="white"/>
</clipPath>
<clipPath id="clip1_138_17736">
<rect x="159.5" y="22" width="56" height="56" rx="28" fill="white"/>
</clipPath>
<clipPath id="clip2_138_17736">
<rect width="56" height="56" fill="white" transform="translate(159.5 22)"/>
</clipPath>
<clipPath id="clip3_138_17736">
<rect width="56" height="56" fill="white" transform="translate(159.5 22)"/>
</clipPath>
<clipPath id="clip4_138_17736">
<rect width="311" height="20" fill="white" transform="translate(32 98)"/>
</clipPath>
<clipPath id="clip5_138_17736">
<rect width="311" height="16" fill="white" transform="translate(32 122)"/>
</clipPath>
</defs>
</svg>
