<svg width="351" height="74" viewBox="0 0 351 74" fill="none" xmlns="http://www.w3.org/2000/svg">
<g clip-path="url(#clip0_2172_166527)">
<rect width="351" height="74" rx="32" fill="white" fill-opacity="0.1"/>
<rect width="351" height="74" fill="black" fill-opacity="0.01"/>
<g clip-path="url(#clip1_2172_166527)">
<path d="M28.417 29H27.2744V20.8687H22.374V29H21.2314V19.8403H28.417V29ZM30.6602 31.2852V22.1572H31.7647V23.249H31.8663C32.2852 22.4873 33.047 22.0366 33.9991 22.0366C35.732 22.0366 36.8682 23.4395 36.8682 25.5723V25.585C36.8682 27.7305 35.7384 29.1206 33.9991 29.1206C33.0596 29.1206 32.2408 28.6509 31.8663 27.9209H31.7647V31.2852H30.6602ZM33.7452 28.1431C34.9957 28.1431 35.7384 27.1782 35.7384 25.585V25.5723C35.7384 23.979 34.9957 23.0142 33.7452 23.0142C32.5011 23.0142 31.7393 23.9917 31.7393 25.5723V25.585C31.7393 27.1655 32.5011 28.1431 33.7452 28.1431ZM41.4538 29.1206C39.505 29.1206 38.299 27.7749 38.299 25.585V25.5723C38.299 23.376 39.505 22.0366 41.4538 22.0366C43.4025 22.0366 44.6086 23.376 44.6086 25.5723V25.585C44.6086 27.7749 43.4025 29.1206 41.4538 29.1206ZM41.4538 28.1431C42.7487 28.1431 43.4787 27.1973 43.4787 25.585V25.5723C43.4787 23.9536 42.7487 23.0142 41.4538 23.0142C40.1588 23.0142 39.4289 23.9536 39.4289 25.5723V25.585C39.4289 27.1973 40.1588 28.1431 41.4538 28.1431ZM46.363 29V22.1572H49.2639C50.5588 22.1572 51.3142 22.8618 51.3142 23.9346V23.9473C51.3142 24.6265 50.8381 25.2676 50.197 25.4009V25.5024C51.0666 25.623 51.6189 26.2324 51.6189 27.0259V27.0386C51.6189 28.2256 50.7493 29 49.2766 29H46.363ZM47.4675 25.0518H48.9275C49.8162 25.0518 50.2161 24.709 50.2161 24.0615V24.0488C50.2161 23.4648 49.8733 23.0713 49.1052 23.0713H47.4675V25.0518ZM47.4675 28.0859H49.2322C50.0701 28.0859 50.4954 27.7051 50.4954 27.0195V27.0068C50.4954 26.2832 50.0066 25.9658 49.0227 25.9658H47.4675V28.0859ZM56.1409 29.1206C54.1859 29.1206 53.0052 27.7495 53.0052 25.604V25.5977C53.0052 23.4839 54.2113 22.0366 56.0711 22.0366C57.931 22.0366 59.0609 23.4204 59.0609 25.4644V25.896H54.1351C54.1668 27.3115 54.9476 28.1367 56.1663 28.1367C57.0931 28.1367 57.6644 27.6987 57.8485 27.2861L57.8738 27.229H58.9783L58.9656 27.2798C58.7308 28.2065 57.7532 29.1206 56.1409 29.1206ZM56.0648 23.0205C55.0491 23.0205 54.2747 23.7124 54.1541 25.0137H57.9373C57.8231 23.6616 57.074 23.0205 56.0648 23.0205ZM60.8217 31.2852V22.1572H61.9262V23.249H62.0277C62.4467 22.4873 63.2084 22.0366 64.1605 22.0366C65.8935 22.0366 67.0297 23.4395 67.0297 25.5723V25.585C67.0297 27.7305 65.8998 29.1206 64.1605 29.1206C63.2211 29.1206 62.4022 28.6509 62.0277 27.9209H61.9262V31.2852H60.8217ZM63.9066 28.1431C65.1571 28.1431 65.8998 27.1782 65.8998 25.585V25.5723C65.8998 23.979 65.1571 23.0142 63.9066 23.0142C62.6625 23.0142 61.9008 23.9917 61.9008 25.5723V25.585C61.9008 27.1655 62.6625 28.1431 63.9066 28.1431ZM70.2505 25.8833H69.9013V29H68.7969V22.1572H69.9013V25.02H70.2505L72.8974 22.1572H74.2241L71.1455 25.3818L74.3447 29H72.9292L70.2505 25.8833ZM77.483 29.1206C76.1817 29.1206 75.1978 28.3335 75.1978 27.0894V27.0767C75.1978 25.8579 76.0992 25.1533 77.6924 25.0581L79.6539 24.9375V24.3154C79.6539 23.4712 79.1397 23.0142 78.1177 23.0142C77.2989 23.0142 76.7593 23.3188 76.5816 23.8521L76.5753 23.8711H75.4708L75.4771 23.833C75.6548 22.7603 76.6959 22.0366 78.1558 22.0366C79.8253 22.0366 80.7584 22.8936 80.7584 24.3154V29H79.6539V27.9907H79.5523C79.1207 28.7207 78.4034 29.1206 77.483 29.1206ZM76.3277 27.064C76.3277 27.7559 76.918 28.1621 77.7115 28.1621C78.835 28.1621 79.6539 27.4258 79.6539 26.4482V25.8262L77.8257 25.9404C76.7847 26.0039 76.3277 26.3721 76.3277 27.0513V27.064ZM89.2439 29.127C87.1491 29.127 86.0573 27.6987 86.0573 24.9565V24.9438C86.0573 21.313 87.0666 19.7642 89.5105 19.6499L90.196 19.6182C90.7419 19.5928 91.3894 19.4912 91.9797 19.25V20.2275C91.7639 20.4307 91.0403 20.5957 90.2468 20.6338L89.5486 20.6655C87.9553 20.7354 87.2634 21.478 87.0095 23.3442L86.9904 23.4839H87.092C87.5554 22.665 88.3742 22.2207 89.4089 22.2207C91.2497 22.2207 92.4304 23.5347 92.4304 25.5977V25.6104C92.4304 27.7812 91.218 29.127 89.2439 29.127ZM89.2439 28.1494C90.5515 28.1494 91.3005 27.2163 91.3005 25.6104V25.5977C91.3005 24.0679 90.5515 23.1982 89.2439 23.1982C87.9362 23.1982 87.1872 24.0679 87.1872 25.5977V25.6104C87.1872 27.2163 87.9362 28.1494 89.2439 28.1494ZM94.1849 29V22.1572H95.2894V27.2607H95.3909L98.7742 22.1572H99.8787V29H98.7742V23.8965H98.6727L95.2894 29H94.1849ZM104.306 29.127C102.846 29.127 101.735 28.4033 101.595 27.2988L101.589 27.248H102.712L102.725 27.2988C102.865 27.8574 103.474 28.2129 104.306 28.2129C105.315 28.2129 105.912 27.7241 105.912 27.0449V27.0322C105.912 26.2896 105.353 25.9468 104.306 25.9468H103.239V25.0327H104.306C105.182 25.0327 105.67 24.6836 105.67 23.9727V23.96C105.67 23.376 105.22 22.9443 104.344 22.9443C103.563 22.9443 102.973 23.2935 102.865 23.8394L102.858 23.8711H101.779L101.786 23.8267C101.944 22.7285 102.947 22.0303 104.344 22.0303C105.873 22.0303 106.749 22.7856 106.749 23.8774V23.8901C106.749 24.582 106.299 25.2104 105.62 25.3691V25.4707C106.521 25.6675 106.997 26.2134 106.997 26.9751V26.9878C106.997 28.2573 105.899 29.127 104.306 29.127ZM113.246 29V25.9023H109.856V29H108.751V22.1572H109.856V24.9883H113.246V22.1572H114.35V29H113.246ZM119.24 29.1206C117.285 29.1206 116.105 27.7495 116.105 25.604V25.5977C116.105 23.4839 117.311 22.0366 119.17 22.0366C121.03 22.0366 122.16 23.4204 122.16 25.4644V25.896H117.234C117.266 27.3115 118.047 28.1367 119.266 28.1367C120.192 28.1367 120.764 27.6987 120.948 27.2861L120.973 27.229H122.078L122.065 27.2798C121.83 28.2065 120.853 29.1206 119.24 29.1206ZM119.164 23.0205C118.148 23.0205 117.374 23.7124 117.253 25.0137H121.037C120.922 23.6616 120.173 23.0205 119.164 23.0205ZM126.72 29.1206C124.803 29.1206 123.578 27.7305 123.578 25.5596V25.5469C123.578 23.4204 124.797 22.0366 126.714 22.0366C128.377 22.0366 129.374 22.9951 129.577 24.2139L129.583 24.252H128.485L128.479 24.2329C128.307 23.5601 127.698 23.0142 126.714 23.0142C125.483 23.0142 124.708 24.0044 124.708 25.5469V25.5596C124.708 27.1338 125.495 28.1431 126.714 28.1431C127.634 28.1431 128.218 27.7368 128.472 26.9751L128.485 26.937L129.577 26.9307L129.564 27.0005C129.285 28.2383 128.364 29.1206 126.72 29.1206ZM133.121 29.1206C131.82 29.1206 130.836 28.3335 130.836 27.0894V27.0767C130.836 25.8579 131.738 25.1533 133.331 25.0581L135.292 24.9375V24.3154C135.292 23.4712 134.778 23.0142 133.756 23.0142C132.937 23.0142 132.398 23.3188 132.22 23.8521L132.214 23.8711H131.109L131.115 23.833C131.293 22.7603 132.334 22.0366 133.794 22.0366C135.464 22.0366 136.397 22.8936 136.397 24.3154V29H135.292V27.9907H135.191C134.759 28.7207 134.042 29.1206 133.121 29.1206ZM131.966 27.064C131.966 27.7559 132.556 28.1621 133.35 28.1621C134.473 28.1621 135.292 27.4258 135.292 26.4482V25.8262L133.464 25.9404C132.423 26.0039 131.966 26.3721 131.966 27.0513V27.064Z" fill="#9299A2"/>
<path d="M25.7861 54.2637C22.7905 54.2637 20.9302 52.1396 20.9302 48.7266V48.7119C20.9302 45.2842 22.7832 43.1675 25.7788 43.1675C28.1812 43.1675 30.0049 44.6909 30.2539 46.8516V46.9102H28.4009L28.3936 46.8809C28.1226 45.6284 27.1118 44.8008 25.7788 44.8008C23.9844 44.8008 22.8638 46.3022 22.8638 48.7046V48.7192C22.8638 51.1289 23.9844 52.6304 25.7861 52.6304C27.1265 52.6304 28.1226 51.8833 28.3936 50.7188L28.4009 50.6821H30.2539V50.7334C29.9756 52.8501 28.2251 54.2637 25.7861 54.2637ZM37.9827 45.9946V47.4082H35.5144V54H33.6907V47.4082H31.2297V45.9946H37.9827ZM41.522 54.1318C39.9985 54.1318 38.8926 53.1943 38.8926 51.7368V51.7222C38.8926 50.2939 39.9839 49.459 41.9321 49.3418L43.9902 49.2173V48.5288C43.9902 47.7305 43.4702 47.291 42.4888 47.291C41.6538 47.291 41.1118 47.5913 40.9287 48.1187L40.9214 48.1479H39.2002L39.2075 48.082C39.3833 46.7344 40.6723 45.8408 42.5766 45.8408C44.6347 45.8408 45.792 46.8369 45.792 48.5288V54H43.9902V52.9014H43.8657C43.4263 53.6777 42.5766 54.1318 41.522 54.1318ZM40.6943 51.6489C40.6943 52.3301 41.2729 52.7329 42.0786 52.7329C43.1772 52.7329 43.9902 52.0151 43.9902 51.063V50.4185L42.1885 50.5356C41.1704 50.6016 40.6943 50.9751 40.6943 51.6343V51.6489ZM53.9968 45.9946V47.4082H51.5285V54H49.7048V47.4082H47.2439V45.9946H53.9968ZM56.313 56.8125C56.0932 56.8125 55.8369 56.8052 55.6171 56.7832V55.3843C55.7636 55.3989 55.9687 55.4062 56.1591 55.4062C56.9062 55.4062 57.353 55.0986 57.5507 54.3735L57.646 54.0073L54.7822 45.9946H56.7744L58.6421 52.2495H58.7812L60.6416 45.9946H62.5605L59.6894 54.1685C59.0009 56.1753 58.0854 56.8125 56.313 56.8125ZM67.1472 54.1611C64.7375 54.1611 63.3166 52.6011 63.3166 49.9863V49.9717C63.3166 47.3862 64.7302 45.8408 67.1398 45.8408C69.1979 45.8408 70.4284 46.9834 70.6335 48.6387V48.668H68.9123L68.905 48.646C68.7365 47.8696 68.1433 47.313 67.1472 47.313C65.9021 47.313 65.1696 48.2944 65.1696 49.9717V49.9863C65.1696 51.6855 65.9094 52.6816 67.1472 52.6816C68.092 52.6816 68.6706 52.2495 68.8977 51.4072L68.9123 51.3779L70.6335 51.3706L70.6188 51.4292C70.3552 53.0698 69.176 54.1611 67.1472 54.1611ZM76.0275 54V45.9946H79.8141C81.4255 45.9946 82.3703 46.8076 82.3703 48.0381V48.0527C82.3703 48.8877 81.7917 49.6274 80.9787 49.7666V49.8911C82.0334 50.0083 82.7292 50.7407 82.7292 51.7075V51.7222C82.7292 53.0845 81.6452 54 79.8654 54H76.0275ZM77.8293 49.3198H79.2355C80.1364 49.3198 80.5759 48.9536 80.5759 48.2871V48.2725C80.5759 47.6646 80.1877 47.2544 79.382 47.2544H77.8293V49.3198ZM77.8293 52.7402H79.5358C80.4147 52.7402 80.8615 52.3301 80.8615 51.6416V51.627C80.8615 50.9019 80.3635 50.543 79.3674 50.543H77.8293V52.7402ZM84.518 54V45.9946H86.3197V51.356H86.4662L89.8427 45.9946H91.6445V54H89.8427V48.6094H89.6889L86.3197 54H84.518ZM94.5246 56.0874H92.8546V52.5718H93.4845C94.0778 52.2202 94.3268 51.2754 94.4001 50.1987L94.6784 45.9946H100.706V52.5718H101.937V56.0874H100.267V54H94.5246V56.0874ZM98.8752 52.5718V47.4229H96.2384L96.0334 50.2939C95.9674 51.1729 95.7843 51.9419 95.4328 52.4473V52.5718H98.8752ZM104.568 54H102.422L105.542 49.7153L102.568 45.9946H104.634L107.007 49.2393H107.454V45.9946H109.226V49.2393H109.673L112.053 45.9946H114.104L111.145 49.6934L114.272 54H112.119L109.695 50.5137H109.226V54H107.454V50.5137H106.992L104.568 54ZM118.727 54.1611C116.347 54.1611 114.904 52.5645 114.904 50.0156V50.0083C114.904 47.4888 116.361 45.8408 118.639 45.8408C120.917 45.8408 122.323 47.4375 122.323 49.8545V50.4551H116.728C116.75 51.8906 117.526 52.7256 118.764 52.7256C119.753 52.7256 120.317 52.2275 120.492 51.8613L120.514 51.8101H122.25L122.228 51.876C121.972 52.9087 120.902 54.1611 118.727 54.1611ZM118.661 47.269C117.643 47.269 116.881 47.9575 116.742 49.2319H120.544C120.419 47.9209 119.679 47.269 118.661 47.269ZM129.737 45.9946V47.4082H127.269V54H125.445V47.4082H122.984V45.9946H129.737ZM133.276 54.1318C131.753 54.1318 130.647 53.1943 130.647 51.7368V51.7222C130.647 50.2939 131.738 49.459 133.687 49.3418L135.745 49.2173V48.5288C135.745 47.7305 135.225 47.291 134.243 47.291C133.408 47.291 132.866 47.5913 132.683 48.1187L132.676 48.1479H130.955L130.962 48.082C131.138 46.7344 132.427 45.8408 134.331 45.8408C136.389 45.8408 137.547 46.8369 137.547 48.5288V54H135.745V52.9014H135.62C135.181 53.6777 134.331 54.1318 133.276 54.1318ZM132.449 51.6489C132.449 52.3301 133.027 52.7329 133.833 52.7329C134.932 52.7329 135.745 52.0151 135.745 51.063V50.4185L133.943 50.5356C132.925 50.6016 132.449 50.9751 132.449 51.6343V51.6489ZM143.395 54V45.9946H145.196V51.356H145.343L148.719 45.9946H150.521V54H148.719V48.6094H148.566L145.196 54H143.395ZM159.841 54.1611C157.461 54.1611 156.018 52.5645 156.018 50.0156V50.0083C156.018 47.4888 157.475 45.8408 159.753 45.8408C162.031 45.8408 163.437 47.4375 163.437 49.8545V50.4551H157.841C157.863 51.8906 158.64 52.7256 159.878 52.7256C160.866 52.7256 161.43 52.2275 161.606 51.8613L161.628 51.8101H163.364L163.342 51.876C163.086 52.9087 162.016 54.1611 159.841 54.1611ZM159.775 47.269C158.757 47.269 157.995 47.9575 157.856 49.2319H161.657C161.533 47.9209 160.793 47.269 159.775 47.269ZM170.558 47.4082H166.984V54H165.16V45.9946H170.558V47.4082ZM175.372 54.1611C172.969 54.1611 171.519 52.5938 171.519 50.001V49.9863C171.519 47.4155 172.991 45.8408 175.372 45.8408C177.759 45.8408 179.224 47.4082 179.224 49.9863V50.001C179.224 52.5938 177.767 54.1611 175.372 54.1611ZM175.372 52.6816C176.639 52.6816 177.357 51.6929 177.357 50.0083V49.9937C177.357 48.3091 176.631 47.313 175.372 47.313C174.105 47.313 173.379 48.3091 173.379 49.9937V50.0083C173.379 51.6929 174.105 52.6816 175.372 52.6816ZM188.178 54.1611C185.775 54.1611 184.325 52.5938 184.325 50.001V49.9863C184.325 47.4155 185.797 45.8408 188.178 45.8408C190.565 45.8408 192.03 47.4082 192.03 49.9863V50.001C192.03 52.5938 190.573 54.1611 188.178 54.1611ZM188.178 52.6816C189.445 52.6816 190.163 51.6929 190.163 50.0083V49.9937C190.163 48.3091 189.438 47.313 188.178 47.313C186.911 47.313 186.186 48.3091 186.186 49.9937V50.0083C186.186 51.6929 186.911 52.6816 188.178 52.6816ZM193.761 54V45.9946H200.711V54H198.887V47.4082H195.584V54H193.761ZM202.837 54V45.9946H204.639V51.356H204.785L208.162 45.9946H209.963V54H208.162V48.6094H208.008L204.639 54H202.837ZM215.532 54.1611C213.122 54.1611 211.701 52.6011 211.701 49.9863V49.9717C211.701 47.3862 213.115 45.8408 215.524 45.8408C217.582 45.8408 218.813 46.9834 219.018 48.6387V48.668H217.297L217.289 48.646C217.121 47.8696 216.528 47.313 215.532 47.313C214.286 47.313 213.554 48.2944 213.554 49.9717V49.9863C213.554 51.6855 214.294 52.6816 215.532 52.6816C216.476 52.6816 217.055 52.2495 217.282 51.4072L217.297 51.3779L219.018 51.3706L219.003 51.4292C218.74 53.0698 217.56 54.1611 215.532 54.1611ZM222.843 54.1318C221.319 54.1318 220.213 53.1943 220.213 51.7368V51.7222C220.213 50.2939 221.305 49.459 223.253 49.3418L225.311 49.2173V48.5288C225.311 47.7305 224.791 47.291 223.81 47.291C222.975 47.291 222.433 47.5913 222.25 48.1187L222.242 48.1479H220.521L220.528 48.082C220.704 46.7344 221.993 45.8408 223.897 45.8408C225.956 45.8408 227.113 46.8369 227.113 48.5288V54H225.311V52.9014H225.187C224.747 53.6777 223.897 54.1318 222.843 54.1318ZM222.015 51.6489C222.015 52.3301 222.594 52.7329 223.399 52.7329C224.498 52.7329 225.311 52.0151 225.311 51.063V50.4185L223.509 50.5356C222.491 50.6016 222.015 50.9751 222.015 51.6343V51.6489ZM234.402 54V50.5796H231.026V54H229.202V45.9946H231.026V49.166H234.402V45.9946H236.226V54H234.402ZM238.352 54V45.9946H240.153V51.356H240.3L243.676 45.9946H245.478V54H243.676V48.6094H243.522L240.153 54H238.352ZM251.039 54.1611C248.658 54.1611 247.216 52.5645 247.216 50.0156V50.0083C247.216 47.4888 248.673 45.8408 250.951 45.8408C253.229 45.8408 254.635 47.4375 254.635 49.8545V50.4551H249.039C249.061 51.8906 249.838 52.7256 251.075 52.7256C252.064 52.7256 252.628 52.2275 252.804 51.8613L252.826 51.8101H254.562L254.54 51.876C254.283 52.9087 253.214 54.1611 251.039 54.1611ZM250.973 47.269C249.955 47.269 249.193 47.9575 249.054 49.2319H252.855C252.731 47.9209 251.991 47.269 250.973 47.269Z" fill="url(#paint0_linear_2172_166527)"/>
</g>
<g clip-path="url(#clip2_2172_166527)">
<g clip-path="url(#clip3_2172_166527)">
<g clip-path="url(#clip4_2172_166527)">
<mask id="mask0_2172_166527" style="mask-type:alpha" maskUnits="userSpaceOnUse" x="305" y="27" width="20" height="18">
<path d="M315.651 27.4962C315.392 26.9466 314.617 26.9466 314.35 27.4962L312.216 32.9014L306.472 33.0846C305.855 33.1513 305.614 33.9175 306.072 34.3339L310.491 37.8818L309.057 43.3036C308.932 43.9033 309.565 44.3697 310.107 44.0782L315.001 40.9633L319.894 44.0782C320.428 44.3697 321.061 43.9033 320.945 43.3036L319.511 37.8818L323.929 34.3339C324.388 33.9175 324.146 33.1596 323.529 33.0846L317.785 32.9014L315.651 27.4962Z" fill="url(#paint1_linear_2172_166527)"/>
</mask>
<g mask="url(#mask0_2172_166527)">
<path d="M305 26H325V46H305V26Z" fill="white"/>
</g>
</g>
</g>
<path d="M315 18C317.364 18 319.704 18.4656 321.888 19.3702C324.072 20.2748 326.056 21.6006 327.728 23.2721C329.399 24.9435 330.725 26.9278 331.63 29.1117C332.534 31.2956 333 33.6362 333 36C333 38.3638 332.534 40.7044 331.63 42.8883C330.725 45.0722 329.399 47.0565 327.728 48.7279C326.056 50.3994 324.072 51.7252 321.888 52.6298C319.704 53.5344 317.364 54 315 54C312.636 54 310.296 53.5344 308.112 52.6298C305.928 51.7252 303.944 50.3994 302.272 48.7279C300.601 47.0565 299.275 45.0722 298.37 42.8883C297.466 40.7044 297 38.3638 297 36C297 33.6362 297.466 31.2955 298.37 29.1117C299.275 26.9278 300.601 24.9435 302.272 23.2721C303.944 21.6006 305.928 20.2747 308.112 19.3702C310.296 18.4656 312.636 18 315 18L315 18Z" stroke="white" stroke-opacity="0.15" stroke-width="4" stroke-linecap="round" stroke-linejoin="round"/>
<path d="M315 18C318.801 18 322.505 19.2034 325.58 21.4377C328.655 23.672 330.944 26.8225 332.119 30.4377" stroke="white" stroke-width="4" stroke-linecap="round" stroke-linejoin="round"/>
</g>
</g>
<rect x="0.5" y="0.5" width="350" height="73" rx="31.5" stroke="white" stroke-opacity="0.1"/>
<defs>
<linearGradient id="paint0_linear_2172_166527" x1="240.318" y1="40" x2="279" y2="40" gradientUnits="userSpaceOnUse">
<stop stop-color="#F6F7F8"/>
<stop offset="1" stop-color="#F6F7F8" stop-opacity="0"/>
</linearGradient>
<linearGradient id="paint1_linear_2172_166527" x1="309.682" y1="32.5766" x2="319.677" y2="41.3229" gradientUnits="userSpaceOnUse">
<stop/>
<stop offset="1" stop-opacity="0.65"/>
</linearGradient>
<clipPath id="clip0_2172_166527">
<rect width="351" height="74" rx="32" fill="white"/>
</clipPath>
<clipPath id="clip1_2172_166527">
<rect width="259" height="42" fill="white" transform="translate(20 16)"/>
</clipPath>
<clipPath id="clip2_2172_166527">
<rect x="295" y="16" width="40" height="40" rx="20" fill="white"/>
</clipPath>
<clipPath id="clip3_2172_166527">
<rect width="40" height="40" fill="white" transform="translate(295 16)"/>
</clipPath>
<clipPath id="clip4_2172_166527">
<rect width="40" height="40" fill="white" transform="translate(295 16)"/>
</clipPath>
</defs>
</svg>
