<svg width="351" height="74" viewBox="0 0 351 74" fill="none" xmlns="http://www.w3.org/2000/svg">
<g clip-path="url(#clip0_2171_118111)">
<rect width="351" height="74" rx="32" fill="white" fill-opacity="0.1"/>
<circle cx="251" cy="38" r="176" fill="url(#paint0_radial_2171_118111)" fill-opacity="0.08"/>
<rect width="351" height="74" fill="black" fill-opacity="0.01"/>
<g clip-path="url(#clip1_2171_118111)">
<path d="M28.417 29H27.2744V20.8687H22.374V29H21.2314V19.8403H28.417V29ZM30.6602 31.2852V22.1572H31.7647V23.249H31.8663C32.2852 22.4873 33.047 22.0366 33.9991 22.0366C35.732 22.0366 36.8682 23.4395 36.8682 25.5723V25.585C36.8682 27.7305 35.7384 29.1206 33.9991 29.1206C33.0596 29.1206 32.2408 28.6509 31.8663 27.9209H31.7647V31.2852H30.6602ZM33.7452 28.1431C34.9957 28.1431 35.7384 27.1782 35.7384 25.585V25.5723C35.7384 23.979 34.9957 23.0142 33.7452 23.0142C32.5011 23.0142 31.7393 23.9917 31.7393 25.5723V25.585C31.7393 27.1655 32.5011 28.1431 33.7452 28.1431ZM41.4538 29.1206C39.505 29.1206 38.299 27.7749 38.299 25.585V25.5723C38.299 23.376 39.505 22.0366 41.4538 22.0366C43.4025 22.0366 44.6086 23.376 44.6086 25.5723V25.585C44.6086 27.7749 43.4025 29.1206 41.4538 29.1206ZM41.4538 28.1431C42.7487 28.1431 43.4787 27.1973 43.4787 25.585V25.5723C43.4787 23.9536 42.7487 23.0142 41.4538 23.0142C40.1588 23.0142 39.4289 23.9536 39.4289 25.5723V25.585C39.4289 27.1973 40.1588 28.1431 41.4538 28.1431ZM46.363 29V22.1572H49.2639C50.5588 22.1572 51.3142 22.8618 51.3142 23.9346V23.9473C51.3142 24.6265 50.8381 25.2676 50.197 25.4009V25.5024C51.0666 25.623 51.6189 26.2324 51.6189 27.0259V27.0386C51.6189 28.2256 50.7493 29 49.2766 29H46.363ZM47.4675 25.0518H48.9275C49.8162 25.0518 50.2161 24.709 50.2161 24.0615V24.0488C50.2161 23.4648 49.8733 23.0713 49.1052 23.0713H47.4675V25.0518ZM47.4675 28.0859H49.2322C50.0701 28.0859 50.4954 27.7051 50.4954 27.0195V27.0068C50.4954 26.2832 50.0066 25.9658 49.0227 25.9658H47.4675V28.0859ZM56.1409 29.1206C54.1859 29.1206 53.0052 27.7495 53.0052 25.604V25.5977C53.0052 23.4839 54.2113 22.0366 56.0711 22.0366C57.931 22.0366 59.0609 23.4204 59.0609 25.4644V25.896H54.1351C54.1668 27.3115 54.9476 28.1367 56.1663 28.1367C57.0931 28.1367 57.6644 27.6987 57.8485 27.2861L57.8738 27.229H58.9783L58.9656 27.2798C58.7308 28.2065 57.7532 29.1206 56.1409 29.1206ZM56.0648 23.0205C55.0491 23.0205 54.2747 23.7124 54.1541 25.0137H57.9373C57.8231 23.6616 57.074 23.0205 56.0648 23.0205ZM60.8217 31.2852V22.1572H61.9262V23.249H62.0277C62.4467 22.4873 63.2084 22.0366 64.1605 22.0366C65.8935 22.0366 67.0297 23.4395 67.0297 25.5723V25.585C67.0297 27.7305 65.8998 29.1206 64.1605 29.1206C63.2211 29.1206 62.4022 28.6509 62.0277 27.9209H61.9262V31.2852H60.8217ZM63.9066 28.1431C65.1571 28.1431 65.8998 27.1782 65.8998 25.585V25.5723C65.8998 23.979 65.1571 23.0142 63.9066 23.0142C62.6625 23.0142 61.9008 23.9917 61.9008 25.5723V25.585C61.9008 27.1655 62.6625 28.1431 63.9066 28.1431ZM70.2505 25.8833H69.9013V29H68.7969V22.1572H69.9013V25.02H70.2505L72.8974 22.1572H74.2241L71.1455 25.3818L74.3447 29H72.9292L70.2505 25.8833ZM77.483 29.1206C76.1817 29.1206 75.1978 28.3335 75.1978 27.0894V27.0767C75.1978 25.8579 76.0992 25.1533 77.6924 25.0581L79.6539 24.9375V24.3154C79.6539 23.4712 79.1397 23.0142 78.1177 23.0142C77.2989 23.0142 76.7593 23.3188 76.5816 23.8521L76.5753 23.8711H75.4708L75.4771 23.833C75.6548 22.7603 76.6959 22.0366 78.1558 22.0366C79.8253 22.0366 80.7584 22.8936 80.7584 24.3154V29H79.6539V27.9907H79.5523C79.1207 28.7207 78.4034 29.1206 77.483 29.1206ZM76.3277 27.064C76.3277 27.7559 76.918 28.1621 77.7115 28.1621C78.835 28.1621 79.6539 27.4258 79.6539 26.4482V25.8262L77.8257 25.9404C76.7847 26.0039 76.3277 26.3721 76.3277 27.0513V27.064ZM89.2439 29.127C87.1491 29.127 86.0573 27.6987 86.0573 24.9565V24.9438C86.0573 21.313 87.0666 19.7642 89.5105 19.6499L90.196 19.6182C90.7419 19.5928 91.3894 19.4912 91.9797 19.25V20.2275C91.7639 20.4307 91.0403 20.5957 90.2468 20.6338L89.5486 20.6655C87.9553 20.7354 87.2634 21.478 87.0095 23.3442L86.9904 23.4839H87.092C87.5554 22.665 88.3742 22.2207 89.4089 22.2207C91.2497 22.2207 92.4304 23.5347 92.4304 25.5977V25.6104C92.4304 27.7812 91.218 29.127 89.2439 29.127ZM89.2439 28.1494C90.5515 28.1494 91.3005 27.2163 91.3005 25.6104V25.5977C91.3005 24.0679 90.5515 23.1982 89.2439 23.1982C87.9362 23.1982 87.1872 24.0679 87.1872 25.5977V25.6104C87.1872 27.2163 87.9362 28.1494 89.2439 28.1494ZM94.1849 29V22.1572H95.2894V27.2607H95.3909L98.7742 22.1572H99.8787V29H98.7742V23.8965H98.6727L95.2894 29H94.1849ZM104.306 29.127C102.846 29.127 101.735 28.4033 101.595 27.2988L101.589 27.248H102.712L102.725 27.2988C102.865 27.8574 103.474 28.2129 104.306 28.2129C105.315 28.2129 105.912 27.7241 105.912 27.0449V27.0322C105.912 26.2896 105.353 25.9468 104.306 25.9468H103.239V25.0327H104.306C105.182 25.0327 105.67 24.6836 105.67 23.9727V23.96C105.67 23.376 105.22 22.9443 104.344 22.9443C103.563 22.9443 102.973 23.2935 102.865 23.8394L102.858 23.8711H101.779L101.786 23.8267C101.944 22.7285 102.947 22.0303 104.344 22.0303C105.873 22.0303 106.749 22.7856 106.749 23.8774V23.8901C106.749 24.582 106.299 25.2104 105.62 25.3691V25.4707C106.521 25.6675 106.997 26.2134 106.997 26.9751V26.9878C106.997 28.2573 105.899 29.127 104.306 29.127ZM113.246 29V25.9023H109.856V29H108.751V22.1572H109.856V24.9883H113.246V22.1572H114.35V29H113.246ZM119.24 29.1206C117.285 29.1206 116.105 27.7495 116.105 25.604V25.5977C116.105 23.4839 117.311 22.0366 119.17 22.0366C121.03 22.0366 122.16 23.4204 122.16 25.4644V25.896H117.234C117.266 27.3115 118.047 28.1367 119.266 28.1367C120.192 28.1367 120.764 27.6987 120.948 27.2861L120.973 27.229H122.078L122.065 27.2798C121.83 28.2065 120.853 29.1206 119.24 29.1206ZM119.164 23.0205C118.148 23.0205 117.374 23.7124 117.253 25.0137H121.037C120.922 23.6616 120.173 23.0205 119.164 23.0205ZM126.72 29.1206C124.803 29.1206 123.578 27.7305 123.578 25.5596V25.5469C123.578 23.4204 124.797 22.0366 126.714 22.0366C128.377 22.0366 129.374 22.9951 129.577 24.2139L129.583 24.252H128.485L128.479 24.2329C128.307 23.5601 127.698 23.0142 126.714 23.0142C125.483 23.0142 124.708 24.0044 124.708 25.5469V25.5596C124.708 27.1338 125.495 28.1431 126.714 28.1431C127.634 28.1431 128.218 27.7368 128.472 26.9751L128.485 26.937L129.577 26.9307L129.564 27.0005C129.285 28.2383 128.364 29.1206 126.72 29.1206ZM133.121 29.1206C131.82 29.1206 130.836 28.3335 130.836 27.0894V27.0767C130.836 25.8579 131.738 25.1533 133.331 25.0581L135.292 24.9375V24.3154C135.292 23.4712 134.778 23.0142 133.756 23.0142C132.937 23.0142 132.398 23.3188 132.22 23.8521L132.214 23.8711H131.109L131.115 23.833C131.293 22.7603 132.334 22.0366 133.794 22.0366C135.464 22.0366 136.397 22.8936 136.397 24.3154V29H135.292V27.9907H135.191C134.759 28.7207 134.042 29.1206 133.121 29.1206ZM131.966 27.064C131.966 27.7559 132.556 28.1621 133.35 28.1621C134.473 28.1621 135.292 27.4258 135.292 26.4482V25.8262L133.464 25.9404C132.423 26.0039 131.966 26.3721 131.966 27.0513V27.064Z" fill="#D45C69"/>
<path d="M21.377 54V43.4312H25.5957C27.7417 43.4312 29.1919 44.8447 29.1919 46.9614V46.9761C29.1919 49.0854 27.7417 50.5063 25.5957 50.5063H23.2666V54H21.377ZM25.1343 44.9766H23.2666V48.9829H25.1343C26.4893 48.9829 27.2803 48.2505 27.2803 46.9834V46.9688C27.2803 45.7017 26.4893 44.9766 25.1343 44.9766ZM33.0315 54.1318C31.508 54.1318 30.4021 53.1943 30.4021 51.7368V51.7222C30.4021 50.2939 31.4934 49.459 33.4416 49.3418L35.4997 49.2173V48.5288C35.4997 47.7305 34.9797 47.291 33.9983 47.291C33.1633 47.291 32.6213 47.5913 32.4382 48.1187L32.4309 48.1479H30.7097L30.717 48.082C30.8928 46.7344 32.1819 45.8408 34.0862 45.8408C36.1443 45.8408 37.3015 46.8369 37.3015 48.5288V54H35.4997V52.9014H35.3752C34.9358 53.6777 34.0862 54.1318 33.0315 54.1318ZM32.2038 51.6489C32.2038 52.3301 32.7825 52.7329 33.5881 52.7329C34.6868 52.7329 35.4997 52.0151 35.4997 51.063V50.4185L33.698 50.5356C32.6799 50.6016 32.2038 50.9751 32.2038 51.6343V51.6489ZM42.833 54.1611C40.4233 54.1611 39.0024 52.6011 39.0024 49.9863V49.9717C39.0024 47.3862 40.416 45.8408 42.8257 45.8408C44.8838 45.8408 46.1142 46.9834 46.3193 48.6387V48.668H44.5981L44.5908 48.646C44.4223 47.8696 43.8291 47.313 42.833 47.313C41.5879 47.313 40.8554 48.2944 40.8554 49.9717V49.9863C40.8554 51.6855 41.5952 52.6816 42.833 52.6816C43.7778 52.6816 44.3564 52.2495 44.5835 51.4072L44.5981 51.3779L46.3193 51.3706L46.3047 51.4292C46.041 53.0698 44.8618 54.1611 42.833 54.1611ZM51.3674 54.1611C48.9577 54.1611 47.5368 52.6011 47.5368 49.9863V49.9717C47.5368 47.3862 48.9504 45.8408 51.3601 45.8408C53.4182 45.8408 54.6487 46.9834 54.8537 48.6387V48.668H53.1325L53.1252 48.646C52.9568 47.8696 52.3635 47.313 51.3674 47.313C50.1223 47.313 49.3899 48.2944 49.3899 49.9717V49.9863C49.3899 51.6855 50.1296 52.6816 51.3674 52.6816C52.3122 52.6816 52.8908 52.2495 53.1179 51.4072L53.1325 51.3779L54.8537 51.3706L54.8391 51.4292C54.5754 53.0698 53.3962 54.1611 51.3674 54.1611ZM58.7226 50.543H58.3125V54H56.4887V45.9946H58.3125V49.21H58.708L61.3447 45.9946H63.4394L60.2094 49.7007L63.5932 54H61.3886L58.7226 50.543ZM66.9055 54.1318C65.382 54.1318 64.2761 53.1943 64.2761 51.7368V51.7222C64.2761 50.2939 65.3674 49.459 67.3156 49.3418L69.3737 49.2173V48.5288C69.3737 47.7305 68.8537 47.291 67.8723 47.291C67.0373 47.291 66.4953 47.5913 66.3122 48.1187L66.3049 48.1479H64.5837L64.591 48.082C64.7668 46.7344 66.0559 45.8408 67.9602 45.8408C70.0183 45.8408 71.1755 46.8369 71.1755 48.5288V54H69.3737V52.9014H69.2492C68.8098 53.6777 67.9602 54.1318 66.9055 54.1318ZM66.0778 51.6489C66.0778 52.3301 66.6564 52.7329 67.4621 52.7329C68.5607 52.7329 69.3737 52.0151 69.3737 51.063V50.4185L67.572 50.5356C66.5539 50.6016 66.0778 50.9751 66.0778 51.6343V51.6489ZM74.5903 54H72.4443L75.5644 49.7153L72.5908 45.9946H74.6562L77.0292 49.2393H77.476V45.9946H79.2485V49.2393H79.6953L82.0756 45.9946H84.1264L81.1674 49.6934L84.2949 54H82.1415L79.7172 50.5137H79.2485V54H77.476V50.5137H77.0146L74.5903 54ZM85.6076 54V45.9946H87.4094V51.356H87.5558L90.9323 45.9946H92.7341V54H90.9323V48.6094H90.7785L87.4094 54H85.6076ZM100.976 45.9946V47.4082H98.5072V54H96.6835V47.4082H94.2226V45.9946H100.976ZM105.643 54.1611C103.262 54.1611 101.819 52.5645 101.819 50.0156V50.0083C101.819 47.4888 103.277 45.8408 105.555 45.8408C107.833 45.8408 109.239 47.4375 109.239 49.8545V50.4551H103.643C103.665 51.8906 104.442 52.7256 105.679 52.7256C106.668 52.7256 107.232 52.2275 107.408 51.8613L107.43 51.8101H109.166L109.144 51.876C108.887 52.9087 107.818 54.1611 105.643 54.1611ZM105.577 47.269C104.559 47.269 103.797 47.9575 103.658 49.2319H107.459C107.335 47.9209 106.595 47.269 105.577 47.269ZM116.955 50.543H116.545V54H114.721V45.9946H116.545V49.21H116.94L119.577 45.9946H121.672L118.442 49.7007L121.825 54H119.621L116.955 50.543ZM125.138 54.1318C123.614 54.1318 122.508 53.1943 122.508 51.7368V51.7222C122.508 50.2939 123.599 49.459 125.548 49.3418L127.606 49.2173V48.5288C127.606 47.7305 127.086 47.291 126.104 47.291C125.269 47.291 124.727 47.5913 124.544 48.1187L124.537 48.1479H122.816L122.823 48.082C122.999 46.7344 124.288 45.8408 126.192 45.8408C128.25 45.8408 129.408 46.8369 129.408 48.5288V54H127.606V52.9014H127.481C127.042 53.6777 126.192 54.1318 125.138 54.1318ZM124.31 51.6489C124.31 52.3301 124.889 52.7329 125.694 52.7329C126.793 52.7329 127.606 52.0151 127.606 51.063V50.4185L125.804 50.5356C124.786 50.6016 124.31 50.9751 124.31 51.6343V51.6489ZM133.731 50.543H133.32V54H131.497V45.9946H133.32V49.21H133.716L136.353 45.9946H138.447L135.217 49.7007L138.601 54H136.397L133.731 50.543ZM143.746 54V45.9946H147.533C149.144 45.9946 150.089 46.8076 150.089 48.0381V48.0527C150.089 48.8877 149.51 49.6274 148.697 49.7666V49.8911C149.752 50.0083 150.448 50.7407 150.448 51.7075V51.7222C150.448 53.0845 149.364 54 147.584 54H143.746ZM145.548 49.3198H146.954C147.855 49.3198 148.295 48.9536 148.295 48.2871V48.2725C148.295 47.6646 147.906 47.2544 147.101 47.2544H145.548V49.3198ZM145.548 52.7402H147.254C148.133 52.7402 148.58 52.3301 148.58 51.6416V51.627C148.58 50.9019 148.082 50.543 147.086 50.543H145.548V52.7402ZM155.577 54.1611C153.167 54.1611 151.746 52.6011 151.746 49.9863V49.9717C151.746 47.3862 153.16 45.8408 155.569 45.8408C157.627 45.8408 158.858 46.9834 159.063 48.6387V48.668H157.342L157.334 48.646C157.166 47.8696 156.573 47.313 155.577 47.313C154.331 47.313 153.599 48.2944 153.599 49.9717V49.9863C153.599 51.6855 154.339 52.6816 155.577 52.6816C156.521 52.6816 157.1 52.2495 157.327 51.4072L157.342 51.3779L159.063 51.3706L159.048 51.4292C158.785 53.0698 157.605 54.1611 155.577 54.1611ZM164.104 54.1611C161.723 54.1611 160.28 52.5645 160.28 50.0156V50.0083C160.28 47.4888 161.738 45.8408 164.016 45.8408C166.294 45.8408 167.7 47.4375 167.7 49.8545V50.4551H162.104C162.126 51.8906 162.902 52.7256 164.14 52.7256C165.129 52.7256 165.693 52.2275 165.869 51.8613L165.891 51.8101H167.627L167.605 51.876C167.348 52.9087 166.279 54.1611 164.104 54.1611ZM164.038 47.269C163.02 47.269 162.258 47.9575 162.119 49.2319H165.92C165.795 47.9209 165.056 47.269 164.038 47.269ZM173.182 54V45.9946H180.132V54H178.309V47.4082H175.005V54H173.182ZM182.265 56.6587V45.9946H184.089V47.2471H184.214C184.653 46.3755 185.525 45.8628 186.645 45.8628C188.652 45.8628 189.934 47.4595 189.934 49.9937V50.0083C189.934 52.5571 188.674 54.1318 186.645 54.1318C185.547 54.1318 184.631 53.5898 184.214 52.7256H184.089V56.6587H182.265ZM186.074 52.5938C187.319 52.5938 188.074 51.6123 188.074 50.0083V49.9937C188.074 48.3823 187.319 47.4009 186.074 47.4009C184.836 47.4009 184.067 48.3823 184.067 49.9863V50.001C184.067 51.605 184.836 52.5938 186.074 52.5938ZM195.136 54.1611C192.733 54.1611 191.283 52.5938 191.283 50.001V49.9863C191.283 47.4155 192.755 45.8408 195.136 45.8408C197.523 45.8408 198.988 47.4082 198.988 49.9863V50.001C198.988 52.5938 197.531 54.1611 195.136 54.1611ZM195.136 52.6816C196.403 52.6816 197.121 51.6929 197.121 50.0083V49.9937C197.121 48.3091 196.396 47.313 195.136 47.313C193.869 47.313 193.144 48.3091 193.144 49.9937V50.0083C193.144 51.6929 193.869 52.6816 195.136 52.6816ZM200.719 54V45.9946H202.542V52.5718H205.091V45.9946H206.915V52.5718H209.456V45.9946H211.28V54H200.719ZM215.728 50.5356C215.574 52.8428 214.863 54.0732 213.237 54.0732C212.908 54.0732 212.666 54.022 212.549 53.9854V52.418C212.629 52.4399 212.827 52.4692 213.032 52.4692C213.765 52.4692 214.021 51.5391 214.094 50.3892L214.373 45.9946H220.115V54H218.291V47.4082H215.955L215.728 50.5356ZM225.705 54.1611C223.303 54.1611 221.852 52.5938 221.852 50.001V49.9863C221.852 47.4155 223.324 45.8408 225.705 45.8408C228.093 45.8408 229.557 47.4082 229.557 49.9863V50.001C229.557 52.5938 228.1 54.1611 225.705 54.1611ZM225.705 52.6816C226.972 52.6816 227.69 51.6929 227.69 50.0083V49.9937C227.69 48.3091 226.965 47.313 225.705 47.313C224.438 47.313 223.713 48.3091 223.713 49.9937V50.0083C223.713 51.6929 224.438 52.6816 225.705 52.6816Z" fill="url(#paint1_linear_2171_118111)"/>
</g>
<rect x="295" y="16" width="40" height="40" rx="20" fill="#FF4D4D" fill-opacity="0.3"/>
<mask id="mask0_2171_118111" style="mask-type:alpha" maskUnits="userSpaceOnUse" x="304" y="25" width="22" height="21">
<path d="M315.78 25.7955C315.47 25.1359 314.54 25.1359 314.22 25.7955L311.659 32.2817L304.766 32.5015C304.026 32.5815 303.736 33.501 304.286 34.0007L309.588 38.2582L307.867 44.7643C307.717 45.4839 308.477 46.0436 309.128 45.6938L315 41.956L320.872 45.6938C321.513 46.0436 322.273 45.4839 322.133 44.7643L320.412 38.2582L325.714 34.0007C326.264 33.501 325.974 32.5915 325.234 32.5015L318.341 32.2817L315.78 25.7955Z" fill="url(#paint2_linear_2171_118111)"/>
</mask>
<g mask="url(#mask0_2171_118111)">
<path d="M303 24H327V48H303V24Z" fill="#F52222"/>
</g>
</g>
<rect x="0.5" y="0.5" width="350" height="73" rx="31.5" stroke="white" stroke-opacity="0.1"/>
<defs>
<radialGradient id="paint0_radial_2171_118111" cx="0" cy="0" r="1" gradientUnits="userSpaceOnUse" gradientTransform="translate(251 38) rotate(90) scale(176)">
<stop stop-color="#FF0000" stop-opacity="0.95"/>
<stop offset="1" stop-color="#FF0000" stop-opacity="0"/>
</radialGradient>
<linearGradient id="paint1_linear_2171_118111" x1="240.318" y1="40" x2="279" y2="40" gradientUnits="userSpaceOnUse">
<stop stop-color="#F6F7F8"/>
<stop offset="1" stop-color="#F6F7F8" stop-opacity="0"/>
</linearGradient>
<linearGradient id="paint2_linear_2171_118111" x1="308.617" y1="31.8919" x2="320.612" y2="42.3875" gradientUnits="userSpaceOnUse">
<stop/>
<stop offset="1" stop-opacity="0.65"/>
</linearGradient>
<clipPath id="clip0_2171_118111">
<rect width="351" height="74" rx="32" fill="white"/>
</clipPath>
<clipPath id="clip1_2171_118111">
<rect width="259" height="42" fill="white" transform="translate(20 16)"/>
</clipPath>
</defs>
</svg>
