<svg width="351" height="74" viewBox="0 0 351 74" fill="none" xmlns="http://www.w3.org/2000/svg">
<g clip-path="url(#clip0_2162_117325)">
<rect width="351" height="74" rx="32" fill="white" fill-opacity="0.1"/>
<rect width="351" height="74" fill="black" fill-opacity="0.01"/>
<g clip-path="url(#clip1_2162_117325)">
<path d="M28.417 29H27.2744V20.8687H22.374V29H21.2314V19.8403H28.417V29ZM30.6602 31.2852V22.1572H31.7647V23.249H31.8663C32.2852 22.4873 33.047 22.0366 33.9991 22.0366C35.732 22.0366 36.8682 23.4395 36.8682 25.5723V25.585C36.8682 27.7305 35.7384 29.1206 33.9991 29.1206C33.0596 29.1206 32.2408 28.6509 31.8663 27.9209H31.7647V31.2852H30.6602ZM33.7452 28.1431C34.9957 28.1431 35.7384 27.1782 35.7384 25.585V25.5723C35.7384 23.979 34.9957 23.0142 33.7452 23.0142C32.5011 23.0142 31.7393 23.9917 31.7393 25.5723V25.585C31.7393 27.1655 32.5011 28.1431 33.7452 28.1431ZM41.4538 29.1206C39.505 29.1206 38.299 27.7749 38.299 25.585V25.5723C38.299 23.376 39.505 22.0366 41.4538 22.0366C43.4025 22.0366 44.6086 23.376 44.6086 25.5723V25.585C44.6086 27.7749 43.4025 29.1206 41.4538 29.1206ZM41.4538 28.1431C42.7487 28.1431 43.4787 27.1973 43.4787 25.585V25.5723C43.4787 23.9536 42.7487 23.0142 41.4538 23.0142C40.1588 23.0142 39.4289 23.9536 39.4289 25.5723V25.585C39.4289 27.1973 40.1588 28.1431 41.4538 28.1431ZM46.363 29V22.1572H49.2639C50.5588 22.1572 51.3142 22.8618 51.3142 23.9346V23.9473C51.3142 24.6265 50.8381 25.2676 50.197 25.4009V25.5024C51.0666 25.623 51.6189 26.2324 51.6189 27.0259V27.0386C51.6189 28.2256 50.7493 29 49.2766 29H46.363ZM47.4675 25.0518H48.9275C49.8162 25.0518 50.2161 24.709 50.2161 24.0615V24.0488C50.2161 23.4648 49.8733 23.0713 49.1052 23.0713H47.4675V25.0518ZM47.4675 28.0859H49.2322C50.0701 28.0859 50.4954 27.7051 50.4954 27.0195V27.0068C50.4954 26.2832 50.0066 25.9658 49.0227 25.9658H47.4675V28.0859ZM56.1409 29.1206C54.1859 29.1206 53.0052 27.7495 53.0052 25.604V25.5977C53.0052 23.4839 54.2113 22.0366 56.0711 22.0366C57.931 22.0366 59.0609 23.4204 59.0609 25.4644V25.896H54.1351C54.1668 27.3115 54.9476 28.1367 56.1663 28.1367C57.0931 28.1367 57.6644 27.6987 57.8485 27.2861L57.8738 27.229H58.9783L58.9656 27.2798C58.7308 28.2065 57.7532 29.1206 56.1409 29.1206ZM56.0648 23.0205C55.0491 23.0205 54.2747 23.7124 54.1541 25.0137H57.9373C57.8231 23.6616 57.074 23.0205 56.0648 23.0205ZM60.8217 31.2852V22.1572H61.9262V23.249H62.0277C62.4467 22.4873 63.2084 22.0366 64.1605 22.0366C65.8935 22.0366 67.0297 23.4395 67.0297 25.5723V25.585C67.0297 27.7305 65.8998 29.1206 64.1605 29.1206C63.2211 29.1206 62.4022 28.6509 62.0277 27.9209H61.9262V31.2852H60.8217ZM63.9066 28.1431C65.1571 28.1431 65.8998 27.1782 65.8998 25.585V25.5723C65.8998 23.979 65.1571 23.0142 63.9066 23.0142C62.6625 23.0142 61.9008 23.9917 61.9008 25.5723V25.585C61.9008 27.1655 62.6625 28.1431 63.9066 28.1431ZM70.2505 25.8833H69.9013V29H68.7969V22.1572H69.9013V25.02H70.2505L72.8974 22.1572H74.2241L71.1455 25.3818L74.3447 29H72.9292L70.2505 25.8833ZM77.483 29.1206C76.1817 29.1206 75.1978 28.3335 75.1978 27.0894V27.0767C75.1978 25.8579 76.0992 25.1533 77.6924 25.0581L79.6539 24.9375V24.3154C79.6539 23.4712 79.1397 23.0142 78.1177 23.0142C77.2989 23.0142 76.7593 23.3188 76.5816 23.8521L76.5753 23.8711H75.4708L75.4771 23.833C75.6548 22.7603 76.6959 22.0366 78.1558 22.0366C79.8253 22.0366 80.7584 22.8936 80.7584 24.3154V29H79.6539V27.9907H79.5523C79.1207 28.7207 78.4034 29.1206 77.483 29.1206ZM76.3277 27.064C76.3277 27.7559 76.918 28.1621 77.7115 28.1621C78.835 28.1621 79.6539 27.4258 79.6539 26.4482V25.8262L77.8257 25.9404C76.7847 26.0039 76.3277 26.3721 76.3277 27.0513V27.064ZM89.2439 29.127C87.1491 29.127 86.0573 27.6987 86.0573 24.9565V24.9438C86.0573 21.313 87.0666 19.7642 89.5105 19.6499L90.196 19.6182C90.7419 19.5928 91.3894 19.4912 91.9797 19.25V20.2275C91.7639 20.4307 91.0403 20.5957 90.2468 20.6338L89.5486 20.6655C87.9553 20.7354 87.2634 21.478 87.0095 23.3442L86.9904 23.4839H87.092C87.5554 22.665 88.3742 22.2207 89.4089 22.2207C91.2497 22.2207 92.4304 23.5347 92.4304 25.5977V25.6104C92.4304 27.7812 91.218 29.127 89.2439 29.127ZM89.2439 28.1494C90.5515 28.1494 91.3005 27.2163 91.3005 25.6104V25.5977C91.3005 24.0679 90.5515 23.1982 89.2439 23.1982C87.9362 23.1982 87.1872 24.0679 87.1872 25.5977V25.6104C87.1872 27.2163 87.9362 28.1494 89.2439 28.1494ZM94.1849 29V22.1572H95.2894V27.2607H95.3909L98.7742 22.1572H99.8787V29H98.7742V23.8965H98.6727L95.2894 29H94.1849ZM104.306 29.127C102.846 29.127 101.735 28.4033 101.595 27.2988L101.589 27.248H102.712L102.725 27.2988C102.865 27.8574 103.474 28.2129 104.306 28.2129C105.315 28.2129 105.912 27.7241 105.912 27.0449V27.0322C105.912 26.2896 105.353 25.9468 104.306 25.9468H103.239V25.0327H104.306C105.182 25.0327 105.67 24.6836 105.67 23.9727V23.96C105.67 23.376 105.22 22.9443 104.344 22.9443C103.563 22.9443 102.973 23.2935 102.865 23.8394L102.858 23.8711H101.779L101.786 23.8267C101.944 22.7285 102.947 22.0303 104.344 22.0303C105.873 22.0303 106.749 22.7856 106.749 23.8774V23.8901C106.749 24.582 106.299 25.2104 105.62 25.3691V25.4707C106.521 25.6675 106.997 26.2134 106.997 26.9751V26.9878C106.997 28.2573 105.899 29.127 104.306 29.127ZM113.246 29V25.9023H109.856V29H108.751V22.1572H109.856V24.9883H113.246V22.1572H114.35V29H113.246ZM119.24 29.1206C117.285 29.1206 116.105 27.7495 116.105 25.604V25.5977C116.105 23.4839 117.311 22.0366 119.17 22.0366C121.03 22.0366 122.16 23.4204 122.16 25.4644V25.896H117.234C117.266 27.3115 118.047 28.1367 119.266 28.1367C120.192 28.1367 120.764 27.6987 120.948 27.2861L120.973 27.229H122.078L122.065 27.2798C121.83 28.2065 120.853 29.1206 119.24 29.1206ZM119.164 23.0205C118.148 23.0205 117.374 23.7124 117.253 25.0137H121.037C120.922 23.6616 120.173 23.0205 119.164 23.0205ZM126.72 29.1206C124.803 29.1206 123.578 27.7305 123.578 25.5596V25.5469C123.578 23.4204 124.797 22.0366 126.714 22.0366C128.377 22.0366 129.374 22.9951 129.577 24.2139L129.583 24.252H128.485L128.479 24.2329C128.307 23.5601 127.698 23.0142 126.714 23.0142C125.483 23.0142 124.708 24.0044 124.708 25.5469V25.5596C124.708 27.1338 125.495 28.1431 126.714 28.1431C127.634 28.1431 128.218 27.7368 128.472 26.9751L128.485 26.937L129.577 26.9307L129.564 27.0005C129.285 28.2383 128.364 29.1206 126.72 29.1206ZM133.121 29.1206C131.82 29.1206 130.836 28.3335 130.836 27.0894V27.0767C130.836 25.8579 131.738 25.1533 133.331 25.0581L135.292 24.9375V24.3154C135.292 23.4712 134.778 23.0142 133.756 23.0142C132.937 23.0142 132.398 23.3188 132.22 23.8521L132.214 23.8711H131.109L131.115 23.833C131.293 22.7603 132.334 22.0366 133.794 22.0366C135.464 22.0366 136.397 22.8936 136.397 24.3154V29H135.292V27.9907H135.191C134.759 28.7207 134.042 29.1206 133.121 29.1206ZM131.966 27.064C131.966 27.7559 132.556 28.1621 133.35 28.1621C134.473 28.1621 135.292 27.4258 135.292 26.4482V25.8262L133.464 25.9404C132.423 26.0039 131.966 26.3721 131.966 27.0513V27.064Z" fill="#9299A2"/>
<path d="M23.3398 49.3857V47.855H24.7534C25.9326 47.855 26.6797 47.2104 26.6797 46.251V46.2363C26.6797 45.3428 25.9839 44.7788 24.8047 44.7788C23.6548 44.7788 22.9004 45.3281 22.8125 46.2583L22.8052 46.3022H21.0254L21.0327 46.207C21.1572 44.3394 22.6294 43.1675 24.8633 43.1675C27.0093 43.1675 28.5181 44.332 28.5181 46.0239V46.0386C28.5181 47.2031 27.7051 48.1699 26.5332 48.4336V48.5581C27.9175 48.6973 28.8916 49.6494 28.8916 51.0996V51.1143C28.8916 52.938 27.1265 54.2637 24.8193 54.2637C22.4829 54.2637 20.8716 53.0112 20.769 51.1509L20.7617 51.085H22.5928L22.6001 51.1289C22.688 52.0811 23.5522 52.6523 24.8267 52.6523C26.1084 52.6523 26.9653 52.0005 26.9653 51.0044V50.9897C26.9653 50.001 26.167 49.3857 24.7827 49.3857H23.3398ZM32.8264 54.1318C31.303 54.1318 30.197 53.1943 30.197 51.7368V51.7222C30.197 50.2939 31.2883 49.459 33.2366 49.3418L35.2947 49.2173V48.5288C35.2947 47.7305 34.7746 47.291 33.7932 47.291C32.9582 47.291 32.4163 47.5913 32.2331 48.1187L32.2258 48.1479H30.5046L30.512 48.082C30.6877 46.7344 31.9768 45.8408 33.8811 45.8408C35.9392 45.8408 37.0964 46.8369 37.0964 48.5288V54H35.2947V52.9014H35.1702C34.7307 53.6777 33.8811 54.1318 32.8264 54.1318ZM31.9988 51.6489C31.9988 52.3301 32.5774 52.7329 33.383 52.7329C34.4817 52.7329 35.2947 52.0151 35.2947 51.063V50.4185L33.4929 50.5356C32.4748 50.6016 31.9988 50.9751 31.9988 51.6343V51.6489ZM44.5835 47.4082H41.0093V54H39.1855V45.9946H44.5835V47.4082ZM46.1892 56.6587V45.9946H48.0129V47.2471H48.1374C48.5769 46.3755 49.4485 45.8628 50.5691 45.8628C52.5759 45.8628 53.8576 47.4595 53.8576 49.9937V50.0083C53.8576 52.5571 52.5979 54.1318 50.5691 54.1318C49.4704 54.1318 48.5549 53.5898 48.1374 52.7256H48.0129V56.6587H46.1892ZM49.9978 52.5938C51.2429 52.5938 51.9973 51.6123 51.9973 50.0083V49.9937C51.9973 48.3823 51.2429 47.4009 49.9978 47.4009C48.76 47.4009 47.9909 48.3823 47.9909 49.9863V50.001C47.9909 51.605 48.76 52.5938 49.9978 52.5938ZM56.1372 56.8125C55.9174 56.8125 55.6611 56.8052 55.4414 56.7832V55.3843C55.5879 55.3989 55.7929 55.4062 55.9834 55.4062C56.7304 55.4062 57.1772 55.0986 57.375 54.3735L57.4702 54.0073L54.6064 45.9946H56.5986L58.4663 52.2495H58.6054L60.4658 45.9946H62.3847L59.5136 54.1685C58.8252 56.1753 57.9096 56.8125 56.1372 56.8125ZM66.5319 54.1685C64.7155 54.1685 63.2727 53.3481 63.0969 51.7954L63.0896 51.7295H64.862L64.8767 51.7808C65.0451 52.396 65.653 52.7549 66.51 52.7549C67.5061 52.7549 68.092 52.2935 68.092 51.6343V51.6196C68.092 50.9092 67.5354 50.5503 66.5026 50.5503H65.3527V49.3198H66.4953C67.4255 49.3198 67.8649 48.939 67.8649 48.2798V48.2651C67.8649 47.6865 67.4182 47.2471 66.5173 47.2471C65.697 47.2471 65.1477 47.6206 65.0378 48.1992L65.0305 48.2358H63.302L63.3093 48.1772C63.4924 46.7783 64.613 45.8335 66.5759 45.8335C68.4729 45.8335 69.6447 46.6904 69.6447 48.0454V48.0601C69.6447 48.9023 69.1101 49.5542 68.2458 49.752V49.8765C69.3591 50.0962 69.9011 50.7407 69.9011 51.6343V51.6489C69.9011 53.1357 68.59 54.1685 66.5319 54.1685ZM71.6679 54V45.9946H73.4697V51.356H73.6162L76.9926 45.9946H78.7944V54H76.9926V48.6094H76.8388L73.4697 54H71.6679ZM87.0358 45.9946V47.4082H84.5676V54H82.7438V47.4082H80.2829V45.9946H87.0358ZM91.703 54.1611C89.3227 54.1611 87.8798 52.5645 87.8798 50.0156V50.0083C87.8798 47.4888 89.3373 45.8408 91.6152 45.8408C93.893 45.8408 95.2992 47.4375 95.2992 49.8545V50.4551H89.7035C89.7255 51.8906 90.5019 52.7256 91.7397 52.7256C92.7284 52.7256 93.2924 52.2275 93.4682 51.8613L93.4902 51.8101H95.226L95.204 51.876C94.9477 52.9087 93.8783 54.1611 91.703 54.1611ZM91.6371 47.269C90.6191 47.269 89.8573 47.9575 89.7182 49.2319H93.5195C93.3949 47.9209 92.6552 47.269 91.6371 47.269ZM101.536 56.0874H99.8656V52.5718H100.496C101.089 52.2202 101.338 51.2754 101.411 50.1987L101.689 45.9946H107.717V52.5718H108.948V56.0874H107.278V54H101.536V56.0874ZM105.886 52.5718V47.4229H103.249L103.044 50.2939C102.978 51.1729 102.795 51.9419 102.444 52.4473V52.5718H105.886ZM113.717 54.1611C111.315 54.1611 109.865 52.5938 109.865 50.001V49.9863C109.865 47.4155 111.337 45.8408 113.717 45.8408C116.105 45.8408 117.57 47.4082 117.57 49.9863V50.001C117.57 52.5938 116.112 54.1611 113.717 54.1611ZM113.717 52.6816C114.985 52.6816 115.702 51.6929 115.702 50.0083V49.9937C115.702 48.3091 114.977 47.313 113.717 47.313C112.45 47.313 111.725 48.3091 111.725 49.9937V50.0083C111.725 51.6929 112.45 52.6816 113.717 52.6816ZM121.534 50.543H121.124V54H119.3V45.9946H121.124V49.21H121.519L124.156 45.9946H126.251L123.021 49.7007L126.405 54H124.2L121.534 50.543ZM128.362 56.8125C128.142 56.8125 127.886 56.8052 127.666 56.7832V55.3843C127.813 55.3989 128.018 55.4062 128.208 55.4062C128.955 55.4062 129.402 55.0986 129.6 54.3735L129.695 54.0073L126.831 45.9946H128.823L130.691 52.2495H130.83L132.691 45.9946H134.609L131.738 54.1685C131.05 56.1753 130.134 56.8125 128.362 56.8125ZM137.819 54H136.076V45.9946H138.398L140.764 51.5684H140.895L143.268 45.9946H145.546V54H143.803V48.5361H143.664L141.459 53.6411H140.156L137.958 48.5361H137.819V54ZM151.107 54.1611C148.727 54.1611 147.284 52.5645 147.284 50.0156V50.0083C147.284 47.4888 148.741 45.8408 151.019 45.8408C153.297 45.8408 154.703 47.4375 154.703 49.8545V50.4551H149.108C149.129 51.8906 149.906 52.7256 151.144 52.7256C152.132 52.7256 152.696 52.2275 152.872 51.8613L152.894 51.8101H154.63L154.608 51.876C154.352 52.9087 153.282 54.1611 151.107 54.1611ZM151.041 47.269C150.023 47.269 149.261 47.9575 149.122 49.2319H152.923C152.799 47.9209 152.059 47.269 151.041 47.269ZM161.626 54V50.5796H158.25V54H156.426V45.9946H158.25V49.166H161.626V45.9946H163.45V54H161.626ZM171.691 45.9946V47.4082H169.223V54H167.399V47.4082H164.939V45.9946H171.691ZM173.173 54V45.9946H174.996V48.4116H176.578C178.446 48.4116 179.64 49.5029 179.64 51.2021V51.2168C179.64 52.916 178.446 54 176.578 54H173.173ZM180.951 54V45.9946H182.775V54H180.951ZM176.344 49.8179H174.996V52.5938H176.344C177.238 52.5938 177.802 52.0298 177.802 51.2095V51.1948C177.802 50.3672 177.23 49.8179 176.344 49.8179ZM189.414 56.0874H187.744V52.5718H188.374C188.967 52.2202 189.216 51.2754 189.289 50.1987L189.568 45.9946H195.596V52.5718H196.826V56.0874H195.156V54H189.414V56.0874ZM193.764 52.5718V47.4229H191.128L190.923 50.2939C190.857 51.1729 190.674 51.9419 190.322 52.4473V52.5718H193.764ZM201.596 54.1611C199.193 54.1611 197.743 52.5938 197.743 50.001V49.9863C197.743 47.4155 199.215 45.8408 201.596 45.8408C203.983 45.8408 205.448 47.4082 205.448 49.9863V50.001C205.448 52.5938 203.991 54.1611 201.596 54.1611ZM201.596 52.6816C202.863 52.6816 203.581 51.6929 203.581 50.0083V49.9937C203.581 48.3091 202.856 47.313 201.596 47.313C200.329 47.313 199.604 48.3091 199.604 49.9937V50.0083C199.604 51.6929 200.329 52.6816 201.596 52.6816ZM213.45 54V45.2915H213.325L210.696 47.1519V45.3721L213.457 43.4312H215.339V54H213.45ZM221.911 54.2637C219.399 54.2637 217.89 52.1323 217.89 48.7192V48.7046C217.89 45.2915 219.399 43.1675 221.911 43.1675C224.423 43.1675 225.947 45.2915 225.947 48.7046V48.7192C225.947 52.1323 224.423 54.2637 221.911 54.2637ZM221.911 52.7329C223.259 52.7329 224.042 51.2241 224.042 48.7192V48.7046C224.042 46.1997 223.259 44.7056 221.911 44.7056C220.563 44.7056 219.794 46.1997 219.794 48.7046V48.7192C219.794 51.2241 220.563 52.7329 221.911 52.7329ZM235.047 54.1611C232.637 54.1611 231.216 52.6011 231.216 49.9863V49.9717C231.216 47.3862 232.63 45.8408 235.039 45.8408C237.097 45.8408 238.328 46.9834 238.533 48.6387V48.668H236.812L236.804 48.646C236.636 47.8696 236.043 47.313 235.047 47.313C233.801 47.313 233.069 48.2944 233.069 49.9717V49.9863C233.069 51.6855 233.809 52.6816 235.047 52.6816C235.991 52.6816 236.57 52.2495 236.797 51.4072L236.812 51.3779L238.533 51.3706L238.518 51.4292C238.255 53.0698 237.075 54.1611 235.047 54.1611ZM243.574 54.1611C241.193 54.1611 239.75 52.5645 239.75 50.0156V50.0083C239.75 47.4888 241.208 45.8408 243.486 45.8408C245.764 45.8408 247.17 47.4375 247.17 49.8545V50.4551H241.574C241.596 51.8906 242.373 52.7256 243.61 52.7256C244.599 52.7256 245.163 52.2275 245.339 51.8613L245.361 51.8101H247.097L247.075 51.876C246.818 52.9087 245.749 54.1611 243.574 54.1611ZM243.508 47.269C242.49 47.269 241.728 47.9575 241.589 49.2319H245.39C245.266 47.9209 244.526 47.269 243.508 47.269ZM254.093 54V50.5796H250.717V54H248.893V45.9946H250.717V49.166H254.093V45.9946H255.917V54H254.093Z" fill="url(#paint0_linear_2162_117325)"/>
</g>
<rect x="295" y="16" width="40" height="40" rx="20" fill="white" fill-opacity="0.3"/>
<mask id="mask0_2162_117325" style="mask-type:alpha" maskUnits="userSpaceOnUse" x="304" y="25" width="22" height="21">
<path d="M315.78 25.7955C315.47 25.1359 314.54 25.1359 314.22 25.7955L311.659 32.2817L304.766 32.5015C304.026 32.5815 303.736 33.501 304.286 34.0007L309.588 38.2582L307.867 44.7643C307.717 45.4839 308.477 46.0436 309.128 45.6938L315 41.956L320.872 45.6938C321.513 46.0436 322.273 45.4839 322.133 44.7643L320.412 38.2582L325.714 34.0007C326.264 33.501 325.974 32.5915 325.234 32.5015L318.341 32.2817L315.78 25.7955Z" fill="url(#paint1_linear_2162_117325)"/>
</mask>
<g mask="url(#mask0_2162_117325)">
<path d="M303 24H327V48H303V24Z" fill="#F6F7F8"/>
</g>
</g>
<rect x="0.5" y="0.5" width="350" height="73" rx="31.5" stroke="white" stroke-opacity="0.1"/>
<defs>
<linearGradient id="paint0_linear_2162_117325" x1="240.318" y1="40" x2="279" y2="40" gradientUnits="userSpaceOnUse">
<stop stop-color="#F6F7F8"/>
<stop offset="1" stop-color="#F6F7F8" stop-opacity="0"/>
</linearGradient>
<linearGradient id="paint1_linear_2162_117325" x1="308.617" y1="31.8919" x2="320.612" y2="42.3875" gradientUnits="userSpaceOnUse">
<stop/>
<stop offset="1" stop-opacity="0.65"/>
</linearGradient>
<clipPath id="clip0_2162_117325">
<rect width="351" height="74" rx="32" fill="white"/>
</clipPath>
<clipPath id="clip1_2162_117325">
<rect width="259" height="42" fill="white" transform="translate(20 16)"/>
</clipPath>
</defs>
</svg>
